%TF.GenerationSoftware,KiCad,Pcbnew,7.0.10*%
%TF.CreationDate,2024-02-05T17:12:21+01:00*%
%TF.ProjectId,led-driver-board-4gang,6c65642d-6472-4697-9665-722d626f6172,rev?*%
%TF.SameCoordinates,Original*%
%TF.FileFunction,Soldermask,Bot*%
%TF.FilePolarity,Negative*%
%FSLAX46Y46*%
G04 Gerber Fmt 4.6, Leading zero omitted, Abs format (unit mm)*
G04 Created by KiCad (PCBNEW 7.0.10) date 2024-02-05 17:12:21*
%MOMM*%
%LPD*%
G01*
G04 APERTURE LIST*
G04 Aperture macros list*
%AMRoundRect*
0 Rectangle with rounded corners*
0 $1 Rounding radius*
0 $2 $3 $4 $5 $6 $7 $8 $9 X,Y pos of 4 corners*
0 Add a 4 corners polygon primitive as box body*
4,1,4,$2,$3,$4,$5,$6,$7,$8,$9,$2,$3,0*
0 Add four circle primitives for the rounded corners*
1,1,$1+$1,$2,$3*
1,1,$1+$1,$4,$5*
1,1,$1+$1,$6,$7*
1,1,$1+$1,$8,$9*
0 Add four rect primitives between the rounded corners*
20,1,$1+$1,$2,$3,$4,$5,0*
20,1,$1+$1,$4,$5,$6,$7,0*
20,1,$1+$1,$6,$7,$8,$9,0*
20,1,$1+$1,$8,$9,$2,$3,0*%
G04 Aperture macros list end*
%ADD10RoundRect,0.250000X0.750000X-0.600000X0.750000X0.600000X-0.750000X0.600000X-0.750000X-0.600000X0*%
%ADD11O,2.000000X1.700000*%
%ADD12C,0.800000*%
%ADD13C,6.400000*%
%ADD14R,2.400000X2.400000*%
%ADD15C,2.400000*%
%ADD16RoundRect,0.250000X-0.600000X-0.750000X0.600000X-0.750000X0.600000X0.750000X-0.600000X0.750000X0*%
%ADD17O,1.700000X2.000000*%
%ADD18RoundRect,0.250000X-0.600000X-0.725000X0.600000X-0.725000X0.600000X0.725000X-0.600000X0.725000X0*%
%ADD19O,1.700000X1.950000*%
%ADD20C,2.780000*%
G04 APERTURE END LIST*
D10*
%TO.C,J10*%
X22475000Y-38750000D03*
D11*
X22475000Y-36250000D03*
%TD*%
D12*
%TO.C,H4*%
X58100000Y-62000000D03*
X58802944Y-60302944D03*
X58802944Y-63697056D03*
X60500000Y-59600000D03*
D13*
X60500000Y-62000000D03*
D12*
X60500000Y-64400000D03*
X62197056Y-60302944D03*
X62197056Y-63697056D03*
X62900000Y-62000000D03*
%TD*%
%TO.C,H3*%
X20600000Y-62000000D03*
X21302944Y-60302944D03*
X21302944Y-63697056D03*
X23000000Y-59600000D03*
D13*
X23000000Y-62000000D03*
D12*
X23000000Y-64400000D03*
X24697056Y-60302944D03*
X24697056Y-63697056D03*
X25400000Y-62000000D03*
%TD*%
%TO.C,H2*%
X58100000Y-29000000D03*
X58802944Y-27302944D03*
X58802944Y-30697056D03*
X60500000Y-26600000D03*
D13*
X60500000Y-29000000D03*
D12*
X60500000Y-31400000D03*
X62197056Y-27302944D03*
X62197056Y-30697056D03*
X62900000Y-29000000D03*
%TD*%
%TO.C,H1*%
X20600000Y-29000000D03*
X21302944Y-27302944D03*
X21302944Y-30697056D03*
X23000000Y-26600000D03*
D13*
X23000000Y-29000000D03*
D12*
X23000000Y-31400000D03*
X24697056Y-27302944D03*
X24697056Y-30697056D03*
X25400000Y-29000000D03*
%TD*%
D14*
%TO.C,J9*%
X53500000Y-31500000D03*
D15*
X48500000Y-31500000D03*
%TD*%
D16*
%TO.C,J8*%
X30000000Y-61000000D03*
D17*
X32500000Y-61000000D03*
%TD*%
D16*
%TO.C,J7*%
X30000000Y-54000000D03*
D17*
X32500000Y-54000000D03*
%TD*%
D16*
%TO.C,J6*%
X30000000Y-47000000D03*
D17*
X32500000Y-47000000D03*
%TD*%
D16*
%TO.C,J5*%
X30000000Y-40000000D03*
D17*
X32500000Y-40000000D03*
%TD*%
D18*
%TO.C,J4*%
X48500000Y-61000000D03*
D19*
X51000000Y-61000000D03*
X53500000Y-61000000D03*
%TD*%
D18*
%TO.C,J3*%
X48500000Y-54000000D03*
D19*
X51000000Y-54000000D03*
X53500000Y-54000000D03*
%TD*%
D18*
%TO.C,J2*%
X48500000Y-47000000D03*
D19*
X51000000Y-47000000D03*
X53500000Y-47000000D03*
%TD*%
D18*
%TO.C,J1*%
X48500000Y-40000000D03*
D19*
X51000000Y-40000000D03*
X53500000Y-40000000D03*
%TD*%
D20*
%TO.C,F1*%
X30330000Y-31400000D03*
X30330000Y-28000000D03*
X40250000Y-28000000D03*
X40250000Y-31400000D03*
%TD*%
M02*
