%TF.GenerationSoftware,KiCad,Pcbnew,7.0.10*%
%TF.CreationDate,2024-02-05T17:12:15+01:00*%
%TF.ProjectId,led-driver-board-4gang,6c65642d-6472-4697-9665-722d626f6172,rev?*%
%TF.SameCoordinates,Original*%
%TF.FileFunction,Drillmap*%
%TF.FilePolarity,Positive*%
%FSLAX45Y45*%
G04 Gerber Fmt 4.5, Leading zero omitted, Abs format (unit mm)*
G04 Created by KiCad (PCBNEW 7.0.10) date 2024-02-05 17:12:15*
%MOMM*%
%LPD*%
G01*
G04 APERTURE LIST*
%ADD10C,0.100000*%
%ADD11C,0.200000*%
%ADD12C,0.120000*%
%ADD13C,0.178000*%
%ADD14C,0.320000*%
G04 APERTURE END LIST*
D10*
X6050000Y-6600000D02*
G75*
G03*
X6450000Y-6200000I0J400000D01*
G01*
X1900000Y-6200000D02*
G75*
G03*
X2300000Y-6600000I400000J0D01*
G01*
X2300000Y-2500000D02*
G75*
G03*
X1900000Y-2900000I0J-400000D01*
G01*
X6450000Y-2900000D02*
G75*
G03*
X6050000Y-2500000I-400000J0D01*
G01*
X1900000Y-6200000D02*
X1900000Y-2900000D01*
X2300000Y-2500000D02*
X6050000Y-2500000D01*
X6450000Y-6200000D02*
X6450000Y-2900000D01*
X2300000Y-6600000D02*
X6050000Y-6600000D01*
D11*
D10*
X2035000Y-2875000D02*
X2085000Y-2925000D01*
X2085000Y-2875000D02*
X2035000Y-2925000D01*
X2035000Y-6175000D02*
X2085000Y-6225000D01*
X2085000Y-6175000D02*
X2035000Y-6225000D01*
X2105294Y-2705294D02*
X2155294Y-2755294D01*
X2155294Y-2705294D02*
X2105294Y-2755294D01*
X2105294Y-3044706D02*
X2155294Y-3094706D01*
X2155294Y-3044706D02*
X2105294Y-3094706D01*
X2105294Y-6005294D02*
X2155294Y-6055294D01*
X2155294Y-6005294D02*
X2105294Y-6055294D01*
X2105294Y-6344706D02*
X2155294Y-6394706D01*
X2155294Y-6344706D02*
X2105294Y-6394706D01*
X2275000Y-2635000D02*
X2325000Y-2685000D01*
X2325000Y-2635000D02*
X2275000Y-2685000D01*
X2275000Y-3115000D02*
X2325000Y-3165000D01*
X2325000Y-3115000D02*
X2275000Y-3165000D01*
X2275000Y-5935000D02*
X2325000Y-5985000D01*
X2325000Y-5935000D02*
X2275000Y-5985000D01*
X2275000Y-6415000D02*
X2325000Y-6465000D01*
X2325000Y-6415000D02*
X2275000Y-6465000D01*
X2444706Y-2705294D02*
X2494706Y-2755294D01*
X2494706Y-2705294D02*
X2444706Y-2755294D01*
X2444706Y-3044706D02*
X2494706Y-3094706D01*
X2494706Y-3044706D02*
X2444706Y-3094706D01*
X2444706Y-6005294D02*
X2494706Y-6055294D01*
X2494706Y-6005294D02*
X2444706Y-6055294D01*
X2444706Y-6344706D02*
X2494706Y-6394706D01*
X2494706Y-6344706D02*
X2444706Y-6394706D01*
X2515000Y-2875000D02*
X2565000Y-2925000D01*
X2565000Y-2875000D02*
X2515000Y-2925000D01*
X2515000Y-6175000D02*
X2565000Y-6225000D01*
X2565000Y-6175000D02*
X2515000Y-6225000D01*
X5785000Y-2875000D02*
X5835000Y-2925000D01*
X5835000Y-2875000D02*
X5785000Y-2925000D01*
X5785000Y-6175000D02*
X5835000Y-6225000D01*
X5835000Y-6175000D02*
X5785000Y-6225000D01*
X5855294Y-2705294D02*
X5905294Y-2755294D01*
X5905294Y-2705294D02*
X5855294Y-2755294D01*
X5855294Y-3044706D02*
X5905294Y-3094706D01*
X5905294Y-3044706D02*
X5855294Y-3094706D01*
X5855294Y-6005294D02*
X5905294Y-6055294D01*
X5905294Y-6005294D02*
X5855294Y-6055294D01*
X5855294Y-6344706D02*
X5905294Y-6394706D01*
X5905294Y-6344706D02*
X5855294Y-6394706D01*
X6025000Y-2635000D02*
X6075000Y-2685000D01*
X6075000Y-2635000D02*
X6025000Y-2685000D01*
X6025000Y-3115000D02*
X6075000Y-3165000D01*
X6075000Y-3115000D02*
X6025000Y-3165000D01*
X6025000Y-5935000D02*
X6075000Y-5985000D01*
X6075000Y-5935000D02*
X6025000Y-5985000D01*
X6025000Y-6415000D02*
X6075000Y-6465000D01*
X6075000Y-6415000D02*
X6025000Y-6465000D01*
X6194706Y-2705294D02*
X6244706Y-2755294D01*
X6244706Y-2705294D02*
X6194706Y-2755294D01*
X6194706Y-3044706D02*
X6244706Y-3094706D01*
X6244706Y-3044706D02*
X6194706Y-3094706D01*
X6194706Y-6005294D02*
X6244706Y-6055294D01*
X6244706Y-6005294D02*
X6194706Y-6055294D01*
X6194706Y-6344706D02*
X6244706Y-6394706D01*
X6244706Y-6344706D02*
X6194706Y-6394706D01*
X6265000Y-2875000D02*
X6315000Y-2925000D01*
X6315000Y-2875000D02*
X6265000Y-2925000D01*
X6265000Y-6175000D02*
X6315000Y-6225000D01*
X6315000Y-6175000D02*
X6265000Y-6225000D01*
X4897500Y-4000000D02*
G75*
G03*
X4802500Y-4000000I-47500J0D01*
G01*
X4802500Y-4000000D02*
G75*
G03*
X4897500Y-4000000I47500J0D01*
G01*
X4897500Y-4700000D02*
G75*
G03*
X4802500Y-4700000I-47500J0D01*
G01*
X4802500Y-4700000D02*
G75*
G03*
X4897500Y-4700000I47500J0D01*
G01*
X4897500Y-5400000D02*
G75*
G03*
X4802500Y-5400000I-47500J0D01*
G01*
X4802500Y-5400000D02*
G75*
G03*
X4897500Y-5400000I47500J0D01*
G01*
X4897500Y-6100000D02*
G75*
G03*
X4802500Y-6100000I-47500J0D01*
G01*
X4802500Y-6100000D02*
G75*
G03*
X4897500Y-6100000I47500J0D01*
G01*
X5147500Y-4000000D02*
G75*
G03*
X5052500Y-4000000I-47500J0D01*
G01*
X5052500Y-4000000D02*
G75*
G03*
X5147500Y-4000000I47500J0D01*
G01*
X5147500Y-4700000D02*
G75*
G03*
X5052500Y-4700000I-47500J0D01*
G01*
X5052500Y-4700000D02*
G75*
G03*
X5147500Y-4700000I47500J0D01*
G01*
X5147500Y-5400000D02*
G75*
G03*
X5052500Y-5400000I-47500J0D01*
G01*
X5052500Y-5400000D02*
G75*
G03*
X5147500Y-5400000I47500J0D01*
G01*
X5147500Y-6100000D02*
G75*
G03*
X5052500Y-6100000I-47500J0D01*
G01*
X5052500Y-6100000D02*
G75*
G03*
X5147500Y-6100000I47500J0D01*
G01*
X5397500Y-4000000D02*
G75*
G03*
X5302500Y-4000000I-47500J0D01*
G01*
X5302500Y-4000000D02*
G75*
G03*
X5397500Y-4000000I47500J0D01*
G01*
X5397500Y-4700000D02*
G75*
G03*
X5302500Y-4700000I-47500J0D01*
G01*
X5302500Y-4700000D02*
G75*
G03*
X5397500Y-4700000I47500J0D01*
G01*
X5397500Y-5400000D02*
G75*
G03*
X5302500Y-5400000I-47500J0D01*
G01*
X5302500Y-5400000D02*
G75*
G03*
X5397500Y-5400000I47500J0D01*
G01*
X5397500Y-6100000D02*
G75*
G03*
X5302500Y-6100000I-47500J0D01*
G01*
X5302500Y-6100000D02*
G75*
G03*
X5397500Y-6100000I47500J0D01*
G01*
X2247500Y-3575000D02*
X2247500Y-3675000D01*
X2197500Y-3625000D02*
X2297500Y-3625000D01*
X2247500Y-3825000D02*
X2247500Y-3925000D01*
X2197500Y-3875000D02*
X2297500Y-3875000D01*
X3000000Y-3950000D02*
X3000000Y-4050000D01*
X2950000Y-4000000D02*
X3050000Y-4000000D01*
X3000000Y-4650000D02*
X3000000Y-4750000D01*
X2950000Y-4700000D02*
X3050000Y-4700000D01*
X3000000Y-5350000D02*
X3000000Y-5450000D01*
X2950000Y-5400000D02*
X3050000Y-5400000D01*
X3000000Y-6050000D02*
X3000000Y-6150000D01*
X2950000Y-6100000D02*
X3050000Y-6100000D01*
X3250000Y-3950000D02*
X3250000Y-4050000D01*
X3200000Y-4000000D02*
X3300000Y-4000000D01*
X3250000Y-4650000D02*
X3250000Y-4750000D01*
X3200000Y-4700000D02*
X3300000Y-4700000D01*
X3250000Y-5350000D02*
X3250000Y-5450000D01*
X3200000Y-5400000D02*
X3300000Y-5400000D01*
X3250000Y-6050000D02*
X3250000Y-6150000D01*
X3200000Y-6100000D02*
X3300000Y-6100000D01*
D12*
X4892427Y-3192427D02*
X4892427Y-3107573D01*
X4807573Y-3107573D01*
X4807573Y-3192427D01*
X4892427Y-3192427D01*
X5392427Y-3192427D02*
X5392427Y-3107573D01*
X5307573Y-3107573D01*
X5307573Y-3192427D01*
X5392427Y-3192427D01*
D13*
X3033000Y-2889000D02*
X3122000Y-2800000D01*
X3033000Y-2711000D01*
X2944000Y-2800000D01*
X3033000Y-2889000D01*
X3033000Y-3229000D02*
X3122000Y-3140000D01*
X3033000Y-3051000D01*
X2944000Y-3140000D01*
X3033000Y-3229000D01*
X4025000Y-2889000D02*
X4114000Y-2800000D01*
X4025000Y-2711000D01*
X3936000Y-2800000D01*
X4025000Y-2889000D01*
X4025000Y-3229000D02*
X4114000Y-3140000D01*
X4025000Y-3051000D01*
X3936000Y-3140000D01*
X4025000Y-3229000D01*
D14*
X2140000Y-2740000D02*
X2460000Y-3060000D01*
X2460000Y-2740000D02*
X2140000Y-3060000D01*
X2460000Y-2900000D02*
G75*
G03*
X2140000Y-2900000I-160000J0D01*
G01*
X2140000Y-2900000D02*
G75*
G03*
X2460000Y-2900000I160000J0D01*
G01*
X2140000Y-6040000D02*
X2460000Y-6360000D01*
X2460000Y-6040000D02*
X2140000Y-6360000D01*
X2460000Y-6200000D02*
G75*
G03*
X2140000Y-6200000I-160000J0D01*
G01*
X2140000Y-6200000D02*
G75*
G03*
X2460000Y-6200000I160000J0D01*
G01*
X5890000Y-2740000D02*
X6210000Y-3060000D01*
X6210000Y-2740000D02*
X5890000Y-3060000D01*
X6210000Y-2900000D02*
G75*
G03*
X5890000Y-2900000I-160000J0D01*
G01*
X5890000Y-2900000D02*
G75*
G03*
X6210000Y-2900000I160000J0D01*
G01*
X5890000Y-6040000D02*
X6210000Y-6360000D01*
X6210000Y-6040000D02*
X5890000Y-6360000D01*
X6210000Y-6200000D02*
G75*
G03*
X5890000Y-6200000I-160000J0D01*
G01*
X5890000Y-6200000D02*
G75*
G03*
X6210000Y-6200000I160000J0D01*
G01*
D11*
X2155777Y-6916484D02*
X2155777Y-6716484D01*
X2155777Y-6716484D02*
X2203396Y-6716484D01*
X2203396Y-6716484D02*
X2231967Y-6726008D01*
X2231967Y-6726008D02*
X2251015Y-6745055D01*
X2251015Y-6745055D02*
X2260539Y-6764103D01*
X2260539Y-6764103D02*
X2270063Y-6802198D01*
X2270063Y-6802198D02*
X2270063Y-6830769D01*
X2270063Y-6830769D02*
X2260539Y-6868865D01*
X2260539Y-6868865D02*
X2251015Y-6887912D01*
X2251015Y-6887912D02*
X2231967Y-6906960D01*
X2231967Y-6906960D02*
X2203396Y-6916484D01*
X2203396Y-6916484D02*
X2155777Y-6916484D01*
X2355777Y-6916484D02*
X2355777Y-6783150D01*
X2355777Y-6821246D02*
X2365301Y-6802198D01*
X2365301Y-6802198D02*
X2374824Y-6792674D01*
X2374824Y-6792674D02*
X2393872Y-6783150D01*
X2393872Y-6783150D02*
X2412920Y-6783150D01*
X2479586Y-6916484D02*
X2479586Y-6783150D01*
X2479586Y-6716484D02*
X2470063Y-6726008D01*
X2470063Y-6726008D02*
X2479586Y-6735531D01*
X2479586Y-6735531D02*
X2489110Y-6726008D01*
X2489110Y-6726008D02*
X2479586Y-6716484D01*
X2479586Y-6716484D02*
X2479586Y-6735531D01*
X2603396Y-6916484D02*
X2584348Y-6906960D01*
X2584348Y-6906960D02*
X2574824Y-6887912D01*
X2574824Y-6887912D02*
X2574824Y-6716484D01*
X2708158Y-6916484D02*
X2689110Y-6906960D01*
X2689110Y-6906960D02*
X2679586Y-6887912D01*
X2679586Y-6887912D02*
X2679586Y-6716484D01*
X2936729Y-6916484D02*
X2936729Y-6716484D01*
X2936729Y-6716484D02*
X3003396Y-6859341D01*
X3003396Y-6859341D02*
X3070062Y-6716484D01*
X3070062Y-6716484D02*
X3070062Y-6916484D01*
X3251015Y-6916484D02*
X3251015Y-6811722D01*
X3251015Y-6811722D02*
X3241491Y-6792674D01*
X3241491Y-6792674D02*
X3222443Y-6783150D01*
X3222443Y-6783150D02*
X3184348Y-6783150D01*
X3184348Y-6783150D02*
X3165301Y-6792674D01*
X3251015Y-6906960D02*
X3231967Y-6916484D01*
X3231967Y-6916484D02*
X3184348Y-6916484D01*
X3184348Y-6916484D02*
X3165301Y-6906960D01*
X3165301Y-6906960D02*
X3155777Y-6887912D01*
X3155777Y-6887912D02*
X3155777Y-6868865D01*
X3155777Y-6868865D02*
X3165301Y-6849817D01*
X3165301Y-6849817D02*
X3184348Y-6840293D01*
X3184348Y-6840293D02*
X3231967Y-6840293D01*
X3231967Y-6840293D02*
X3251015Y-6830769D01*
X3346253Y-6783150D02*
X3346253Y-6983150D01*
X3346253Y-6792674D02*
X3365301Y-6783150D01*
X3365301Y-6783150D02*
X3403396Y-6783150D01*
X3403396Y-6783150D02*
X3422443Y-6792674D01*
X3422443Y-6792674D02*
X3431967Y-6802198D01*
X3431967Y-6802198D02*
X3441491Y-6821246D01*
X3441491Y-6821246D02*
X3441491Y-6878388D01*
X3441491Y-6878388D02*
X3431967Y-6897436D01*
X3431967Y-6897436D02*
X3422443Y-6906960D01*
X3422443Y-6906960D02*
X3403396Y-6916484D01*
X3403396Y-6916484D02*
X3365301Y-6916484D01*
X3365301Y-6916484D02*
X3346253Y-6906960D01*
X3527205Y-6897436D02*
X3536729Y-6906960D01*
X3536729Y-6906960D02*
X3527205Y-6916484D01*
X3527205Y-6916484D02*
X3517682Y-6906960D01*
X3517682Y-6906960D02*
X3527205Y-6897436D01*
X3527205Y-6897436D02*
X3527205Y-6916484D01*
X3527205Y-6792674D02*
X3536729Y-6802198D01*
X3536729Y-6802198D02*
X3527205Y-6811722D01*
X3527205Y-6811722D02*
X3517682Y-6802198D01*
X3517682Y-6802198D02*
X3527205Y-6792674D01*
X3527205Y-6792674D02*
X3527205Y-6811722D01*
D10*
X1845000Y-7220000D02*
X1895000Y-7270000D01*
X1895000Y-7220000D02*
X1845000Y-7270000D01*
D11*
X2193872Y-7136484D02*
X2212920Y-7136484D01*
X2212920Y-7136484D02*
X2231967Y-7146008D01*
X2231967Y-7146008D02*
X2241491Y-7155531D01*
X2241491Y-7155531D02*
X2251015Y-7174579D01*
X2251015Y-7174579D02*
X2260539Y-7212674D01*
X2260539Y-7212674D02*
X2260539Y-7260293D01*
X2260539Y-7260293D02*
X2251015Y-7298388D01*
X2251015Y-7298388D02*
X2241491Y-7317436D01*
X2241491Y-7317436D02*
X2231967Y-7326960D01*
X2231967Y-7326960D02*
X2212920Y-7336484D01*
X2212920Y-7336484D02*
X2193872Y-7336484D01*
X2193872Y-7336484D02*
X2174824Y-7326960D01*
X2174824Y-7326960D02*
X2165301Y-7317436D01*
X2165301Y-7317436D02*
X2155777Y-7298388D01*
X2155777Y-7298388D02*
X2146253Y-7260293D01*
X2146253Y-7260293D02*
X2146253Y-7212674D01*
X2146253Y-7212674D02*
X2155777Y-7174579D01*
X2155777Y-7174579D02*
X2165301Y-7155531D01*
X2165301Y-7155531D02*
X2174824Y-7146008D01*
X2174824Y-7146008D02*
X2193872Y-7136484D01*
X2346253Y-7317436D02*
X2355777Y-7326960D01*
X2355777Y-7326960D02*
X2346253Y-7336484D01*
X2346253Y-7336484D02*
X2336729Y-7326960D01*
X2336729Y-7326960D02*
X2346253Y-7317436D01*
X2346253Y-7317436D02*
X2346253Y-7336484D01*
X2536729Y-7136484D02*
X2441491Y-7136484D01*
X2441491Y-7136484D02*
X2431967Y-7231722D01*
X2431967Y-7231722D02*
X2441491Y-7222198D01*
X2441491Y-7222198D02*
X2460539Y-7212674D01*
X2460539Y-7212674D02*
X2508158Y-7212674D01*
X2508158Y-7212674D02*
X2527205Y-7222198D01*
X2527205Y-7222198D02*
X2536729Y-7231722D01*
X2536729Y-7231722D02*
X2546253Y-7250769D01*
X2546253Y-7250769D02*
X2546253Y-7298388D01*
X2546253Y-7298388D02*
X2536729Y-7317436D01*
X2536729Y-7317436D02*
X2527205Y-7326960D01*
X2527205Y-7326960D02*
X2508158Y-7336484D01*
X2508158Y-7336484D02*
X2460539Y-7336484D01*
X2460539Y-7336484D02*
X2441491Y-7326960D01*
X2441491Y-7326960D02*
X2431967Y-7317436D01*
X2670063Y-7136484D02*
X2689110Y-7136484D01*
X2689110Y-7136484D02*
X2708158Y-7146008D01*
X2708158Y-7146008D02*
X2717682Y-7155531D01*
X2717682Y-7155531D02*
X2727205Y-7174579D01*
X2727205Y-7174579D02*
X2736729Y-7212674D01*
X2736729Y-7212674D02*
X2736729Y-7260293D01*
X2736729Y-7260293D02*
X2727205Y-7298388D01*
X2727205Y-7298388D02*
X2717682Y-7317436D01*
X2717682Y-7317436D02*
X2708158Y-7326960D01*
X2708158Y-7326960D02*
X2689110Y-7336484D01*
X2689110Y-7336484D02*
X2670063Y-7336484D01*
X2670063Y-7336484D02*
X2651015Y-7326960D01*
X2651015Y-7326960D02*
X2641491Y-7317436D01*
X2641491Y-7317436D02*
X2631967Y-7298388D01*
X2631967Y-7298388D02*
X2622444Y-7260293D01*
X2622444Y-7260293D02*
X2622444Y-7212674D01*
X2622444Y-7212674D02*
X2631967Y-7174579D01*
X2631967Y-7174579D02*
X2641491Y-7155531D01*
X2641491Y-7155531D02*
X2651015Y-7146008D01*
X2651015Y-7146008D02*
X2670063Y-7136484D01*
X2860539Y-7136484D02*
X2879586Y-7136484D01*
X2879586Y-7136484D02*
X2898634Y-7146008D01*
X2898634Y-7146008D02*
X2908158Y-7155531D01*
X2908158Y-7155531D02*
X2917682Y-7174579D01*
X2917682Y-7174579D02*
X2927205Y-7212674D01*
X2927205Y-7212674D02*
X2927205Y-7260293D01*
X2927205Y-7260293D02*
X2917682Y-7298388D01*
X2917682Y-7298388D02*
X2908158Y-7317436D01*
X2908158Y-7317436D02*
X2898634Y-7326960D01*
X2898634Y-7326960D02*
X2879586Y-7336484D01*
X2879586Y-7336484D02*
X2860539Y-7336484D01*
X2860539Y-7336484D02*
X2841491Y-7326960D01*
X2841491Y-7326960D02*
X2831967Y-7317436D01*
X2831967Y-7317436D02*
X2822443Y-7298388D01*
X2822443Y-7298388D02*
X2812920Y-7260293D01*
X2812920Y-7260293D02*
X2812920Y-7212674D01*
X2812920Y-7212674D02*
X2822443Y-7174579D01*
X2822443Y-7174579D02*
X2831967Y-7155531D01*
X2831967Y-7155531D02*
X2841491Y-7146008D01*
X2841491Y-7146008D02*
X2860539Y-7136484D01*
X3012920Y-7336484D02*
X3012920Y-7203150D01*
X3012920Y-7222198D02*
X3022443Y-7212674D01*
X3022443Y-7212674D02*
X3041491Y-7203150D01*
X3041491Y-7203150D02*
X3070063Y-7203150D01*
X3070063Y-7203150D02*
X3089110Y-7212674D01*
X3089110Y-7212674D02*
X3098634Y-7231722D01*
X3098634Y-7231722D02*
X3098634Y-7336484D01*
X3098634Y-7231722D02*
X3108158Y-7212674D01*
X3108158Y-7212674D02*
X3127205Y-7203150D01*
X3127205Y-7203150D02*
X3155777Y-7203150D01*
X3155777Y-7203150D02*
X3174824Y-7212674D01*
X3174824Y-7212674D02*
X3184348Y-7231722D01*
X3184348Y-7231722D02*
X3184348Y-7336484D01*
X3279586Y-7336484D02*
X3279586Y-7203150D01*
X3279586Y-7222198D02*
X3289110Y-7212674D01*
X3289110Y-7212674D02*
X3308158Y-7203150D01*
X3308158Y-7203150D02*
X3336729Y-7203150D01*
X3336729Y-7203150D02*
X3355777Y-7212674D01*
X3355777Y-7212674D02*
X3365301Y-7231722D01*
X3365301Y-7231722D02*
X3365301Y-7336484D01*
X3365301Y-7231722D02*
X3374824Y-7212674D01*
X3374824Y-7212674D02*
X3393872Y-7203150D01*
X3393872Y-7203150D02*
X3422443Y-7203150D01*
X3422443Y-7203150D02*
X3441491Y-7212674D01*
X3441491Y-7212674D02*
X3451015Y-7231722D01*
X3451015Y-7231722D02*
X3451015Y-7336484D01*
X3841491Y-7126960D02*
X3670063Y-7384103D01*
X4098634Y-7136484D02*
X4117682Y-7136484D01*
X4117682Y-7136484D02*
X4136729Y-7146008D01*
X4136729Y-7146008D02*
X4146253Y-7155531D01*
X4146253Y-7155531D02*
X4155777Y-7174579D01*
X4155777Y-7174579D02*
X4165301Y-7212674D01*
X4165301Y-7212674D02*
X4165301Y-7260293D01*
X4165301Y-7260293D02*
X4155777Y-7298388D01*
X4155777Y-7298388D02*
X4146253Y-7317436D01*
X4146253Y-7317436D02*
X4136729Y-7326960D01*
X4136729Y-7326960D02*
X4117682Y-7336484D01*
X4117682Y-7336484D02*
X4098634Y-7336484D01*
X4098634Y-7336484D02*
X4079586Y-7326960D01*
X4079586Y-7326960D02*
X4070063Y-7317436D01*
X4070063Y-7317436D02*
X4060539Y-7298388D01*
X4060539Y-7298388D02*
X4051015Y-7260293D01*
X4051015Y-7260293D02*
X4051015Y-7212674D01*
X4051015Y-7212674D02*
X4060539Y-7174579D01*
X4060539Y-7174579D02*
X4070063Y-7155531D01*
X4070063Y-7155531D02*
X4079586Y-7146008D01*
X4079586Y-7146008D02*
X4098634Y-7136484D01*
X4251015Y-7317436D02*
X4260539Y-7326960D01*
X4260539Y-7326960D02*
X4251015Y-7336484D01*
X4251015Y-7336484D02*
X4241491Y-7326960D01*
X4241491Y-7326960D02*
X4251015Y-7317436D01*
X4251015Y-7317436D02*
X4251015Y-7336484D01*
X4384348Y-7136484D02*
X4403396Y-7136484D01*
X4403396Y-7136484D02*
X4422444Y-7146008D01*
X4422444Y-7146008D02*
X4431968Y-7155531D01*
X4431968Y-7155531D02*
X4441491Y-7174579D01*
X4441491Y-7174579D02*
X4451015Y-7212674D01*
X4451015Y-7212674D02*
X4451015Y-7260293D01*
X4451015Y-7260293D02*
X4441491Y-7298388D01*
X4441491Y-7298388D02*
X4431968Y-7317436D01*
X4431968Y-7317436D02*
X4422444Y-7326960D01*
X4422444Y-7326960D02*
X4403396Y-7336484D01*
X4403396Y-7336484D02*
X4384348Y-7336484D01*
X4384348Y-7336484D02*
X4365301Y-7326960D01*
X4365301Y-7326960D02*
X4355777Y-7317436D01*
X4355777Y-7317436D02*
X4346253Y-7298388D01*
X4346253Y-7298388D02*
X4336729Y-7260293D01*
X4336729Y-7260293D02*
X4336729Y-7212674D01*
X4336729Y-7212674D02*
X4346253Y-7174579D01*
X4346253Y-7174579D02*
X4355777Y-7155531D01*
X4355777Y-7155531D02*
X4365301Y-7146008D01*
X4365301Y-7146008D02*
X4384348Y-7136484D01*
X4641491Y-7336484D02*
X4527206Y-7336484D01*
X4584348Y-7336484D02*
X4584348Y-7136484D01*
X4584348Y-7136484D02*
X4565301Y-7165055D01*
X4565301Y-7165055D02*
X4546253Y-7184103D01*
X4546253Y-7184103D02*
X4527206Y-7193627D01*
X4736729Y-7336484D02*
X4774825Y-7336484D01*
X4774825Y-7336484D02*
X4793872Y-7326960D01*
X4793872Y-7326960D02*
X4803396Y-7317436D01*
X4803396Y-7317436D02*
X4822444Y-7288865D01*
X4822444Y-7288865D02*
X4831968Y-7250769D01*
X4831968Y-7250769D02*
X4831968Y-7174579D01*
X4831968Y-7174579D02*
X4822444Y-7155531D01*
X4822444Y-7155531D02*
X4812920Y-7146008D01*
X4812920Y-7146008D02*
X4793872Y-7136484D01*
X4793872Y-7136484D02*
X4755777Y-7136484D01*
X4755777Y-7136484D02*
X4736729Y-7146008D01*
X4736729Y-7146008D02*
X4727206Y-7155531D01*
X4727206Y-7155531D02*
X4717682Y-7174579D01*
X4717682Y-7174579D02*
X4717682Y-7222198D01*
X4717682Y-7222198D02*
X4727206Y-7241246D01*
X4727206Y-7241246D02*
X4736729Y-7250769D01*
X4736729Y-7250769D02*
X4755777Y-7260293D01*
X4755777Y-7260293D02*
X4793872Y-7260293D01*
X4793872Y-7260293D02*
X4812920Y-7250769D01*
X4812920Y-7250769D02*
X4822444Y-7241246D01*
X4822444Y-7241246D02*
X4831968Y-7222198D01*
X4898634Y-7136484D02*
X5031968Y-7136484D01*
X5031968Y-7136484D02*
X4946253Y-7336484D01*
X5098634Y-7136484D02*
X5098634Y-7174579D01*
X5174825Y-7136484D02*
X5174825Y-7174579D01*
X5470063Y-7412674D02*
X5460539Y-7403150D01*
X5460539Y-7403150D02*
X5441491Y-7374579D01*
X5441491Y-7374579D02*
X5431968Y-7355531D01*
X5431968Y-7355531D02*
X5422444Y-7326960D01*
X5422444Y-7326960D02*
X5412920Y-7279341D01*
X5412920Y-7279341D02*
X5412920Y-7241246D01*
X5412920Y-7241246D02*
X5422444Y-7193627D01*
X5422444Y-7193627D02*
X5431968Y-7165055D01*
X5431968Y-7165055D02*
X5441491Y-7146008D01*
X5441491Y-7146008D02*
X5460539Y-7117436D01*
X5460539Y-7117436D02*
X5470063Y-7107912D01*
X5527206Y-7136484D02*
X5651015Y-7136484D01*
X5651015Y-7136484D02*
X5584349Y-7212674D01*
X5584349Y-7212674D02*
X5612920Y-7212674D01*
X5612920Y-7212674D02*
X5631968Y-7222198D01*
X5631968Y-7222198D02*
X5641491Y-7231722D01*
X5641491Y-7231722D02*
X5651015Y-7250769D01*
X5651015Y-7250769D02*
X5651015Y-7298388D01*
X5651015Y-7298388D02*
X5641491Y-7317436D01*
X5641491Y-7317436D02*
X5631968Y-7326960D01*
X5631968Y-7326960D02*
X5612920Y-7336484D01*
X5612920Y-7336484D02*
X5555777Y-7336484D01*
X5555777Y-7336484D02*
X5536730Y-7326960D01*
X5536730Y-7326960D02*
X5527206Y-7317436D01*
X5727206Y-7155531D02*
X5736729Y-7146008D01*
X5736729Y-7146008D02*
X5755777Y-7136484D01*
X5755777Y-7136484D02*
X5803396Y-7136484D01*
X5803396Y-7136484D02*
X5822444Y-7146008D01*
X5822444Y-7146008D02*
X5831968Y-7155531D01*
X5831968Y-7155531D02*
X5841491Y-7174579D01*
X5841491Y-7174579D02*
X5841491Y-7193627D01*
X5841491Y-7193627D02*
X5831968Y-7222198D01*
X5831968Y-7222198D02*
X5717682Y-7336484D01*
X5717682Y-7336484D02*
X5841491Y-7336484D01*
X6079587Y-7336484D02*
X6079587Y-7136484D01*
X6165301Y-7336484D02*
X6165301Y-7231722D01*
X6165301Y-7231722D02*
X6155777Y-7212674D01*
X6155777Y-7212674D02*
X6136730Y-7203150D01*
X6136730Y-7203150D02*
X6108158Y-7203150D01*
X6108158Y-7203150D02*
X6089110Y-7212674D01*
X6089110Y-7212674D02*
X6079587Y-7222198D01*
X6289110Y-7336484D02*
X6270063Y-7326960D01*
X6270063Y-7326960D02*
X6260539Y-7317436D01*
X6260539Y-7317436D02*
X6251015Y-7298388D01*
X6251015Y-7298388D02*
X6251015Y-7241246D01*
X6251015Y-7241246D02*
X6260539Y-7222198D01*
X6260539Y-7222198D02*
X6270063Y-7212674D01*
X6270063Y-7212674D02*
X6289110Y-7203150D01*
X6289110Y-7203150D02*
X6317682Y-7203150D01*
X6317682Y-7203150D02*
X6336730Y-7212674D01*
X6336730Y-7212674D02*
X6346253Y-7222198D01*
X6346253Y-7222198D02*
X6355777Y-7241246D01*
X6355777Y-7241246D02*
X6355777Y-7298388D01*
X6355777Y-7298388D02*
X6346253Y-7317436D01*
X6346253Y-7317436D02*
X6336730Y-7326960D01*
X6336730Y-7326960D02*
X6317682Y-7336484D01*
X6317682Y-7336484D02*
X6289110Y-7336484D01*
X6470063Y-7336484D02*
X6451015Y-7326960D01*
X6451015Y-7326960D02*
X6441491Y-7307912D01*
X6441491Y-7307912D02*
X6441491Y-7136484D01*
X6622444Y-7326960D02*
X6603396Y-7336484D01*
X6603396Y-7336484D02*
X6565301Y-7336484D01*
X6565301Y-7336484D02*
X6546253Y-7326960D01*
X6546253Y-7326960D02*
X6536730Y-7307912D01*
X6536730Y-7307912D02*
X6536730Y-7231722D01*
X6536730Y-7231722D02*
X6546253Y-7212674D01*
X6546253Y-7212674D02*
X6565301Y-7203150D01*
X6565301Y-7203150D02*
X6603396Y-7203150D01*
X6603396Y-7203150D02*
X6622444Y-7212674D01*
X6622444Y-7212674D02*
X6631968Y-7231722D01*
X6631968Y-7231722D02*
X6631968Y-7250769D01*
X6631968Y-7250769D02*
X6536730Y-7269817D01*
X6708158Y-7326960D02*
X6727206Y-7336484D01*
X6727206Y-7336484D02*
X6765301Y-7336484D01*
X6765301Y-7336484D02*
X6784349Y-7326960D01*
X6784349Y-7326960D02*
X6793872Y-7307912D01*
X6793872Y-7307912D02*
X6793872Y-7298388D01*
X6793872Y-7298388D02*
X6784349Y-7279341D01*
X6784349Y-7279341D02*
X6765301Y-7269817D01*
X6765301Y-7269817D02*
X6736730Y-7269817D01*
X6736730Y-7269817D02*
X6717682Y-7260293D01*
X6717682Y-7260293D02*
X6708158Y-7241246D01*
X6708158Y-7241246D02*
X6708158Y-7231722D01*
X6708158Y-7231722D02*
X6717682Y-7212674D01*
X6717682Y-7212674D02*
X6736730Y-7203150D01*
X6736730Y-7203150D02*
X6765301Y-7203150D01*
X6765301Y-7203150D02*
X6784349Y-7212674D01*
X6860539Y-7412674D02*
X6870063Y-7403150D01*
X6870063Y-7403150D02*
X6889111Y-7374579D01*
X6889111Y-7374579D02*
X6898634Y-7355531D01*
X6898634Y-7355531D02*
X6908158Y-7326960D01*
X6908158Y-7326960D02*
X6917682Y-7279341D01*
X6917682Y-7279341D02*
X6917682Y-7241246D01*
X6917682Y-7241246D02*
X6908158Y-7193627D01*
X6908158Y-7193627D02*
X6898634Y-7165055D01*
X6898634Y-7165055D02*
X6889111Y-7146008D01*
X6889111Y-7146008D02*
X6870063Y-7117436D01*
X6870063Y-7117436D02*
X6860539Y-7107912D01*
D10*
X1895000Y-7509000D02*
G75*
G03*
X1800000Y-7509000I-47500J0D01*
G01*
X1800000Y-7509000D02*
G75*
G03*
X1895000Y-7509000I47500J0D01*
G01*
D11*
X2193872Y-7400484D02*
X2212920Y-7400484D01*
X2212920Y-7400484D02*
X2231967Y-7410008D01*
X2231967Y-7410008D02*
X2241491Y-7419531D01*
X2241491Y-7419531D02*
X2251015Y-7438579D01*
X2251015Y-7438579D02*
X2260539Y-7476674D01*
X2260539Y-7476674D02*
X2260539Y-7524293D01*
X2260539Y-7524293D02*
X2251015Y-7562388D01*
X2251015Y-7562388D02*
X2241491Y-7581436D01*
X2241491Y-7581436D02*
X2231967Y-7590960D01*
X2231967Y-7590960D02*
X2212920Y-7600484D01*
X2212920Y-7600484D02*
X2193872Y-7600484D01*
X2193872Y-7600484D02*
X2174824Y-7590960D01*
X2174824Y-7590960D02*
X2165301Y-7581436D01*
X2165301Y-7581436D02*
X2155777Y-7562388D01*
X2155777Y-7562388D02*
X2146253Y-7524293D01*
X2146253Y-7524293D02*
X2146253Y-7476674D01*
X2146253Y-7476674D02*
X2155777Y-7438579D01*
X2155777Y-7438579D02*
X2165301Y-7419531D01*
X2165301Y-7419531D02*
X2174824Y-7410008D01*
X2174824Y-7410008D02*
X2193872Y-7400484D01*
X2346253Y-7581436D02*
X2355777Y-7590960D01*
X2355777Y-7590960D02*
X2346253Y-7600484D01*
X2346253Y-7600484D02*
X2336729Y-7590960D01*
X2336729Y-7590960D02*
X2346253Y-7581436D01*
X2346253Y-7581436D02*
X2346253Y-7600484D01*
X2451015Y-7600484D02*
X2489110Y-7600484D01*
X2489110Y-7600484D02*
X2508158Y-7590960D01*
X2508158Y-7590960D02*
X2517682Y-7581436D01*
X2517682Y-7581436D02*
X2536729Y-7552865D01*
X2536729Y-7552865D02*
X2546253Y-7514769D01*
X2546253Y-7514769D02*
X2546253Y-7438579D01*
X2546253Y-7438579D02*
X2536729Y-7419531D01*
X2536729Y-7419531D02*
X2527205Y-7410008D01*
X2527205Y-7410008D02*
X2508158Y-7400484D01*
X2508158Y-7400484D02*
X2470063Y-7400484D01*
X2470063Y-7400484D02*
X2451015Y-7410008D01*
X2451015Y-7410008D02*
X2441491Y-7419531D01*
X2441491Y-7419531D02*
X2431967Y-7438579D01*
X2431967Y-7438579D02*
X2431967Y-7486198D01*
X2431967Y-7486198D02*
X2441491Y-7505246D01*
X2441491Y-7505246D02*
X2451015Y-7514769D01*
X2451015Y-7514769D02*
X2470063Y-7524293D01*
X2470063Y-7524293D02*
X2508158Y-7524293D01*
X2508158Y-7524293D02*
X2527205Y-7514769D01*
X2527205Y-7514769D02*
X2536729Y-7505246D01*
X2536729Y-7505246D02*
X2546253Y-7486198D01*
X2727205Y-7400484D02*
X2631967Y-7400484D01*
X2631967Y-7400484D02*
X2622444Y-7495722D01*
X2622444Y-7495722D02*
X2631967Y-7486198D01*
X2631967Y-7486198D02*
X2651015Y-7476674D01*
X2651015Y-7476674D02*
X2698634Y-7476674D01*
X2698634Y-7476674D02*
X2717682Y-7486198D01*
X2717682Y-7486198D02*
X2727205Y-7495722D01*
X2727205Y-7495722D02*
X2736729Y-7514769D01*
X2736729Y-7514769D02*
X2736729Y-7562388D01*
X2736729Y-7562388D02*
X2727205Y-7581436D01*
X2727205Y-7581436D02*
X2717682Y-7590960D01*
X2717682Y-7590960D02*
X2698634Y-7600484D01*
X2698634Y-7600484D02*
X2651015Y-7600484D01*
X2651015Y-7600484D02*
X2631967Y-7590960D01*
X2631967Y-7590960D02*
X2622444Y-7581436D01*
X2860539Y-7400484D02*
X2879586Y-7400484D01*
X2879586Y-7400484D02*
X2898634Y-7410008D01*
X2898634Y-7410008D02*
X2908158Y-7419531D01*
X2908158Y-7419531D02*
X2917682Y-7438579D01*
X2917682Y-7438579D02*
X2927205Y-7476674D01*
X2927205Y-7476674D02*
X2927205Y-7524293D01*
X2927205Y-7524293D02*
X2917682Y-7562388D01*
X2917682Y-7562388D02*
X2908158Y-7581436D01*
X2908158Y-7581436D02*
X2898634Y-7590960D01*
X2898634Y-7590960D02*
X2879586Y-7600484D01*
X2879586Y-7600484D02*
X2860539Y-7600484D01*
X2860539Y-7600484D02*
X2841491Y-7590960D01*
X2841491Y-7590960D02*
X2831967Y-7581436D01*
X2831967Y-7581436D02*
X2822443Y-7562388D01*
X2822443Y-7562388D02*
X2812920Y-7524293D01*
X2812920Y-7524293D02*
X2812920Y-7476674D01*
X2812920Y-7476674D02*
X2822443Y-7438579D01*
X2822443Y-7438579D02*
X2831967Y-7419531D01*
X2831967Y-7419531D02*
X2841491Y-7410008D01*
X2841491Y-7410008D02*
X2860539Y-7400484D01*
X3012920Y-7600484D02*
X3012920Y-7467150D01*
X3012920Y-7486198D02*
X3022443Y-7476674D01*
X3022443Y-7476674D02*
X3041491Y-7467150D01*
X3041491Y-7467150D02*
X3070063Y-7467150D01*
X3070063Y-7467150D02*
X3089110Y-7476674D01*
X3089110Y-7476674D02*
X3098634Y-7495722D01*
X3098634Y-7495722D02*
X3098634Y-7600484D01*
X3098634Y-7495722D02*
X3108158Y-7476674D01*
X3108158Y-7476674D02*
X3127205Y-7467150D01*
X3127205Y-7467150D02*
X3155777Y-7467150D01*
X3155777Y-7467150D02*
X3174824Y-7476674D01*
X3174824Y-7476674D02*
X3184348Y-7495722D01*
X3184348Y-7495722D02*
X3184348Y-7600484D01*
X3279586Y-7600484D02*
X3279586Y-7467150D01*
X3279586Y-7486198D02*
X3289110Y-7476674D01*
X3289110Y-7476674D02*
X3308158Y-7467150D01*
X3308158Y-7467150D02*
X3336729Y-7467150D01*
X3336729Y-7467150D02*
X3355777Y-7476674D01*
X3355777Y-7476674D02*
X3365301Y-7495722D01*
X3365301Y-7495722D02*
X3365301Y-7600484D01*
X3365301Y-7495722D02*
X3374824Y-7476674D01*
X3374824Y-7476674D02*
X3393872Y-7467150D01*
X3393872Y-7467150D02*
X3422443Y-7467150D01*
X3422443Y-7467150D02*
X3441491Y-7476674D01*
X3441491Y-7476674D02*
X3451015Y-7495722D01*
X3451015Y-7495722D02*
X3451015Y-7600484D01*
X3841491Y-7390960D02*
X3670063Y-7648103D01*
X4098634Y-7400484D02*
X4117682Y-7400484D01*
X4117682Y-7400484D02*
X4136729Y-7410008D01*
X4136729Y-7410008D02*
X4146253Y-7419531D01*
X4146253Y-7419531D02*
X4155777Y-7438579D01*
X4155777Y-7438579D02*
X4165301Y-7476674D01*
X4165301Y-7476674D02*
X4165301Y-7524293D01*
X4165301Y-7524293D02*
X4155777Y-7562388D01*
X4155777Y-7562388D02*
X4146253Y-7581436D01*
X4146253Y-7581436D02*
X4136729Y-7590960D01*
X4136729Y-7590960D02*
X4117682Y-7600484D01*
X4117682Y-7600484D02*
X4098634Y-7600484D01*
X4098634Y-7600484D02*
X4079586Y-7590960D01*
X4079586Y-7590960D02*
X4070063Y-7581436D01*
X4070063Y-7581436D02*
X4060539Y-7562388D01*
X4060539Y-7562388D02*
X4051015Y-7524293D01*
X4051015Y-7524293D02*
X4051015Y-7476674D01*
X4051015Y-7476674D02*
X4060539Y-7438579D01*
X4060539Y-7438579D02*
X4070063Y-7419531D01*
X4070063Y-7419531D02*
X4079586Y-7410008D01*
X4079586Y-7410008D02*
X4098634Y-7400484D01*
X4251015Y-7581436D02*
X4260539Y-7590960D01*
X4260539Y-7590960D02*
X4251015Y-7600484D01*
X4251015Y-7600484D02*
X4241491Y-7590960D01*
X4241491Y-7590960D02*
X4251015Y-7581436D01*
X4251015Y-7581436D02*
X4251015Y-7600484D01*
X4384348Y-7400484D02*
X4403396Y-7400484D01*
X4403396Y-7400484D02*
X4422444Y-7410008D01*
X4422444Y-7410008D02*
X4431968Y-7419531D01*
X4431968Y-7419531D02*
X4441491Y-7438579D01*
X4441491Y-7438579D02*
X4451015Y-7476674D01*
X4451015Y-7476674D02*
X4451015Y-7524293D01*
X4451015Y-7524293D02*
X4441491Y-7562388D01*
X4441491Y-7562388D02*
X4431968Y-7581436D01*
X4431968Y-7581436D02*
X4422444Y-7590960D01*
X4422444Y-7590960D02*
X4403396Y-7600484D01*
X4403396Y-7600484D02*
X4384348Y-7600484D01*
X4384348Y-7600484D02*
X4365301Y-7590960D01*
X4365301Y-7590960D02*
X4355777Y-7581436D01*
X4355777Y-7581436D02*
X4346253Y-7562388D01*
X4346253Y-7562388D02*
X4336729Y-7524293D01*
X4336729Y-7524293D02*
X4336729Y-7476674D01*
X4336729Y-7476674D02*
X4346253Y-7438579D01*
X4346253Y-7438579D02*
X4355777Y-7419531D01*
X4355777Y-7419531D02*
X4365301Y-7410008D01*
X4365301Y-7410008D02*
X4384348Y-7400484D01*
X4517682Y-7400484D02*
X4641491Y-7400484D01*
X4641491Y-7400484D02*
X4574825Y-7476674D01*
X4574825Y-7476674D02*
X4603396Y-7476674D01*
X4603396Y-7476674D02*
X4622444Y-7486198D01*
X4622444Y-7486198D02*
X4631968Y-7495722D01*
X4631968Y-7495722D02*
X4641491Y-7514769D01*
X4641491Y-7514769D02*
X4641491Y-7562388D01*
X4641491Y-7562388D02*
X4631968Y-7581436D01*
X4631968Y-7581436D02*
X4622444Y-7590960D01*
X4622444Y-7590960D02*
X4603396Y-7600484D01*
X4603396Y-7600484D02*
X4546253Y-7600484D01*
X4546253Y-7600484D02*
X4527206Y-7590960D01*
X4527206Y-7590960D02*
X4517682Y-7581436D01*
X4708158Y-7400484D02*
X4841491Y-7400484D01*
X4841491Y-7400484D02*
X4755777Y-7600484D01*
X5003396Y-7467150D02*
X5003396Y-7600484D01*
X4955777Y-7390960D02*
X4908158Y-7533817D01*
X4908158Y-7533817D02*
X5031968Y-7533817D01*
X5098634Y-7400484D02*
X5098634Y-7438579D01*
X5174825Y-7400484D02*
X5174825Y-7438579D01*
X5470063Y-7676674D02*
X5460539Y-7667150D01*
X5460539Y-7667150D02*
X5441491Y-7638579D01*
X5441491Y-7638579D02*
X5431968Y-7619531D01*
X5431968Y-7619531D02*
X5422444Y-7590960D01*
X5422444Y-7590960D02*
X5412920Y-7543341D01*
X5412920Y-7543341D02*
X5412920Y-7505246D01*
X5412920Y-7505246D02*
X5422444Y-7457627D01*
X5422444Y-7457627D02*
X5431968Y-7429055D01*
X5431968Y-7429055D02*
X5441491Y-7410008D01*
X5441491Y-7410008D02*
X5460539Y-7381436D01*
X5460539Y-7381436D02*
X5470063Y-7371912D01*
X5651015Y-7600484D02*
X5536730Y-7600484D01*
X5593872Y-7600484D02*
X5593872Y-7400484D01*
X5593872Y-7400484D02*
X5574825Y-7429055D01*
X5574825Y-7429055D02*
X5555777Y-7448103D01*
X5555777Y-7448103D02*
X5536730Y-7457627D01*
X5727206Y-7419531D02*
X5736729Y-7410008D01*
X5736729Y-7410008D02*
X5755777Y-7400484D01*
X5755777Y-7400484D02*
X5803396Y-7400484D01*
X5803396Y-7400484D02*
X5822444Y-7410008D01*
X5822444Y-7410008D02*
X5831968Y-7419531D01*
X5831968Y-7419531D02*
X5841491Y-7438579D01*
X5841491Y-7438579D02*
X5841491Y-7457627D01*
X5841491Y-7457627D02*
X5831968Y-7486198D01*
X5831968Y-7486198D02*
X5717682Y-7600484D01*
X5717682Y-7600484D02*
X5841491Y-7600484D01*
X6079587Y-7600484D02*
X6079587Y-7400484D01*
X6165301Y-7600484D02*
X6165301Y-7495722D01*
X6165301Y-7495722D02*
X6155777Y-7476674D01*
X6155777Y-7476674D02*
X6136730Y-7467150D01*
X6136730Y-7467150D02*
X6108158Y-7467150D01*
X6108158Y-7467150D02*
X6089110Y-7476674D01*
X6089110Y-7476674D02*
X6079587Y-7486198D01*
X6289110Y-7600484D02*
X6270063Y-7590960D01*
X6270063Y-7590960D02*
X6260539Y-7581436D01*
X6260539Y-7581436D02*
X6251015Y-7562388D01*
X6251015Y-7562388D02*
X6251015Y-7505246D01*
X6251015Y-7505246D02*
X6260539Y-7486198D01*
X6260539Y-7486198D02*
X6270063Y-7476674D01*
X6270063Y-7476674D02*
X6289110Y-7467150D01*
X6289110Y-7467150D02*
X6317682Y-7467150D01*
X6317682Y-7467150D02*
X6336730Y-7476674D01*
X6336730Y-7476674D02*
X6346253Y-7486198D01*
X6346253Y-7486198D02*
X6355777Y-7505246D01*
X6355777Y-7505246D02*
X6355777Y-7562388D01*
X6355777Y-7562388D02*
X6346253Y-7581436D01*
X6346253Y-7581436D02*
X6336730Y-7590960D01*
X6336730Y-7590960D02*
X6317682Y-7600484D01*
X6317682Y-7600484D02*
X6289110Y-7600484D01*
X6470063Y-7600484D02*
X6451015Y-7590960D01*
X6451015Y-7590960D02*
X6441491Y-7571912D01*
X6441491Y-7571912D02*
X6441491Y-7400484D01*
X6622444Y-7590960D02*
X6603396Y-7600484D01*
X6603396Y-7600484D02*
X6565301Y-7600484D01*
X6565301Y-7600484D02*
X6546253Y-7590960D01*
X6546253Y-7590960D02*
X6536730Y-7571912D01*
X6536730Y-7571912D02*
X6536730Y-7495722D01*
X6536730Y-7495722D02*
X6546253Y-7476674D01*
X6546253Y-7476674D02*
X6565301Y-7467150D01*
X6565301Y-7467150D02*
X6603396Y-7467150D01*
X6603396Y-7467150D02*
X6622444Y-7476674D01*
X6622444Y-7476674D02*
X6631968Y-7495722D01*
X6631968Y-7495722D02*
X6631968Y-7514769D01*
X6631968Y-7514769D02*
X6536730Y-7533817D01*
X6708158Y-7590960D02*
X6727206Y-7600484D01*
X6727206Y-7600484D02*
X6765301Y-7600484D01*
X6765301Y-7600484D02*
X6784349Y-7590960D01*
X6784349Y-7590960D02*
X6793872Y-7571912D01*
X6793872Y-7571912D02*
X6793872Y-7562388D01*
X6793872Y-7562388D02*
X6784349Y-7543341D01*
X6784349Y-7543341D02*
X6765301Y-7533817D01*
X6765301Y-7533817D02*
X6736730Y-7533817D01*
X6736730Y-7533817D02*
X6717682Y-7524293D01*
X6717682Y-7524293D02*
X6708158Y-7505246D01*
X6708158Y-7505246D02*
X6708158Y-7495722D01*
X6708158Y-7495722D02*
X6717682Y-7476674D01*
X6717682Y-7476674D02*
X6736730Y-7467150D01*
X6736730Y-7467150D02*
X6765301Y-7467150D01*
X6765301Y-7467150D02*
X6784349Y-7476674D01*
X6860539Y-7676674D02*
X6870063Y-7667150D01*
X6870063Y-7667150D02*
X6889111Y-7638579D01*
X6889111Y-7638579D02*
X6898634Y-7619531D01*
X6898634Y-7619531D02*
X6908158Y-7590960D01*
X6908158Y-7590960D02*
X6917682Y-7543341D01*
X6917682Y-7543341D02*
X6917682Y-7505246D01*
X6917682Y-7505246D02*
X6908158Y-7457627D01*
X6908158Y-7457627D02*
X6898634Y-7429055D01*
X6898634Y-7429055D02*
X6889111Y-7410008D01*
X6889111Y-7410008D02*
X6870063Y-7381436D01*
X6870063Y-7381436D02*
X6860539Y-7371912D01*
D10*
X1845000Y-7723000D02*
X1845000Y-7823000D01*
X1795000Y-7773000D02*
X1895000Y-7773000D01*
D11*
X2260539Y-7864484D02*
X2146253Y-7864484D01*
X2203396Y-7864484D02*
X2203396Y-7664484D01*
X2203396Y-7664484D02*
X2184348Y-7693055D01*
X2184348Y-7693055D02*
X2165301Y-7712103D01*
X2165301Y-7712103D02*
X2146253Y-7721627D01*
X2346253Y-7845436D02*
X2355777Y-7854960D01*
X2355777Y-7854960D02*
X2346253Y-7864484D01*
X2346253Y-7864484D02*
X2336729Y-7854960D01*
X2336729Y-7854960D02*
X2346253Y-7845436D01*
X2346253Y-7845436D02*
X2346253Y-7864484D01*
X2479586Y-7664484D02*
X2498634Y-7664484D01*
X2498634Y-7664484D02*
X2517682Y-7674008D01*
X2517682Y-7674008D02*
X2527205Y-7683531D01*
X2527205Y-7683531D02*
X2536729Y-7702579D01*
X2536729Y-7702579D02*
X2546253Y-7740674D01*
X2546253Y-7740674D02*
X2546253Y-7788293D01*
X2546253Y-7788293D02*
X2536729Y-7826388D01*
X2536729Y-7826388D02*
X2527205Y-7845436D01*
X2527205Y-7845436D02*
X2517682Y-7854960D01*
X2517682Y-7854960D02*
X2498634Y-7864484D01*
X2498634Y-7864484D02*
X2479586Y-7864484D01*
X2479586Y-7864484D02*
X2460539Y-7854960D01*
X2460539Y-7854960D02*
X2451015Y-7845436D01*
X2451015Y-7845436D02*
X2441491Y-7826388D01*
X2441491Y-7826388D02*
X2431967Y-7788293D01*
X2431967Y-7788293D02*
X2431967Y-7740674D01*
X2431967Y-7740674D02*
X2441491Y-7702579D01*
X2441491Y-7702579D02*
X2451015Y-7683531D01*
X2451015Y-7683531D02*
X2460539Y-7674008D01*
X2460539Y-7674008D02*
X2479586Y-7664484D01*
X2670063Y-7664484D02*
X2689110Y-7664484D01*
X2689110Y-7664484D02*
X2708158Y-7674008D01*
X2708158Y-7674008D02*
X2717682Y-7683531D01*
X2717682Y-7683531D02*
X2727205Y-7702579D01*
X2727205Y-7702579D02*
X2736729Y-7740674D01*
X2736729Y-7740674D02*
X2736729Y-7788293D01*
X2736729Y-7788293D02*
X2727205Y-7826388D01*
X2727205Y-7826388D02*
X2717682Y-7845436D01*
X2717682Y-7845436D02*
X2708158Y-7854960D01*
X2708158Y-7854960D02*
X2689110Y-7864484D01*
X2689110Y-7864484D02*
X2670063Y-7864484D01*
X2670063Y-7864484D02*
X2651015Y-7854960D01*
X2651015Y-7854960D02*
X2641491Y-7845436D01*
X2641491Y-7845436D02*
X2631967Y-7826388D01*
X2631967Y-7826388D02*
X2622444Y-7788293D01*
X2622444Y-7788293D02*
X2622444Y-7740674D01*
X2622444Y-7740674D02*
X2631967Y-7702579D01*
X2631967Y-7702579D02*
X2641491Y-7683531D01*
X2641491Y-7683531D02*
X2651015Y-7674008D01*
X2651015Y-7674008D02*
X2670063Y-7664484D01*
X2860539Y-7664484D02*
X2879586Y-7664484D01*
X2879586Y-7664484D02*
X2898634Y-7674008D01*
X2898634Y-7674008D02*
X2908158Y-7683531D01*
X2908158Y-7683531D02*
X2917682Y-7702579D01*
X2917682Y-7702579D02*
X2927205Y-7740674D01*
X2927205Y-7740674D02*
X2927205Y-7788293D01*
X2927205Y-7788293D02*
X2917682Y-7826388D01*
X2917682Y-7826388D02*
X2908158Y-7845436D01*
X2908158Y-7845436D02*
X2898634Y-7854960D01*
X2898634Y-7854960D02*
X2879586Y-7864484D01*
X2879586Y-7864484D02*
X2860539Y-7864484D01*
X2860539Y-7864484D02*
X2841491Y-7854960D01*
X2841491Y-7854960D02*
X2831967Y-7845436D01*
X2831967Y-7845436D02*
X2822443Y-7826388D01*
X2822443Y-7826388D02*
X2812920Y-7788293D01*
X2812920Y-7788293D02*
X2812920Y-7740674D01*
X2812920Y-7740674D02*
X2822443Y-7702579D01*
X2822443Y-7702579D02*
X2831967Y-7683531D01*
X2831967Y-7683531D02*
X2841491Y-7674008D01*
X2841491Y-7674008D02*
X2860539Y-7664484D01*
X3012920Y-7864484D02*
X3012920Y-7731150D01*
X3012920Y-7750198D02*
X3022443Y-7740674D01*
X3022443Y-7740674D02*
X3041491Y-7731150D01*
X3041491Y-7731150D02*
X3070063Y-7731150D01*
X3070063Y-7731150D02*
X3089110Y-7740674D01*
X3089110Y-7740674D02*
X3098634Y-7759722D01*
X3098634Y-7759722D02*
X3098634Y-7864484D01*
X3098634Y-7759722D02*
X3108158Y-7740674D01*
X3108158Y-7740674D02*
X3127205Y-7731150D01*
X3127205Y-7731150D02*
X3155777Y-7731150D01*
X3155777Y-7731150D02*
X3174824Y-7740674D01*
X3174824Y-7740674D02*
X3184348Y-7759722D01*
X3184348Y-7759722D02*
X3184348Y-7864484D01*
X3279586Y-7864484D02*
X3279586Y-7731150D01*
X3279586Y-7750198D02*
X3289110Y-7740674D01*
X3289110Y-7740674D02*
X3308158Y-7731150D01*
X3308158Y-7731150D02*
X3336729Y-7731150D01*
X3336729Y-7731150D02*
X3355777Y-7740674D01*
X3355777Y-7740674D02*
X3365301Y-7759722D01*
X3365301Y-7759722D02*
X3365301Y-7864484D01*
X3365301Y-7759722D02*
X3374824Y-7740674D01*
X3374824Y-7740674D02*
X3393872Y-7731150D01*
X3393872Y-7731150D02*
X3422443Y-7731150D01*
X3422443Y-7731150D02*
X3441491Y-7740674D01*
X3441491Y-7740674D02*
X3451015Y-7759722D01*
X3451015Y-7759722D02*
X3451015Y-7864484D01*
X3841491Y-7654960D02*
X3670063Y-7912103D01*
X4098634Y-7664484D02*
X4117682Y-7664484D01*
X4117682Y-7664484D02*
X4136729Y-7674008D01*
X4136729Y-7674008D02*
X4146253Y-7683531D01*
X4146253Y-7683531D02*
X4155777Y-7702579D01*
X4155777Y-7702579D02*
X4165301Y-7740674D01*
X4165301Y-7740674D02*
X4165301Y-7788293D01*
X4165301Y-7788293D02*
X4155777Y-7826388D01*
X4155777Y-7826388D02*
X4146253Y-7845436D01*
X4146253Y-7845436D02*
X4136729Y-7854960D01*
X4136729Y-7854960D02*
X4117682Y-7864484D01*
X4117682Y-7864484D02*
X4098634Y-7864484D01*
X4098634Y-7864484D02*
X4079586Y-7854960D01*
X4079586Y-7854960D02*
X4070063Y-7845436D01*
X4070063Y-7845436D02*
X4060539Y-7826388D01*
X4060539Y-7826388D02*
X4051015Y-7788293D01*
X4051015Y-7788293D02*
X4051015Y-7740674D01*
X4051015Y-7740674D02*
X4060539Y-7702579D01*
X4060539Y-7702579D02*
X4070063Y-7683531D01*
X4070063Y-7683531D02*
X4079586Y-7674008D01*
X4079586Y-7674008D02*
X4098634Y-7664484D01*
X4251015Y-7845436D02*
X4260539Y-7854960D01*
X4260539Y-7854960D02*
X4251015Y-7864484D01*
X4251015Y-7864484D02*
X4241491Y-7854960D01*
X4241491Y-7854960D02*
X4251015Y-7845436D01*
X4251015Y-7845436D02*
X4251015Y-7864484D01*
X4384348Y-7664484D02*
X4403396Y-7664484D01*
X4403396Y-7664484D02*
X4422444Y-7674008D01*
X4422444Y-7674008D02*
X4431968Y-7683531D01*
X4431968Y-7683531D02*
X4441491Y-7702579D01*
X4441491Y-7702579D02*
X4451015Y-7740674D01*
X4451015Y-7740674D02*
X4451015Y-7788293D01*
X4451015Y-7788293D02*
X4441491Y-7826388D01*
X4441491Y-7826388D02*
X4431968Y-7845436D01*
X4431968Y-7845436D02*
X4422444Y-7854960D01*
X4422444Y-7854960D02*
X4403396Y-7864484D01*
X4403396Y-7864484D02*
X4384348Y-7864484D01*
X4384348Y-7864484D02*
X4365301Y-7854960D01*
X4365301Y-7854960D02*
X4355777Y-7845436D01*
X4355777Y-7845436D02*
X4346253Y-7826388D01*
X4346253Y-7826388D02*
X4336729Y-7788293D01*
X4336729Y-7788293D02*
X4336729Y-7740674D01*
X4336729Y-7740674D02*
X4346253Y-7702579D01*
X4346253Y-7702579D02*
X4355777Y-7683531D01*
X4355777Y-7683531D02*
X4365301Y-7674008D01*
X4365301Y-7674008D02*
X4384348Y-7664484D01*
X4517682Y-7664484D02*
X4641491Y-7664484D01*
X4641491Y-7664484D02*
X4574825Y-7740674D01*
X4574825Y-7740674D02*
X4603396Y-7740674D01*
X4603396Y-7740674D02*
X4622444Y-7750198D01*
X4622444Y-7750198D02*
X4631968Y-7759722D01*
X4631968Y-7759722D02*
X4641491Y-7778769D01*
X4641491Y-7778769D02*
X4641491Y-7826388D01*
X4641491Y-7826388D02*
X4631968Y-7845436D01*
X4631968Y-7845436D02*
X4622444Y-7854960D01*
X4622444Y-7854960D02*
X4603396Y-7864484D01*
X4603396Y-7864484D02*
X4546253Y-7864484D01*
X4546253Y-7864484D02*
X4527206Y-7854960D01*
X4527206Y-7854960D02*
X4517682Y-7845436D01*
X4736729Y-7864484D02*
X4774825Y-7864484D01*
X4774825Y-7864484D02*
X4793872Y-7854960D01*
X4793872Y-7854960D02*
X4803396Y-7845436D01*
X4803396Y-7845436D02*
X4822444Y-7816865D01*
X4822444Y-7816865D02*
X4831968Y-7778769D01*
X4831968Y-7778769D02*
X4831968Y-7702579D01*
X4831968Y-7702579D02*
X4822444Y-7683531D01*
X4822444Y-7683531D02*
X4812920Y-7674008D01*
X4812920Y-7674008D02*
X4793872Y-7664484D01*
X4793872Y-7664484D02*
X4755777Y-7664484D01*
X4755777Y-7664484D02*
X4736729Y-7674008D01*
X4736729Y-7674008D02*
X4727206Y-7683531D01*
X4727206Y-7683531D02*
X4717682Y-7702579D01*
X4717682Y-7702579D02*
X4717682Y-7750198D01*
X4717682Y-7750198D02*
X4727206Y-7769246D01*
X4727206Y-7769246D02*
X4736729Y-7778769D01*
X4736729Y-7778769D02*
X4755777Y-7788293D01*
X4755777Y-7788293D02*
X4793872Y-7788293D01*
X4793872Y-7788293D02*
X4812920Y-7778769D01*
X4812920Y-7778769D02*
X4822444Y-7769246D01*
X4822444Y-7769246D02*
X4831968Y-7750198D01*
X5003396Y-7731150D02*
X5003396Y-7864484D01*
X4955777Y-7654960D02*
X4908158Y-7797817D01*
X4908158Y-7797817D02*
X5031968Y-7797817D01*
X5098634Y-7664484D02*
X5098634Y-7702579D01*
X5174825Y-7664484D02*
X5174825Y-7702579D01*
X5470063Y-7940674D02*
X5460539Y-7931150D01*
X5460539Y-7931150D02*
X5441491Y-7902579D01*
X5441491Y-7902579D02*
X5431968Y-7883531D01*
X5431968Y-7883531D02*
X5422444Y-7854960D01*
X5422444Y-7854960D02*
X5412920Y-7807341D01*
X5412920Y-7807341D02*
X5412920Y-7769246D01*
X5412920Y-7769246D02*
X5422444Y-7721627D01*
X5422444Y-7721627D02*
X5431968Y-7693055D01*
X5431968Y-7693055D02*
X5441491Y-7674008D01*
X5441491Y-7674008D02*
X5460539Y-7645436D01*
X5460539Y-7645436D02*
X5470063Y-7635912D01*
X5651015Y-7864484D02*
X5536730Y-7864484D01*
X5593872Y-7864484D02*
X5593872Y-7664484D01*
X5593872Y-7664484D02*
X5574825Y-7693055D01*
X5574825Y-7693055D02*
X5555777Y-7712103D01*
X5555777Y-7712103D02*
X5536730Y-7721627D01*
X5774825Y-7664484D02*
X5793872Y-7664484D01*
X5793872Y-7664484D02*
X5812920Y-7674008D01*
X5812920Y-7674008D02*
X5822444Y-7683531D01*
X5822444Y-7683531D02*
X5831968Y-7702579D01*
X5831968Y-7702579D02*
X5841491Y-7740674D01*
X5841491Y-7740674D02*
X5841491Y-7788293D01*
X5841491Y-7788293D02*
X5831968Y-7826388D01*
X5831968Y-7826388D02*
X5822444Y-7845436D01*
X5822444Y-7845436D02*
X5812920Y-7854960D01*
X5812920Y-7854960D02*
X5793872Y-7864484D01*
X5793872Y-7864484D02*
X5774825Y-7864484D01*
X5774825Y-7864484D02*
X5755777Y-7854960D01*
X5755777Y-7854960D02*
X5746253Y-7845436D01*
X5746253Y-7845436D02*
X5736729Y-7826388D01*
X5736729Y-7826388D02*
X5727206Y-7788293D01*
X5727206Y-7788293D02*
X5727206Y-7740674D01*
X5727206Y-7740674D02*
X5736729Y-7702579D01*
X5736729Y-7702579D02*
X5746253Y-7683531D01*
X5746253Y-7683531D02*
X5755777Y-7674008D01*
X5755777Y-7674008D02*
X5774825Y-7664484D01*
X6079587Y-7864484D02*
X6079587Y-7664484D01*
X6165301Y-7864484D02*
X6165301Y-7759722D01*
X6165301Y-7759722D02*
X6155777Y-7740674D01*
X6155777Y-7740674D02*
X6136730Y-7731150D01*
X6136730Y-7731150D02*
X6108158Y-7731150D01*
X6108158Y-7731150D02*
X6089110Y-7740674D01*
X6089110Y-7740674D02*
X6079587Y-7750198D01*
X6289110Y-7864484D02*
X6270063Y-7854960D01*
X6270063Y-7854960D02*
X6260539Y-7845436D01*
X6260539Y-7845436D02*
X6251015Y-7826388D01*
X6251015Y-7826388D02*
X6251015Y-7769246D01*
X6251015Y-7769246D02*
X6260539Y-7750198D01*
X6260539Y-7750198D02*
X6270063Y-7740674D01*
X6270063Y-7740674D02*
X6289110Y-7731150D01*
X6289110Y-7731150D02*
X6317682Y-7731150D01*
X6317682Y-7731150D02*
X6336730Y-7740674D01*
X6336730Y-7740674D02*
X6346253Y-7750198D01*
X6346253Y-7750198D02*
X6355777Y-7769246D01*
X6355777Y-7769246D02*
X6355777Y-7826388D01*
X6355777Y-7826388D02*
X6346253Y-7845436D01*
X6346253Y-7845436D02*
X6336730Y-7854960D01*
X6336730Y-7854960D02*
X6317682Y-7864484D01*
X6317682Y-7864484D02*
X6289110Y-7864484D01*
X6470063Y-7864484D02*
X6451015Y-7854960D01*
X6451015Y-7854960D02*
X6441491Y-7835912D01*
X6441491Y-7835912D02*
X6441491Y-7664484D01*
X6622444Y-7854960D02*
X6603396Y-7864484D01*
X6603396Y-7864484D02*
X6565301Y-7864484D01*
X6565301Y-7864484D02*
X6546253Y-7854960D01*
X6546253Y-7854960D02*
X6536730Y-7835912D01*
X6536730Y-7835912D02*
X6536730Y-7759722D01*
X6536730Y-7759722D02*
X6546253Y-7740674D01*
X6546253Y-7740674D02*
X6565301Y-7731150D01*
X6565301Y-7731150D02*
X6603396Y-7731150D01*
X6603396Y-7731150D02*
X6622444Y-7740674D01*
X6622444Y-7740674D02*
X6631968Y-7759722D01*
X6631968Y-7759722D02*
X6631968Y-7778769D01*
X6631968Y-7778769D02*
X6536730Y-7797817D01*
X6708158Y-7854960D02*
X6727206Y-7864484D01*
X6727206Y-7864484D02*
X6765301Y-7864484D01*
X6765301Y-7864484D02*
X6784349Y-7854960D01*
X6784349Y-7854960D02*
X6793872Y-7835912D01*
X6793872Y-7835912D02*
X6793872Y-7826388D01*
X6793872Y-7826388D02*
X6784349Y-7807341D01*
X6784349Y-7807341D02*
X6765301Y-7797817D01*
X6765301Y-7797817D02*
X6736730Y-7797817D01*
X6736730Y-7797817D02*
X6717682Y-7788293D01*
X6717682Y-7788293D02*
X6708158Y-7769246D01*
X6708158Y-7769246D02*
X6708158Y-7759722D01*
X6708158Y-7759722D02*
X6717682Y-7740674D01*
X6717682Y-7740674D02*
X6736730Y-7731150D01*
X6736730Y-7731150D02*
X6765301Y-7731150D01*
X6765301Y-7731150D02*
X6784349Y-7740674D01*
X6860539Y-7940674D02*
X6870063Y-7931150D01*
X6870063Y-7931150D02*
X6889111Y-7902579D01*
X6889111Y-7902579D02*
X6898634Y-7883531D01*
X6898634Y-7883531D02*
X6908158Y-7854960D01*
X6908158Y-7854960D02*
X6917682Y-7807341D01*
X6917682Y-7807341D02*
X6917682Y-7769246D01*
X6917682Y-7769246D02*
X6908158Y-7721627D01*
X6908158Y-7721627D02*
X6898634Y-7693055D01*
X6898634Y-7693055D02*
X6889111Y-7674008D01*
X6889111Y-7674008D02*
X6870063Y-7645436D01*
X6870063Y-7645436D02*
X6860539Y-7635912D01*
D12*
X1877427Y-8079427D02*
X1877427Y-7994573D01*
X1792573Y-7994573D01*
X1792573Y-8079427D01*
X1877427Y-8079427D01*
D11*
X2260539Y-8128484D02*
X2146253Y-8128484D01*
X2203396Y-8128484D02*
X2203396Y-7928484D01*
X2203396Y-7928484D02*
X2184348Y-7957055D01*
X2184348Y-7957055D02*
X2165301Y-7976103D01*
X2165301Y-7976103D02*
X2146253Y-7985627D01*
X2346253Y-8109436D02*
X2355777Y-8118960D01*
X2355777Y-8118960D02*
X2346253Y-8128484D01*
X2346253Y-8128484D02*
X2336729Y-8118960D01*
X2336729Y-8118960D02*
X2346253Y-8109436D01*
X2346253Y-8109436D02*
X2346253Y-8128484D01*
X2431967Y-7947531D02*
X2441491Y-7938008D01*
X2441491Y-7938008D02*
X2460539Y-7928484D01*
X2460539Y-7928484D02*
X2508158Y-7928484D01*
X2508158Y-7928484D02*
X2527205Y-7938008D01*
X2527205Y-7938008D02*
X2536729Y-7947531D01*
X2536729Y-7947531D02*
X2546253Y-7966579D01*
X2546253Y-7966579D02*
X2546253Y-7985627D01*
X2546253Y-7985627D02*
X2536729Y-8014198D01*
X2536729Y-8014198D02*
X2422444Y-8128484D01*
X2422444Y-8128484D02*
X2546253Y-8128484D01*
X2670063Y-7928484D02*
X2689110Y-7928484D01*
X2689110Y-7928484D02*
X2708158Y-7938008D01*
X2708158Y-7938008D02*
X2717682Y-7947531D01*
X2717682Y-7947531D02*
X2727205Y-7966579D01*
X2727205Y-7966579D02*
X2736729Y-8004674D01*
X2736729Y-8004674D02*
X2736729Y-8052293D01*
X2736729Y-8052293D02*
X2727205Y-8090388D01*
X2727205Y-8090388D02*
X2717682Y-8109436D01*
X2717682Y-8109436D02*
X2708158Y-8118960D01*
X2708158Y-8118960D02*
X2689110Y-8128484D01*
X2689110Y-8128484D02*
X2670063Y-8128484D01*
X2670063Y-8128484D02*
X2651015Y-8118960D01*
X2651015Y-8118960D02*
X2641491Y-8109436D01*
X2641491Y-8109436D02*
X2631967Y-8090388D01*
X2631967Y-8090388D02*
X2622444Y-8052293D01*
X2622444Y-8052293D02*
X2622444Y-8004674D01*
X2622444Y-8004674D02*
X2631967Y-7966579D01*
X2631967Y-7966579D02*
X2641491Y-7947531D01*
X2641491Y-7947531D02*
X2651015Y-7938008D01*
X2651015Y-7938008D02*
X2670063Y-7928484D01*
X2860539Y-7928484D02*
X2879586Y-7928484D01*
X2879586Y-7928484D02*
X2898634Y-7938008D01*
X2898634Y-7938008D02*
X2908158Y-7947531D01*
X2908158Y-7947531D02*
X2917682Y-7966579D01*
X2917682Y-7966579D02*
X2927205Y-8004674D01*
X2927205Y-8004674D02*
X2927205Y-8052293D01*
X2927205Y-8052293D02*
X2917682Y-8090388D01*
X2917682Y-8090388D02*
X2908158Y-8109436D01*
X2908158Y-8109436D02*
X2898634Y-8118960D01*
X2898634Y-8118960D02*
X2879586Y-8128484D01*
X2879586Y-8128484D02*
X2860539Y-8128484D01*
X2860539Y-8128484D02*
X2841491Y-8118960D01*
X2841491Y-8118960D02*
X2831967Y-8109436D01*
X2831967Y-8109436D02*
X2822443Y-8090388D01*
X2822443Y-8090388D02*
X2812920Y-8052293D01*
X2812920Y-8052293D02*
X2812920Y-8004674D01*
X2812920Y-8004674D02*
X2822443Y-7966579D01*
X2822443Y-7966579D02*
X2831967Y-7947531D01*
X2831967Y-7947531D02*
X2841491Y-7938008D01*
X2841491Y-7938008D02*
X2860539Y-7928484D01*
X3012920Y-8128484D02*
X3012920Y-7995150D01*
X3012920Y-8014198D02*
X3022443Y-8004674D01*
X3022443Y-8004674D02*
X3041491Y-7995150D01*
X3041491Y-7995150D02*
X3070063Y-7995150D01*
X3070063Y-7995150D02*
X3089110Y-8004674D01*
X3089110Y-8004674D02*
X3098634Y-8023722D01*
X3098634Y-8023722D02*
X3098634Y-8128484D01*
X3098634Y-8023722D02*
X3108158Y-8004674D01*
X3108158Y-8004674D02*
X3127205Y-7995150D01*
X3127205Y-7995150D02*
X3155777Y-7995150D01*
X3155777Y-7995150D02*
X3174824Y-8004674D01*
X3174824Y-8004674D02*
X3184348Y-8023722D01*
X3184348Y-8023722D02*
X3184348Y-8128484D01*
X3279586Y-8128484D02*
X3279586Y-7995150D01*
X3279586Y-8014198D02*
X3289110Y-8004674D01*
X3289110Y-8004674D02*
X3308158Y-7995150D01*
X3308158Y-7995150D02*
X3336729Y-7995150D01*
X3336729Y-7995150D02*
X3355777Y-8004674D01*
X3355777Y-8004674D02*
X3365301Y-8023722D01*
X3365301Y-8023722D02*
X3365301Y-8128484D01*
X3365301Y-8023722D02*
X3374824Y-8004674D01*
X3374824Y-8004674D02*
X3393872Y-7995150D01*
X3393872Y-7995150D02*
X3422443Y-7995150D01*
X3422443Y-7995150D02*
X3441491Y-8004674D01*
X3441491Y-8004674D02*
X3451015Y-8023722D01*
X3451015Y-8023722D02*
X3451015Y-8128484D01*
X3841491Y-7918960D02*
X3670063Y-8176103D01*
X4098634Y-7928484D02*
X4117682Y-7928484D01*
X4117682Y-7928484D02*
X4136729Y-7938008D01*
X4136729Y-7938008D02*
X4146253Y-7947531D01*
X4146253Y-7947531D02*
X4155777Y-7966579D01*
X4155777Y-7966579D02*
X4165301Y-8004674D01*
X4165301Y-8004674D02*
X4165301Y-8052293D01*
X4165301Y-8052293D02*
X4155777Y-8090388D01*
X4155777Y-8090388D02*
X4146253Y-8109436D01*
X4146253Y-8109436D02*
X4136729Y-8118960D01*
X4136729Y-8118960D02*
X4117682Y-8128484D01*
X4117682Y-8128484D02*
X4098634Y-8128484D01*
X4098634Y-8128484D02*
X4079586Y-8118960D01*
X4079586Y-8118960D02*
X4070063Y-8109436D01*
X4070063Y-8109436D02*
X4060539Y-8090388D01*
X4060539Y-8090388D02*
X4051015Y-8052293D01*
X4051015Y-8052293D02*
X4051015Y-8004674D01*
X4051015Y-8004674D02*
X4060539Y-7966579D01*
X4060539Y-7966579D02*
X4070063Y-7947531D01*
X4070063Y-7947531D02*
X4079586Y-7938008D01*
X4079586Y-7938008D02*
X4098634Y-7928484D01*
X4251015Y-8109436D02*
X4260539Y-8118960D01*
X4260539Y-8118960D02*
X4251015Y-8128484D01*
X4251015Y-8128484D02*
X4241491Y-8118960D01*
X4241491Y-8118960D02*
X4251015Y-8109436D01*
X4251015Y-8109436D02*
X4251015Y-8128484D01*
X4384348Y-7928484D02*
X4403396Y-7928484D01*
X4403396Y-7928484D02*
X4422444Y-7938008D01*
X4422444Y-7938008D02*
X4431968Y-7947531D01*
X4431968Y-7947531D02*
X4441491Y-7966579D01*
X4441491Y-7966579D02*
X4451015Y-8004674D01*
X4451015Y-8004674D02*
X4451015Y-8052293D01*
X4451015Y-8052293D02*
X4441491Y-8090388D01*
X4441491Y-8090388D02*
X4431968Y-8109436D01*
X4431968Y-8109436D02*
X4422444Y-8118960D01*
X4422444Y-8118960D02*
X4403396Y-8128484D01*
X4403396Y-8128484D02*
X4384348Y-8128484D01*
X4384348Y-8128484D02*
X4365301Y-8118960D01*
X4365301Y-8118960D02*
X4355777Y-8109436D01*
X4355777Y-8109436D02*
X4346253Y-8090388D01*
X4346253Y-8090388D02*
X4336729Y-8052293D01*
X4336729Y-8052293D02*
X4336729Y-8004674D01*
X4336729Y-8004674D02*
X4346253Y-7966579D01*
X4346253Y-7966579D02*
X4355777Y-7947531D01*
X4355777Y-7947531D02*
X4365301Y-7938008D01*
X4365301Y-7938008D02*
X4384348Y-7928484D01*
X4622444Y-7995150D02*
X4622444Y-8128484D01*
X4574825Y-7918960D02*
X4527206Y-8061817D01*
X4527206Y-8061817D02*
X4651015Y-8061817D01*
X4708158Y-7928484D02*
X4841491Y-7928484D01*
X4841491Y-7928484D02*
X4755777Y-8128484D01*
X4908158Y-7947531D02*
X4917682Y-7938008D01*
X4917682Y-7938008D02*
X4936729Y-7928484D01*
X4936729Y-7928484D02*
X4984349Y-7928484D01*
X4984349Y-7928484D02*
X5003396Y-7938008D01*
X5003396Y-7938008D02*
X5012920Y-7947531D01*
X5012920Y-7947531D02*
X5022444Y-7966579D01*
X5022444Y-7966579D02*
X5022444Y-7985627D01*
X5022444Y-7985627D02*
X5012920Y-8014198D01*
X5012920Y-8014198D02*
X4898634Y-8128484D01*
X4898634Y-8128484D02*
X5022444Y-8128484D01*
X5098634Y-7928484D02*
X5098634Y-7966579D01*
X5174825Y-7928484D02*
X5174825Y-7966579D01*
X5470063Y-8204674D02*
X5460539Y-8195150D01*
X5460539Y-8195150D02*
X5441491Y-8166579D01*
X5441491Y-8166579D02*
X5431968Y-8147531D01*
X5431968Y-8147531D02*
X5422444Y-8118960D01*
X5422444Y-8118960D02*
X5412920Y-8071341D01*
X5412920Y-8071341D02*
X5412920Y-8033246D01*
X5412920Y-8033246D02*
X5422444Y-7985627D01*
X5422444Y-7985627D02*
X5431968Y-7957055D01*
X5431968Y-7957055D02*
X5441491Y-7938008D01*
X5441491Y-7938008D02*
X5460539Y-7909436D01*
X5460539Y-7909436D02*
X5470063Y-7899912D01*
X5536730Y-7947531D02*
X5546253Y-7938008D01*
X5546253Y-7938008D02*
X5565301Y-7928484D01*
X5565301Y-7928484D02*
X5612920Y-7928484D01*
X5612920Y-7928484D02*
X5631968Y-7938008D01*
X5631968Y-7938008D02*
X5641491Y-7947531D01*
X5641491Y-7947531D02*
X5651015Y-7966579D01*
X5651015Y-7966579D02*
X5651015Y-7985627D01*
X5651015Y-7985627D02*
X5641491Y-8014198D01*
X5641491Y-8014198D02*
X5527206Y-8128484D01*
X5527206Y-8128484D02*
X5651015Y-8128484D01*
X5889110Y-8128484D02*
X5889110Y-7928484D01*
X5974825Y-8128484D02*
X5974825Y-8023722D01*
X5974825Y-8023722D02*
X5965301Y-8004674D01*
X5965301Y-8004674D02*
X5946253Y-7995150D01*
X5946253Y-7995150D02*
X5917682Y-7995150D01*
X5917682Y-7995150D02*
X5898634Y-8004674D01*
X5898634Y-8004674D02*
X5889110Y-8014198D01*
X6098634Y-8128484D02*
X6079587Y-8118960D01*
X6079587Y-8118960D02*
X6070063Y-8109436D01*
X6070063Y-8109436D02*
X6060539Y-8090388D01*
X6060539Y-8090388D02*
X6060539Y-8033246D01*
X6060539Y-8033246D02*
X6070063Y-8014198D01*
X6070063Y-8014198D02*
X6079587Y-8004674D01*
X6079587Y-8004674D02*
X6098634Y-7995150D01*
X6098634Y-7995150D02*
X6127206Y-7995150D01*
X6127206Y-7995150D02*
X6146253Y-8004674D01*
X6146253Y-8004674D02*
X6155777Y-8014198D01*
X6155777Y-8014198D02*
X6165301Y-8033246D01*
X6165301Y-8033246D02*
X6165301Y-8090388D01*
X6165301Y-8090388D02*
X6155777Y-8109436D01*
X6155777Y-8109436D02*
X6146253Y-8118960D01*
X6146253Y-8118960D02*
X6127206Y-8128484D01*
X6127206Y-8128484D02*
X6098634Y-8128484D01*
X6279587Y-8128484D02*
X6260539Y-8118960D01*
X6260539Y-8118960D02*
X6251015Y-8099912D01*
X6251015Y-8099912D02*
X6251015Y-7928484D01*
X6431968Y-8118960D02*
X6412920Y-8128484D01*
X6412920Y-8128484D02*
X6374825Y-8128484D01*
X6374825Y-8128484D02*
X6355777Y-8118960D01*
X6355777Y-8118960D02*
X6346253Y-8099912D01*
X6346253Y-8099912D02*
X6346253Y-8023722D01*
X6346253Y-8023722D02*
X6355777Y-8004674D01*
X6355777Y-8004674D02*
X6374825Y-7995150D01*
X6374825Y-7995150D02*
X6412920Y-7995150D01*
X6412920Y-7995150D02*
X6431968Y-8004674D01*
X6431968Y-8004674D02*
X6441491Y-8023722D01*
X6441491Y-8023722D02*
X6441491Y-8042769D01*
X6441491Y-8042769D02*
X6346253Y-8061817D01*
X6517682Y-8118960D02*
X6536730Y-8128484D01*
X6536730Y-8128484D02*
X6574825Y-8128484D01*
X6574825Y-8128484D02*
X6593872Y-8118960D01*
X6593872Y-8118960D02*
X6603396Y-8099912D01*
X6603396Y-8099912D02*
X6603396Y-8090388D01*
X6603396Y-8090388D02*
X6593872Y-8071341D01*
X6593872Y-8071341D02*
X6574825Y-8061817D01*
X6574825Y-8061817D02*
X6546253Y-8061817D01*
X6546253Y-8061817D02*
X6527206Y-8052293D01*
X6527206Y-8052293D02*
X6517682Y-8033246D01*
X6517682Y-8033246D02*
X6517682Y-8023722D01*
X6517682Y-8023722D02*
X6527206Y-8004674D01*
X6527206Y-8004674D02*
X6546253Y-7995150D01*
X6546253Y-7995150D02*
X6574825Y-7995150D01*
X6574825Y-7995150D02*
X6593872Y-8004674D01*
X6670063Y-8204674D02*
X6679587Y-8195150D01*
X6679587Y-8195150D02*
X6698634Y-8166579D01*
X6698634Y-8166579D02*
X6708158Y-8147531D01*
X6708158Y-8147531D02*
X6717682Y-8118960D01*
X6717682Y-8118960D02*
X6727206Y-8071341D01*
X6727206Y-8071341D02*
X6727206Y-8033246D01*
X6727206Y-8033246D02*
X6717682Y-7985627D01*
X6717682Y-7985627D02*
X6708158Y-7957055D01*
X6708158Y-7957055D02*
X6698634Y-7938008D01*
X6698634Y-7938008D02*
X6679587Y-7909436D01*
X6679587Y-7909436D02*
X6670063Y-7899912D01*
D13*
X1806000Y-8390000D02*
X1895000Y-8301000D01*
X1806000Y-8212000D01*
X1717000Y-8301000D01*
X1806000Y-8390000D01*
D11*
X2260539Y-8392484D02*
X2146253Y-8392484D01*
X2203396Y-8392484D02*
X2203396Y-8192484D01*
X2203396Y-8192484D02*
X2184348Y-8221055D01*
X2184348Y-8221055D02*
X2165301Y-8240103D01*
X2165301Y-8240103D02*
X2146253Y-8249627D01*
X2346253Y-8373436D02*
X2355777Y-8382960D01*
X2355777Y-8382960D02*
X2346253Y-8392484D01*
X2346253Y-8392484D02*
X2336729Y-8382960D01*
X2336729Y-8382960D02*
X2346253Y-8373436D01*
X2346253Y-8373436D02*
X2346253Y-8392484D01*
X2422444Y-8192484D02*
X2555777Y-8192484D01*
X2555777Y-8192484D02*
X2470063Y-8392484D01*
X2660539Y-8278198D02*
X2641491Y-8268674D01*
X2641491Y-8268674D02*
X2631967Y-8259150D01*
X2631967Y-8259150D02*
X2622444Y-8240103D01*
X2622444Y-8240103D02*
X2622444Y-8230579D01*
X2622444Y-8230579D02*
X2631967Y-8211531D01*
X2631967Y-8211531D02*
X2641491Y-8202008D01*
X2641491Y-8202008D02*
X2660539Y-8192484D01*
X2660539Y-8192484D02*
X2698634Y-8192484D01*
X2698634Y-8192484D02*
X2717682Y-8202008D01*
X2717682Y-8202008D02*
X2727205Y-8211531D01*
X2727205Y-8211531D02*
X2736729Y-8230579D01*
X2736729Y-8230579D02*
X2736729Y-8240103D01*
X2736729Y-8240103D02*
X2727205Y-8259150D01*
X2727205Y-8259150D02*
X2717682Y-8268674D01*
X2717682Y-8268674D02*
X2698634Y-8278198D01*
X2698634Y-8278198D02*
X2660539Y-8278198D01*
X2660539Y-8278198D02*
X2641491Y-8287722D01*
X2641491Y-8287722D02*
X2631967Y-8297246D01*
X2631967Y-8297246D02*
X2622444Y-8316293D01*
X2622444Y-8316293D02*
X2622444Y-8354388D01*
X2622444Y-8354388D02*
X2631967Y-8373436D01*
X2631967Y-8373436D02*
X2641491Y-8382960D01*
X2641491Y-8382960D02*
X2660539Y-8392484D01*
X2660539Y-8392484D02*
X2698634Y-8392484D01*
X2698634Y-8392484D02*
X2717682Y-8382960D01*
X2717682Y-8382960D02*
X2727205Y-8373436D01*
X2727205Y-8373436D02*
X2736729Y-8354388D01*
X2736729Y-8354388D02*
X2736729Y-8316293D01*
X2736729Y-8316293D02*
X2727205Y-8297246D01*
X2727205Y-8297246D02*
X2717682Y-8287722D01*
X2717682Y-8287722D02*
X2698634Y-8278198D01*
X2860539Y-8192484D02*
X2879586Y-8192484D01*
X2879586Y-8192484D02*
X2898634Y-8202008D01*
X2898634Y-8202008D02*
X2908158Y-8211531D01*
X2908158Y-8211531D02*
X2917682Y-8230579D01*
X2917682Y-8230579D02*
X2927205Y-8268674D01*
X2927205Y-8268674D02*
X2927205Y-8316293D01*
X2927205Y-8316293D02*
X2917682Y-8354388D01*
X2917682Y-8354388D02*
X2908158Y-8373436D01*
X2908158Y-8373436D02*
X2898634Y-8382960D01*
X2898634Y-8382960D02*
X2879586Y-8392484D01*
X2879586Y-8392484D02*
X2860539Y-8392484D01*
X2860539Y-8392484D02*
X2841491Y-8382960D01*
X2841491Y-8382960D02*
X2831967Y-8373436D01*
X2831967Y-8373436D02*
X2822443Y-8354388D01*
X2822443Y-8354388D02*
X2812920Y-8316293D01*
X2812920Y-8316293D02*
X2812920Y-8268674D01*
X2812920Y-8268674D02*
X2822443Y-8230579D01*
X2822443Y-8230579D02*
X2831967Y-8211531D01*
X2831967Y-8211531D02*
X2841491Y-8202008D01*
X2841491Y-8202008D02*
X2860539Y-8192484D01*
X3012920Y-8392484D02*
X3012920Y-8259150D01*
X3012920Y-8278198D02*
X3022443Y-8268674D01*
X3022443Y-8268674D02*
X3041491Y-8259150D01*
X3041491Y-8259150D02*
X3070063Y-8259150D01*
X3070063Y-8259150D02*
X3089110Y-8268674D01*
X3089110Y-8268674D02*
X3098634Y-8287722D01*
X3098634Y-8287722D02*
X3098634Y-8392484D01*
X3098634Y-8287722D02*
X3108158Y-8268674D01*
X3108158Y-8268674D02*
X3127205Y-8259150D01*
X3127205Y-8259150D02*
X3155777Y-8259150D01*
X3155777Y-8259150D02*
X3174824Y-8268674D01*
X3174824Y-8268674D02*
X3184348Y-8287722D01*
X3184348Y-8287722D02*
X3184348Y-8392484D01*
X3279586Y-8392484D02*
X3279586Y-8259150D01*
X3279586Y-8278198D02*
X3289110Y-8268674D01*
X3289110Y-8268674D02*
X3308158Y-8259150D01*
X3308158Y-8259150D02*
X3336729Y-8259150D01*
X3336729Y-8259150D02*
X3355777Y-8268674D01*
X3355777Y-8268674D02*
X3365301Y-8287722D01*
X3365301Y-8287722D02*
X3365301Y-8392484D01*
X3365301Y-8287722D02*
X3374824Y-8268674D01*
X3374824Y-8268674D02*
X3393872Y-8259150D01*
X3393872Y-8259150D02*
X3422443Y-8259150D01*
X3422443Y-8259150D02*
X3441491Y-8268674D01*
X3441491Y-8268674D02*
X3451015Y-8287722D01*
X3451015Y-8287722D02*
X3451015Y-8392484D01*
X3841491Y-8182960D02*
X3670063Y-8440103D01*
X4098634Y-8192484D02*
X4117682Y-8192484D01*
X4117682Y-8192484D02*
X4136729Y-8202008D01*
X4136729Y-8202008D02*
X4146253Y-8211531D01*
X4146253Y-8211531D02*
X4155777Y-8230579D01*
X4155777Y-8230579D02*
X4165301Y-8268674D01*
X4165301Y-8268674D02*
X4165301Y-8316293D01*
X4165301Y-8316293D02*
X4155777Y-8354388D01*
X4155777Y-8354388D02*
X4146253Y-8373436D01*
X4146253Y-8373436D02*
X4136729Y-8382960D01*
X4136729Y-8382960D02*
X4117682Y-8392484D01*
X4117682Y-8392484D02*
X4098634Y-8392484D01*
X4098634Y-8392484D02*
X4079586Y-8382960D01*
X4079586Y-8382960D02*
X4070063Y-8373436D01*
X4070063Y-8373436D02*
X4060539Y-8354388D01*
X4060539Y-8354388D02*
X4051015Y-8316293D01*
X4051015Y-8316293D02*
X4051015Y-8268674D01*
X4051015Y-8268674D02*
X4060539Y-8230579D01*
X4060539Y-8230579D02*
X4070063Y-8211531D01*
X4070063Y-8211531D02*
X4079586Y-8202008D01*
X4079586Y-8202008D02*
X4098634Y-8192484D01*
X4251015Y-8373436D02*
X4260539Y-8382960D01*
X4260539Y-8382960D02*
X4251015Y-8392484D01*
X4251015Y-8392484D02*
X4241491Y-8382960D01*
X4241491Y-8382960D02*
X4251015Y-8373436D01*
X4251015Y-8373436D02*
X4251015Y-8392484D01*
X4384348Y-8192484D02*
X4403396Y-8192484D01*
X4403396Y-8192484D02*
X4422444Y-8202008D01*
X4422444Y-8202008D02*
X4431968Y-8211531D01*
X4431968Y-8211531D02*
X4441491Y-8230579D01*
X4441491Y-8230579D02*
X4451015Y-8268674D01*
X4451015Y-8268674D02*
X4451015Y-8316293D01*
X4451015Y-8316293D02*
X4441491Y-8354388D01*
X4441491Y-8354388D02*
X4431968Y-8373436D01*
X4431968Y-8373436D02*
X4422444Y-8382960D01*
X4422444Y-8382960D02*
X4403396Y-8392484D01*
X4403396Y-8392484D02*
X4384348Y-8392484D01*
X4384348Y-8392484D02*
X4365301Y-8382960D01*
X4365301Y-8382960D02*
X4355777Y-8373436D01*
X4355777Y-8373436D02*
X4346253Y-8354388D01*
X4346253Y-8354388D02*
X4336729Y-8316293D01*
X4336729Y-8316293D02*
X4336729Y-8268674D01*
X4336729Y-8268674D02*
X4346253Y-8230579D01*
X4346253Y-8230579D02*
X4355777Y-8211531D01*
X4355777Y-8211531D02*
X4365301Y-8202008D01*
X4365301Y-8202008D02*
X4384348Y-8192484D01*
X4517682Y-8192484D02*
X4651015Y-8192484D01*
X4651015Y-8192484D02*
X4565301Y-8392484D01*
X4765301Y-8192484D02*
X4784349Y-8192484D01*
X4784349Y-8192484D02*
X4803396Y-8202008D01*
X4803396Y-8202008D02*
X4812920Y-8211531D01*
X4812920Y-8211531D02*
X4822444Y-8230579D01*
X4822444Y-8230579D02*
X4831968Y-8268674D01*
X4831968Y-8268674D02*
X4831968Y-8316293D01*
X4831968Y-8316293D02*
X4822444Y-8354388D01*
X4822444Y-8354388D02*
X4812920Y-8373436D01*
X4812920Y-8373436D02*
X4803396Y-8382960D01*
X4803396Y-8382960D02*
X4784349Y-8392484D01*
X4784349Y-8392484D02*
X4765301Y-8392484D01*
X4765301Y-8392484D02*
X4746253Y-8382960D01*
X4746253Y-8382960D02*
X4736729Y-8373436D01*
X4736729Y-8373436D02*
X4727206Y-8354388D01*
X4727206Y-8354388D02*
X4717682Y-8316293D01*
X4717682Y-8316293D02*
X4717682Y-8268674D01*
X4717682Y-8268674D02*
X4727206Y-8230579D01*
X4727206Y-8230579D02*
X4736729Y-8211531D01*
X4736729Y-8211531D02*
X4746253Y-8202008D01*
X4746253Y-8202008D02*
X4765301Y-8192484D01*
X5022444Y-8392484D02*
X4908158Y-8392484D01*
X4965301Y-8392484D02*
X4965301Y-8192484D01*
X4965301Y-8192484D02*
X4946253Y-8221055D01*
X4946253Y-8221055D02*
X4927206Y-8240103D01*
X4927206Y-8240103D02*
X4908158Y-8249627D01*
X5098634Y-8192484D02*
X5098634Y-8230579D01*
X5174825Y-8192484D02*
X5174825Y-8230579D01*
X5470063Y-8468674D02*
X5460539Y-8459150D01*
X5460539Y-8459150D02*
X5441491Y-8430579D01*
X5441491Y-8430579D02*
X5431968Y-8411531D01*
X5431968Y-8411531D02*
X5422444Y-8382960D01*
X5422444Y-8382960D02*
X5412920Y-8335341D01*
X5412920Y-8335341D02*
X5412920Y-8297246D01*
X5412920Y-8297246D02*
X5422444Y-8249627D01*
X5422444Y-8249627D02*
X5431968Y-8221055D01*
X5431968Y-8221055D02*
X5441491Y-8202008D01*
X5441491Y-8202008D02*
X5460539Y-8173436D01*
X5460539Y-8173436D02*
X5470063Y-8163912D01*
X5631968Y-8259150D02*
X5631968Y-8392484D01*
X5584349Y-8182960D02*
X5536730Y-8325817D01*
X5536730Y-8325817D02*
X5660539Y-8325817D01*
X5889110Y-8392484D02*
X5889110Y-8192484D01*
X5974825Y-8392484D02*
X5974825Y-8287722D01*
X5974825Y-8287722D02*
X5965301Y-8268674D01*
X5965301Y-8268674D02*
X5946253Y-8259150D01*
X5946253Y-8259150D02*
X5917682Y-8259150D01*
X5917682Y-8259150D02*
X5898634Y-8268674D01*
X5898634Y-8268674D02*
X5889110Y-8278198D01*
X6098634Y-8392484D02*
X6079587Y-8382960D01*
X6079587Y-8382960D02*
X6070063Y-8373436D01*
X6070063Y-8373436D02*
X6060539Y-8354388D01*
X6060539Y-8354388D02*
X6060539Y-8297246D01*
X6060539Y-8297246D02*
X6070063Y-8278198D01*
X6070063Y-8278198D02*
X6079587Y-8268674D01*
X6079587Y-8268674D02*
X6098634Y-8259150D01*
X6098634Y-8259150D02*
X6127206Y-8259150D01*
X6127206Y-8259150D02*
X6146253Y-8268674D01*
X6146253Y-8268674D02*
X6155777Y-8278198D01*
X6155777Y-8278198D02*
X6165301Y-8297246D01*
X6165301Y-8297246D02*
X6165301Y-8354388D01*
X6165301Y-8354388D02*
X6155777Y-8373436D01*
X6155777Y-8373436D02*
X6146253Y-8382960D01*
X6146253Y-8382960D02*
X6127206Y-8392484D01*
X6127206Y-8392484D02*
X6098634Y-8392484D01*
X6279587Y-8392484D02*
X6260539Y-8382960D01*
X6260539Y-8382960D02*
X6251015Y-8363912D01*
X6251015Y-8363912D02*
X6251015Y-8192484D01*
X6431968Y-8382960D02*
X6412920Y-8392484D01*
X6412920Y-8392484D02*
X6374825Y-8392484D01*
X6374825Y-8392484D02*
X6355777Y-8382960D01*
X6355777Y-8382960D02*
X6346253Y-8363912D01*
X6346253Y-8363912D02*
X6346253Y-8287722D01*
X6346253Y-8287722D02*
X6355777Y-8268674D01*
X6355777Y-8268674D02*
X6374825Y-8259150D01*
X6374825Y-8259150D02*
X6412920Y-8259150D01*
X6412920Y-8259150D02*
X6431968Y-8268674D01*
X6431968Y-8268674D02*
X6441491Y-8287722D01*
X6441491Y-8287722D02*
X6441491Y-8306769D01*
X6441491Y-8306769D02*
X6346253Y-8325817D01*
X6517682Y-8382960D02*
X6536730Y-8392484D01*
X6536730Y-8392484D02*
X6574825Y-8392484D01*
X6574825Y-8392484D02*
X6593872Y-8382960D01*
X6593872Y-8382960D02*
X6603396Y-8363912D01*
X6603396Y-8363912D02*
X6603396Y-8354388D01*
X6603396Y-8354388D02*
X6593872Y-8335341D01*
X6593872Y-8335341D02*
X6574825Y-8325817D01*
X6574825Y-8325817D02*
X6546253Y-8325817D01*
X6546253Y-8325817D02*
X6527206Y-8316293D01*
X6527206Y-8316293D02*
X6517682Y-8297246D01*
X6517682Y-8297246D02*
X6517682Y-8287722D01*
X6517682Y-8287722D02*
X6527206Y-8268674D01*
X6527206Y-8268674D02*
X6546253Y-8259150D01*
X6546253Y-8259150D02*
X6574825Y-8259150D01*
X6574825Y-8259150D02*
X6593872Y-8268674D01*
X6670063Y-8468674D02*
X6679587Y-8459150D01*
X6679587Y-8459150D02*
X6698634Y-8430579D01*
X6698634Y-8430579D02*
X6708158Y-8411531D01*
X6708158Y-8411531D02*
X6717682Y-8382960D01*
X6717682Y-8382960D02*
X6727206Y-8335341D01*
X6727206Y-8335341D02*
X6727206Y-8297246D01*
X6727206Y-8297246D02*
X6717682Y-8249627D01*
X6717682Y-8249627D02*
X6708158Y-8221055D01*
X6708158Y-8221055D02*
X6698634Y-8202008D01*
X6698634Y-8202008D02*
X6679587Y-8173436D01*
X6679587Y-8173436D02*
X6670063Y-8163912D01*
X1695000Y-8499000D02*
X1895000Y-8699000D01*
X1895000Y-8499000D02*
X1695000Y-8699000D01*
X1895000Y-8599000D02*
G75*
G03*
X1695000Y-8599000I-100000J0D01*
G01*
X1695000Y-8599000D02*
G75*
G03*
X1895000Y-8599000I100000J0D01*
G01*
X2136729Y-8490484D02*
X2260539Y-8490484D01*
X2260539Y-8490484D02*
X2193872Y-8566674D01*
X2193872Y-8566674D02*
X2222444Y-8566674D01*
X2222444Y-8566674D02*
X2241491Y-8576198D01*
X2241491Y-8576198D02*
X2251015Y-8585722D01*
X2251015Y-8585722D02*
X2260539Y-8604770D01*
X2260539Y-8604770D02*
X2260539Y-8652389D01*
X2260539Y-8652389D02*
X2251015Y-8671436D01*
X2251015Y-8671436D02*
X2241491Y-8680960D01*
X2241491Y-8680960D02*
X2222444Y-8690484D01*
X2222444Y-8690484D02*
X2165301Y-8690484D01*
X2165301Y-8690484D02*
X2146253Y-8680960D01*
X2146253Y-8680960D02*
X2136729Y-8671436D01*
X2346253Y-8671436D02*
X2355777Y-8680960D01*
X2355777Y-8680960D02*
X2346253Y-8690484D01*
X2346253Y-8690484D02*
X2336729Y-8680960D01*
X2336729Y-8680960D02*
X2346253Y-8671436D01*
X2346253Y-8671436D02*
X2346253Y-8690484D01*
X2431967Y-8509531D02*
X2441491Y-8500008D01*
X2441491Y-8500008D02*
X2460539Y-8490484D01*
X2460539Y-8490484D02*
X2508158Y-8490484D01*
X2508158Y-8490484D02*
X2527205Y-8500008D01*
X2527205Y-8500008D02*
X2536729Y-8509531D01*
X2536729Y-8509531D02*
X2546253Y-8528579D01*
X2546253Y-8528579D02*
X2546253Y-8547627D01*
X2546253Y-8547627D02*
X2536729Y-8576198D01*
X2536729Y-8576198D02*
X2422444Y-8690484D01*
X2422444Y-8690484D02*
X2546253Y-8690484D01*
X2670063Y-8490484D02*
X2689110Y-8490484D01*
X2689110Y-8490484D02*
X2708158Y-8500008D01*
X2708158Y-8500008D02*
X2717682Y-8509531D01*
X2717682Y-8509531D02*
X2727205Y-8528579D01*
X2727205Y-8528579D02*
X2736729Y-8566674D01*
X2736729Y-8566674D02*
X2736729Y-8614293D01*
X2736729Y-8614293D02*
X2727205Y-8652389D01*
X2727205Y-8652389D02*
X2717682Y-8671436D01*
X2717682Y-8671436D02*
X2708158Y-8680960D01*
X2708158Y-8680960D02*
X2689110Y-8690484D01*
X2689110Y-8690484D02*
X2670063Y-8690484D01*
X2670063Y-8690484D02*
X2651015Y-8680960D01*
X2651015Y-8680960D02*
X2641491Y-8671436D01*
X2641491Y-8671436D02*
X2631967Y-8652389D01*
X2631967Y-8652389D02*
X2622444Y-8614293D01*
X2622444Y-8614293D02*
X2622444Y-8566674D01*
X2622444Y-8566674D02*
X2631967Y-8528579D01*
X2631967Y-8528579D02*
X2641491Y-8509531D01*
X2641491Y-8509531D02*
X2651015Y-8500008D01*
X2651015Y-8500008D02*
X2670063Y-8490484D01*
X2860539Y-8490484D02*
X2879586Y-8490484D01*
X2879586Y-8490484D02*
X2898634Y-8500008D01*
X2898634Y-8500008D02*
X2908158Y-8509531D01*
X2908158Y-8509531D02*
X2917682Y-8528579D01*
X2917682Y-8528579D02*
X2927205Y-8566674D01*
X2927205Y-8566674D02*
X2927205Y-8614293D01*
X2927205Y-8614293D02*
X2917682Y-8652389D01*
X2917682Y-8652389D02*
X2908158Y-8671436D01*
X2908158Y-8671436D02*
X2898634Y-8680960D01*
X2898634Y-8680960D02*
X2879586Y-8690484D01*
X2879586Y-8690484D02*
X2860539Y-8690484D01*
X2860539Y-8690484D02*
X2841491Y-8680960D01*
X2841491Y-8680960D02*
X2831967Y-8671436D01*
X2831967Y-8671436D02*
X2822443Y-8652389D01*
X2822443Y-8652389D02*
X2812920Y-8614293D01*
X2812920Y-8614293D02*
X2812920Y-8566674D01*
X2812920Y-8566674D02*
X2822443Y-8528579D01*
X2822443Y-8528579D02*
X2831967Y-8509531D01*
X2831967Y-8509531D02*
X2841491Y-8500008D01*
X2841491Y-8500008D02*
X2860539Y-8490484D01*
X3012920Y-8690484D02*
X3012920Y-8557150D01*
X3012920Y-8576198D02*
X3022443Y-8566674D01*
X3022443Y-8566674D02*
X3041491Y-8557150D01*
X3041491Y-8557150D02*
X3070063Y-8557150D01*
X3070063Y-8557150D02*
X3089110Y-8566674D01*
X3089110Y-8566674D02*
X3098634Y-8585722D01*
X3098634Y-8585722D02*
X3098634Y-8690484D01*
X3098634Y-8585722D02*
X3108158Y-8566674D01*
X3108158Y-8566674D02*
X3127205Y-8557150D01*
X3127205Y-8557150D02*
X3155777Y-8557150D01*
X3155777Y-8557150D02*
X3174824Y-8566674D01*
X3174824Y-8566674D02*
X3184348Y-8585722D01*
X3184348Y-8585722D02*
X3184348Y-8690484D01*
X3279586Y-8690484D02*
X3279586Y-8557150D01*
X3279586Y-8576198D02*
X3289110Y-8566674D01*
X3289110Y-8566674D02*
X3308158Y-8557150D01*
X3308158Y-8557150D02*
X3336729Y-8557150D01*
X3336729Y-8557150D02*
X3355777Y-8566674D01*
X3355777Y-8566674D02*
X3365301Y-8585722D01*
X3365301Y-8585722D02*
X3365301Y-8690484D01*
X3365301Y-8585722D02*
X3374824Y-8566674D01*
X3374824Y-8566674D02*
X3393872Y-8557150D01*
X3393872Y-8557150D02*
X3422443Y-8557150D01*
X3422443Y-8557150D02*
X3441491Y-8566674D01*
X3441491Y-8566674D02*
X3451015Y-8585722D01*
X3451015Y-8585722D02*
X3451015Y-8690484D01*
X3841491Y-8480960D02*
X3670063Y-8738103D01*
X4098634Y-8490484D02*
X4117682Y-8490484D01*
X4117682Y-8490484D02*
X4136729Y-8500008D01*
X4136729Y-8500008D02*
X4146253Y-8509531D01*
X4146253Y-8509531D02*
X4155777Y-8528579D01*
X4155777Y-8528579D02*
X4165301Y-8566674D01*
X4165301Y-8566674D02*
X4165301Y-8614293D01*
X4165301Y-8614293D02*
X4155777Y-8652389D01*
X4155777Y-8652389D02*
X4146253Y-8671436D01*
X4146253Y-8671436D02*
X4136729Y-8680960D01*
X4136729Y-8680960D02*
X4117682Y-8690484D01*
X4117682Y-8690484D02*
X4098634Y-8690484D01*
X4098634Y-8690484D02*
X4079586Y-8680960D01*
X4079586Y-8680960D02*
X4070063Y-8671436D01*
X4070063Y-8671436D02*
X4060539Y-8652389D01*
X4060539Y-8652389D02*
X4051015Y-8614293D01*
X4051015Y-8614293D02*
X4051015Y-8566674D01*
X4051015Y-8566674D02*
X4060539Y-8528579D01*
X4060539Y-8528579D02*
X4070063Y-8509531D01*
X4070063Y-8509531D02*
X4079586Y-8500008D01*
X4079586Y-8500008D02*
X4098634Y-8490484D01*
X4251015Y-8671436D02*
X4260539Y-8680960D01*
X4260539Y-8680960D02*
X4251015Y-8690484D01*
X4251015Y-8690484D02*
X4241491Y-8680960D01*
X4241491Y-8680960D02*
X4251015Y-8671436D01*
X4251015Y-8671436D02*
X4251015Y-8690484D01*
X4451015Y-8690484D02*
X4336729Y-8690484D01*
X4393872Y-8690484D02*
X4393872Y-8490484D01*
X4393872Y-8490484D02*
X4374825Y-8519055D01*
X4374825Y-8519055D02*
X4355777Y-8538103D01*
X4355777Y-8538103D02*
X4336729Y-8547627D01*
X4527206Y-8509531D02*
X4536729Y-8500008D01*
X4536729Y-8500008D02*
X4555777Y-8490484D01*
X4555777Y-8490484D02*
X4603396Y-8490484D01*
X4603396Y-8490484D02*
X4622444Y-8500008D01*
X4622444Y-8500008D02*
X4631968Y-8509531D01*
X4631968Y-8509531D02*
X4641491Y-8528579D01*
X4641491Y-8528579D02*
X4641491Y-8547627D01*
X4641491Y-8547627D02*
X4631968Y-8576198D01*
X4631968Y-8576198D02*
X4517682Y-8690484D01*
X4517682Y-8690484D02*
X4641491Y-8690484D01*
X4812920Y-8490484D02*
X4774825Y-8490484D01*
X4774825Y-8490484D02*
X4755777Y-8500008D01*
X4755777Y-8500008D02*
X4746253Y-8509531D01*
X4746253Y-8509531D02*
X4727206Y-8538103D01*
X4727206Y-8538103D02*
X4717682Y-8576198D01*
X4717682Y-8576198D02*
X4717682Y-8652389D01*
X4717682Y-8652389D02*
X4727206Y-8671436D01*
X4727206Y-8671436D02*
X4736729Y-8680960D01*
X4736729Y-8680960D02*
X4755777Y-8690484D01*
X4755777Y-8690484D02*
X4793872Y-8690484D01*
X4793872Y-8690484D02*
X4812920Y-8680960D01*
X4812920Y-8680960D02*
X4822444Y-8671436D01*
X4822444Y-8671436D02*
X4831968Y-8652389D01*
X4831968Y-8652389D02*
X4831968Y-8604770D01*
X4831968Y-8604770D02*
X4822444Y-8585722D01*
X4822444Y-8585722D02*
X4812920Y-8576198D01*
X4812920Y-8576198D02*
X4793872Y-8566674D01*
X4793872Y-8566674D02*
X4755777Y-8566674D01*
X4755777Y-8566674D02*
X4736729Y-8576198D01*
X4736729Y-8576198D02*
X4727206Y-8585722D01*
X4727206Y-8585722D02*
X4717682Y-8604770D01*
X4955777Y-8490484D02*
X4974825Y-8490484D01*
X4974825Y-8490484D02*
X4993872Y-8500008D01*
X4993872Y-8500008D02*
X5003396Y-8509531D01*
X5003396Y-8509531D02*
X5012920Y-8528579D01*
X5012920Y-8528579D02*
X5022444Y-8566674D01*
X5022444Y-8566674D02*
X5022444Y-8614293D01*
X5022444Y-8614293D02*
X5012920Y-8652389D01*
X5012920Y-8652389D02*
X5003396Y-8671436D01*
X5003396Y-8671436D02*
X4993872Y-8680960D01*
X4993872Y-8680960D02*
X4974825Y-8690484D01*
X4974825Y-8690484D02*
X4955777Y-8690484D01*
X4955777Y-8690484D02*
X4936729Y-8680960D01*
X4936729Y-8680960D02*
X4927206Y-8671436D01*
X4927206Y-8671436D02*
X4917682Y-8652389D01*
X4917682Y-8652389D02*
X4908158Y-8614293D01*
X4908158Y-8614293D02*
X4908158Y-8566674D01*
X4908158Y-8566674D02*
X4917682Y-8528579D01*
X4917682Y-8528579D02*
X4927206Y-8509531D01*
X4927206Y-8509531D02*
X4936729Y-8500008D01*
X4936729Y-8500008D02*
X4955777Y-8490484D01*
X5098634Y-8490484D02*
X5098634Y-8528579D01*
X5174825Y-8490484D02*
X5174825Y-8528579D01*
X5470063Y-8766674D02*
X5460539Y-8757150D01*
X5460539Y-8757150D02*
X5441491Y-8728579D01*
X5441491Y-8728579D02*
X5431968Y-8709531D01*
X5431968Y-8709531D02*
X5422444Y-8680960D01*
X5422444Y-8680960D02*
X5412920Y-8633341D01*
X5412920Y-8633341D02*
X5412920Y-8595246D01*
X5412920Y-8595246D02*
X5422444Y-8547627D01*
X5422444Y-8547627D02*
X5431968Y-8519055D01*
X5431968Y-8519055D02*
X5441491Y-8500008D01*
X5441491Y-8500008D02*
X5460539Y-8471436D01*
X5460539Y-8471436D02*
X5470063Y-8461912D01*
X5631968Y-8557150D02*
X5631968Y-8690484D01*
X5584349Y-8480960D02*
X5536730Y-8623817D01*
X5536730Y-8623817D02*
X5660539Y-8623817D01*
X5889110Y-8690484D02*
X5889110Y-8490484D01*
X5974825Y-8690484D02*
X5974825Y-8585722D01*
X5974825Y-8585722D02*
X5965301Y-8566674D01*
X5965301Y-8566674D02*
X5946253Y-8557150D01*
X5946253Y-8557150D02*
X5917682Y-8557150D01*
X5917682Y-8557150D02*
X5898634Y-8566674D01*
X5898634Y-8566674D02*
X5889110Y-8576198D01*
X6098634Y-8690484D02*
X6079587Y-8680960D01*
X6079587Y-8680960D02*
X6070063Y-8671436D01*
X6070063Y-8671436D02*
X6060539Y-8652389D01*
X6060539Y-8652389D02*
X6060539Y-8595246D01*
X6060539Y-8595246D02*
X6070063Y-8576198D01*
X6070063Y-8576198D02*
X6079587Y-8566674D01*
X6079587Y-8566674D02*
X6098634Y-8557150D01*
X6098634Y-8557150D02*
X6127206Y-8557150D01*
X6127206Y-8557150D02*
X6146253Y-8566674D01*
X6146253Y-8566674D02*
X6155777Y-8576198D01*
X6155777Y-8576198D02*
X6165301Y-8595246D01*
X6165301Y-8595246D02*
X6165301Y-8652389D01*
X6165301Y-8652389D02*
X6155777Y-8671436D01*
X6155777Y-8671436D02*
X6146253Y-8680960D01*
X6146253Y-8680960D02*
X6127206Y-8690484D01*
X6127206Y-8690484D02*
X6098634Y-8690484D01*
X6279587Y-8690484D02*
X6260539Y-8680960D01*
X6260539Y-8680960D02*
X6251015Y-8661912D01*
X6251015Y-8661912D02*
X6251015Y-8490484D01*
X6431968Y-8680960D02*
X6412920Y-8690484D01*
X6412920Y-8690484D02*
X6374825Y-8690484D01*
X6374825Y-8690484D02*
X6355777Y-8680960D01*
X6355777Y-8680960D02*
X6346253Y-8661912D01*
X6346253Y-8661912D02*
X6346253Y-8585722D01*
X6346253Y-8585722D02*
X6355777Y-8566674D01*
X6355777Y-8566674D02*
X6374825Y-8557150D01*
X6374825Y-8557150D02*
X6412920Y-8557150D01*
X6412920Y-8557150D02*
X6431968Y-8566674D01*
X6431968Y-8566674D02*
X6441491Y-8585722D01*
X6441491Y-8585722D02*
X6441491Y-8604770D01*
X6441491Y-8604770D02*
X6346253Y-8623817D01*
X6517682Y-8680960D02*
X6536730Y-8690484D01*
X6536730Y-8690484D02*
X6574825Y-8690484D01*
X6574825Y-8690484D02*
X6593872Y-8680960D01*
X6593872Y-8680960D02*
X6603396Y-8661912D01*
X6603396Y-8661912D02*
X6603396Y-8652389D01*
X6603396Y-8652389D02*
X6593872Y-8633341D01*
X6593872Y-8633341D02*
X6574825Y-8623817D01*
X6574825Y-8623817D02*
X6546253Y-8623817D01*
X6546253Y-8623817D02*
X6527206Y-8614293D01*
X6527206Y-8614293D02*
X6517682Y-8595246D01*
X6517682Y-8595246D02*
X6517682Y-8585722D01*
X6517682Y-8585722D02*
X6527206Y-8566674D01*
X6527206Y-8566674D02*
X6546253Y-8557150D01*
X6546253Y-8557150D02*
X6574825Y-8557150D01*
X6574825Y-8557150D02*
X6593872Y-8566674D01*
X6670063Y-8766674D02*
X6679587Y-8757150D01*
X6679587Y-8757150D02*
X6698634Y-8728579D01*
X6698634Y-8728579D02*
X6708158Y-8709531D01*
X6708158Y-8709531D02*
X6717682Y-8680960D01*
X6717682Y-8680960D02*
X6727206Y-8633341D01*
X6727206Y-8633341D02*
X6727206Y-8595246D01*
X6727206Y-8595246D02*
X6717682Y-8547627D01*
X6717682Y-8547627D02*
X6708158Y-8519055D01*
X6708158Y-8519055D02*
X6698634Y-8500008D01*
X6698634Y-8500008D02*
X6679587Y-8471436D01*
X6679587Y-8471436D02*
X6670063Y-8461912D01*
M02*
