%TF.GenerationSoftware,KiCad,Pcbnew,7.0.10*%
%TF.CreationDate,2024-02-05T17:12:21+01:00*%
%TF.ProjectId,led-driver-board-4gang,6c65642d-6472-4697-9665-722d626f6172,rev?*%
%TF.SameCoordinates,Original*%
%TF.FileFunction,Legend,Top*%
%TF.FilePolarity,Positive*%
%FSLAX46Y46*%
G04 Gerber Fmt 4.6, Leading zero omitted, Abs format (unit mm)*
G04 Created by KiCad (PCBNEW 7.0.10) date 2024-02-05 17:12:21*
%MOMM*%
%LPD*%
G01*
G04 APERTURE LIST*
%ADD10C,0.120000*%
G04 APERTURE END LIST*
D10*
%TO.C,J10*%
X22275000Y-33700000D02*
X22275000Y-34450000D01*
X22275000Y-34450000D02*
X25225000Y-34450000D01*
X25225000Y-34450000D02*
X25225000Y-37500000D01*
X22275000Y-40550000D02*
X25225000Y-40550000D01*
X20025000Y-37000000D02*
X20025000Y-38000000D01*
X20025000Y-38000000D02*
X20775000Y-38000000D01*
X20775000Y-38000000D02*
X20775000Y-37000000D01*
X20775000Y-35500000D02*
X20775000Y-33700000D01*
X20025000Y-33700000D02*
X20025000Y-35500000D01*
X19725000Y-41600000D02*
X20975000Y-41600000D01*
X20015000Y-41310000D02*
X25985000Y-41310000D01*
X20025000Y-41300000D02*
X20775000Y-41300000D01*
X25985000Y-41310000D02*
X25985000Y-33690000D01*
X20775000Y-37000000D02*
X20025000Y-37000000D01*
X22275000Y-41300000D02*
X22275000Y-40550000D01*
X20775000Y-41300000D02*
X20775000Y-39500000D01*
X19725000Y-40350000D02*
X19725000Y-41600000D01*
X20775000Y-33700000D02*
X20025000Y-33700000D01*
X20025000Y-39500000D02*
X20025000Y-41300000D01*
X20015000Y-33690000D02*
X20015000Y-41310000D01*
X25225000Y-40550000D02*
X25225000Y-37500000D01*
X20025000Y-35500000D02*
X20775000Y-35500000D01*
X25985000Y-33690000D02*
X20015000Y-33690000D01*
X20775000Y-39500000D02*
X20025000Y-39500000D01*
%TO.C,R8*%
X43265000Y-61227064D02*
X43265000Y-60772936D01*
X44735000Y-61227064D02*
X44735000Y-60772936D01*
%TO.C,R7*%
X38735000Y-60772936D02*
X38735000Y-61227064D01*
X37265000Y-60772936D02*
X37265000Y-61227064D01*
%TO.C,R6*%
X43265000Y-54227064D02*
X43265000Y-53772936D01*
X44735000Y-54227064D02*
X44735000Y-53772936D01*
%TO.C,R5*%
X38735000Y-53772936D02*
X38735000Y-54227064D01*
X37265000Y-53772936D02*
X37265000Y-54227064D01*
%TO.C,R4*%
X43265000Y-47227064D02*
X43265000Y-46772936D01*
X44735000Y-47227064D02*
X44735000Y-46772936D01*
%TO.C,R3*%
X38735000Y-46772936D02*
X38735000Y-47227064D01*
X37265000Y-46772936D02*
X37265000Y-47227064D01*
%TO.C,R2*%
X43265000Y-40227064D02*
X43265000Y-39772936D01*
X44735000Y-40227064D02*
X44735000Y-39772936D01*
%TO.C,R1*%
X37265000Y-39772936D02*
X37265000Y-40227064D01*
X38735000Y-39772936D02*
X38735000Y-40227064D01*
%TO.C,Q4*%
X41000000Y-59440000D02*
X41650000Y-59440000D01*
X41000000Y-62560000D02*
X41650000Y-62560000D01*
X41000000Y-59440000D02*
X39325000Y-59440000D01*
X41000000Y-62560000D02*
X40350000Y-62560000D01*
%TO.C,Q3*%
X41000000Y-52440000D02*
X41650000Y-52440000D01*
X41000000Y-55560000D02*
X41650000Y-55560000D01*
X41000000Y-52440000D02*
X39325000Y-52440000D01*
X41000000Y-55560000D02*
X40350000Y-55560000D01*
%TO.C,Q2*%
X41000000Y-45440000D02*
X41650000Y-45440000D01*
X41000000Y-48560000D02*
X41650000Y-48560000D01*
X41000000Y-45440000D02*
X39325000Y-45440000D01*
X41000000Y-48560000D02*
X40350000Y-48560000D01*
%TO.C,Q1*%
X41000000Y-38440000D02*
X41650000Y-38440000D01*
X41000000Y-41560000D02*
X41650000Y-41560000D01*
X41000000Y-38440000D02*
X39325000Y-38440000D01*
X41000000Y-41560000D02*
X40350000Y-41560000D01*
%TO.C,J9*%
X56060000Y-26040000D02*
X45940000Y-26040000D01*
X56300000Y-25800000D02*
X55800000Y-25800000D01*
X56060000Y-26600000D02*
X45940000Y-26600000D01*
X56060000Y-36360000D02*
X45940000Y-36360000D01*
X56060000Y-27700000D02*
X45940000Y-27700000D01*
X56300000Y-26540000D02*
X56300000Y-25800000D01*
X56060000Y-36360000D02*
X56060000Y-26040000D01*
X45940000Y-36360000D02*
X45940000Y-26040000D01*
X52068000Y-30892000D02*
G75*
G03*
X52067891Y-32107742I1432003J-607999D01*
G01*
X54108000Y-30068001D02*
G75*
G03*
X53472989Y-29944508I-607998J-1431987D01*
G01*
X52892000Y-32932000D02*
G75*
G03*
X54107742Y-32932109I608000J1432000D01*
G01*
X53500000Y-29945001D02*
G75*
G03*
X52892413Y-30068616I0J-1554999D01*
G01*
X54932000Y-32108000D02*
G75*
G03*
X54932109Y-30892258I-1432000J608000D01*
G01*
X50055000Y-31500000D02*
G75*
G03*
X46945000Y-31500000I-1555000J0D01*
G01*
X46945000Y-31500000D02*
G75*
G03*
X50055000Y-31500000I1555000J0D01*
G01*
%TO.C,J8*%
X35050000Y-60800000D02*
X34300000Y-60800000D01*
X34300000Y-60800000D02*
X34300000Y-63750000D01*
X34300000Y-63750000D02*
X31250000Y-63750000D01*
X28200000Y-60800000D02*
X28200000Y-63750000D01*
X31750000Y-58550000D02*
X30750000Y-58550000D01*
X30750000Y-58550000D02*
X30750000Y-59300000D01*
X30750000Y-59300000D02*
X31750000Y-59300000D01*
X33250000Y-59300000D02*
X35050000Y-59300000D01*
X35050000Y-58550000D02*
X33250000Y-58550000D01*
X27150000Y-58250000D02*
X27150000Y-59500000D01*
X27440000Y-58540000D02*
X27440000Y-64510000D01*
X27450000Y-58550000D02*
X27450000Y-59300000D01*
X27440000Y-64510000D02*
X35060000Y-64510000D01*
X31750000Y-59300000D02*
X31750000Y-58550000D01*
X27450000Y-60800000D02*
X28200000Y-60800000D01*
X27450000Y-59300000D02*
X29250000Y-59300000D01*
X28400000Y-58250000D02*
X27150000Y-58250000D01*
X35050000Y-59300000D02*
X35050000Y-58550000D01*
X29250000Y-58550000D02*
X27450000Y-58550000D01*
X35060000Y-58540000D02*
X27440000Y-58540000D01*
X28200000Y-63750000D02*
X31250000Y-63750000D01*
X33250000Y-58550000D02*
X33250000Y-59300000D01*
X35060000Y-64510000D02*
X35060000Y-58540000D01*
X29250000Y-59300000D02*
X29250000Y-58550000D01*
%TO.C,J7*%
X35050000Y-53800000D02*
X34300000Y-53800000D01*
X34300000Y-53800000D02*
X34300000Y-56750000D01*
X34300000Y-56750000D02*
X31250000Y-56750000D01*
X28200000Y-53800000D02*
X28200000Y-56750000D01*
X31750000Y-51550000D02*
X30750000Y-51550000D01*
X30750000Y-51550000D02*
X30750000Y-52300000D01*
X30750000Y-52300000D02*
X31750000Y-52300000D01*
X33250000Y-52300000D02*
X35050000Y-52300000D01*
X35050000Y-51550000D02*
X33250000Y-51550000D01*
X27150000Y-51250000D02*
X27150000Y-52500000D01*
X27440000Y-51540000D02*
X27440000Y-57510000D01*
X27450000Y-51550000D02*
X27450000Y-52300000D01*
X27440000Y-57510000D02*
X35060000Y-57510000D01*
X31750000Y-52300000D02*
X31750000Y-51550000D01*
X27450000Y-53800000D02*
X28200000Y-53800000D01*
X27450000Y-52300000D02*
X29250000Y-52300000D01*
X28400000Y-51250000D02*
X27150000Y-51250000D01*
X35050000Y-52300000D02*
X35050000Y-51550000D01*
X29250000Y-51550000D02*
X27450000Y-51550000D01*
X35060000Y-51540000D02*
X27440000Y-51540000D01*
X28200000Y-56750000D02*
X31250000Y-56750000D01*
X33250000Y-51550000D02*
X33250000Y-52300000D01*
X35060000Y-57510000D02*
X35060000Y-51540000D01*
X29250000Y-52300000D02*
X29250000Y-51550000D01*
%TO.C,J6*%
X35050000Y-46800000D02*
X34300000Y-46800000D01*
X34300000Y-46800000D02*
X34300000Y-49750000D01*
X34300000Y-49750000D02*
X31250000Y-49750000D01*
X28200000Y-46800000D02*
X28200000Y-49750000D01*
X31750000Y-44550000D02*
X30750000Y-44550000D01*
X30750000Y-44550000D02*
X30750000Y-45300000D01*
X30750000Y-45300000D02*
X31750000Y-45300000D01*
X33250000Y-45300000D02*
X35050000Y-45300000D01*
X35050000Y-44550000D02*
X33250000Y-44550000D01*
X27150000Y-44250000D02*
X27150000Y-45500000D01*
X27440000Y-44540000D02*
X27440000Y-50510000D01*
X27450000Y-44550000D02*
X27450000Y-45300000D01*
X27440000Y-50510000D02*
X35060000Y-50510000D01*
X31750000Y-45300000D02*
X31750000Y-44550000D01*
X27450000Y-46800000D02*
X28200000Y-46800000D01*
X27450000Y-45300000D02*
X29250000Y-45300000D01*
X28400000Y-44250000D02*
X27150000Y-44250000D01*
X35050000Y-45300000D02*
X35050000Y-44550000D01*
X29250000Y-44550000D02*
X27450000Y-44550000D01*
X35060000Y-44540000D02*
X27440000Y-44540000D01*
X28200000Y-49750000D02*
X31250000Y-49750000D01*
X33250000Y-44550000D02*
X33250000Y-45300000D01*
X35060000Y-50510000D02*
X35060000Y-44540000D01*
X29250000Y-45300000D02*
X29250000Y-44550000D01*
%TO.C,J5*%
X35050000Y-39800000D02*
X34300000Y-39800000D01*
X34300000Y-39800000D02*
X34300000Y-42750000D01*
X34300000Y-42750000D02*
X31250000Y-42750000D01*
X28200000Y-39800000D02*
X28200000Y-42750000D01*
X31750000Y-37550000D02*
X30750000Y-37550000D01*
X30750000Y-37550000D02*
X30750000Y-38300000D01*
X30750000Y-38300000D02*
X31750000Y-38300000D01*
X33250000Y-38300000D02*
X35050000Y-38300000D01*
X35050000Y-37550000D02*
X33250000Y-37550000D01*
X27150000Y-37250000D02*
X27150000Y-38500000D01*
X27440000Y-37540000D02*
X27440000Y-43510000D01*
X27450000Y-37550000D02*
X27450000Y-38300000D01*
X27440000Y-43510000D02*
X35060000Y-43510000D01*
X31750000Y-38300000D02*
X31750000Y-37550000D01*
X27450000Y-39800000D02*
X28200000Y-39800000D01*
X27450000Y-38300000D02*
X29250000Y-38300000D01*
X28400000Y-37250000D02*
X27150000Y-37250000D01*
X35050000Y-38300000D02*
X35050000Y-37550000D01*
X29250000Y-37550000D02*
X27450000Y-37550000D01*
X35060000Y-37540000D02*
X27440000Y-37540000D01*
X28200000Y-42750000D02*
X31250000Y-42750000D01*
X33250000Y-37550000D02*
X33250000Y-38300000D01*
X35060000Y-43510000D02*
X35060000Y-37540000D01*
X29250000Y-38300000D02*
X29250000Y-37550000D01*
%TO.C,J4*%
X55300000Y-63750000D02*
X51000000Y-63750000D01*
X56050000Y-58550000D02*
X54250000Y-58550000D01*
X47750000Y-58550000D02*
X45950000Y-58550000D01*
X54250000Y-58550000D02*
X54250000Y-59300000D01*
X56050000Y-60800000D02*
X55300000Y-60800000D01*
X55300000Y-60800000D02*
X55300000Y-63750000D01*
X52750000Y-58550000D02*
X49250000Y-58550000D01*
X56050000Y-59300000D02*
X56050000Y-58550000D01*
X46900000Y-58250000D02*
X45650000Y-58250000D01*
X56060000Y-58540000D02*
X45940000Y-58540000D01*
X45950000Y-58550000D02*
X45950000Y-59300000D01*
X46700000Y-63750000D02*
X51000000Y-63750000D01*
X52750000Y-59300000D02*
X52750000Y-58550000D01*
X45940000Y-58540000D02*
X45940000Y-64510000D01*
X45950000Y-60800000D02*
X46700000Y-60800000D01*
X46700000Y-60800000D02*
X46700000Y-63750000D01*
X54250000Y-59300000D02*
X56050000Y-59300000D01*
X47750000Y-59300000D02*
X47750000Y-58550000D01*
X49250000Y-58550000D02*
X49250000Y-59300000D01*
X56060000Y-64510000D02*
X56060000Y-58540000D01*
X45950000Y-59300000D02*
X47750000Y-59300000D01*
X49250000Y-59300000D02*
X52750000Y-59300000D01*
X45940000Y-64510000D02*
X56060000Y-64510000D01*
X45650000Y-58250000D02*
X45650000Y-59500000D01*
%TO.C,J3*%
X55300000Y-56750000D02*
X51000000Y-56750000D01*
X56050000Y-51550000D02*
X54250000Y-51550000D01*
X47750000Y-51550000D02*
X45950000Y-51550000D01*
X54250000Y-51550000D02*
X54250000Y-52300000D01*
X56050000Y-53800000D02*
X55300000Y-53800000D01*
X55300000Y-53800000D02*
X55300000Y-56750000D01*
X52750000Y-51550000D02*
X49250000Y-51550000D01*
X56050000Y-52300000D02*
X56050000Y-51550000D01*
X46900000Y-51250000D02*
X45650000Y-51250000D01*
X56060000Y-51540000D02*
X45940000Y-51540000D01*
X45950000Y-51550000D02*
X45950000Y-52300000D01*
X46700000Y-56750000D02*
X51000000Y-56750000D01*
X52750000Y-52300000D02*
X52750000Y-51550000D01*
X45940000Y-51540000D02*
X45940000Y-57510000D01*
X45950000Y-53800000D02*
X46700000Y-53800000D01*
X46700000Y-53800000D02*
X46700000Y-56750000D01*
X54250000Y-52300000D02*
X56050000Y-52300000D01*
X47750000Y-52300000D02*
X47750000Y-51550000D01*
X49250000Y-51550000D02*
X49250000Y-52300000D01*
X56060000Y-57510000D02*
X56060000Y-51540000D01*
X45950000Y-52300000D02*
X47750000Y-52300000D01*
X49250000Y-52300000D02*
X52750000Y-52300000D01*
X45940000Y-57510000D02*
X56060000Y-57510000D01*
X45650000Y-51250000D02*
X45650000Y-52500000D01*
%TO.C,J2*%
X55300000Y-49750000D02*
X51000000Y-49750000D01*
X56050000Y-44550000D02*
X54250000Y-44550000D01*
X47750000Y-44550000D02*
X45950000Y-44550000D01*
X54250000Y-44550000D02*
X54250000Y-45300000D01*
X56050000Y-46800000D02*
X55300000Y-46800000D01*
X55300000Y-46800000D02*
X55300000Y-49750000D01*
X52750000Y-44550000D02*
X49250000Y-44550000D01*
X56050000Y-45300000D02*
X56050000Y-44550000D01*
X46900000Y-44250000D02*
X45650000Y-44250000D01*
X56060000Y-44540000D02*
X45940000Y-44540000D01*
X45950000Y-44550000D02*
X45950000Y-45300000D01*
X46700000Y-49750000D02*
X51000000Y-49750000D01*
X52750000Y-45300000D02*
X52750000Y-44550000D01*
X45940000Y-44540000D02*
X45940000Y-50510000D01*
X45950000Y-46800000D02*
X46700000Y-46800000D01*
X46700000Y-46800000D02*
X46700000Y-49750000D01*
X54250000Y-45300000D02*
X56050000Y-45300000D01*
X47750000Y-45300000D02*
X47750000Y-44550000D01*
X49250000Y-44550000D02*
X49250000Y-45300000D01*
X56060000Y-50510000D02*
X56060000Y-44540000D01*
X45950000Y-45300000D02*
X47750000Y-45300000D01*
X49250000Y-45300000D02*
X52750000Y-45300000D01*
X45940000Y-50510000D02*
X56060000Y-50510000D01*
X45650000Y-44250000D02*
X45650000Y-45500000D01*
%TO.C,J1*%
X55300000Y-42750000D02*
X51000000Y-42750000D01*
X56050000Y-37550000D02*
X54250000Y-37550000D01*
X47750000Y-37550000D02*
X45950000Y-37550000D01*
X54250000Y-37550000D02*
X54250000Y-38300000D01*
X56050000Y-39800000D02*
X55300000Y-39800000D01*
X55300000Y-39800000D02*
X55300000Y-42750000D01*
X52750000Y-37550000D02*
X49250000Y-37550000D01*
X56050000Y-38300000D02*
X56050000Y-37550000D01*
X46900000Y-37250000D02*
X45650000Y-37250000D01*
X56060000Y-37540000D02*
X45940000Y-37540000D01*
X45950000Y-37550000D02*
X45950000Y-38300000D01*
X46700000Y-42750000D02*
X51000000Y-42750000D01*
X52750000Y-38300000D02*
X52750000Y-37550000D01*
X45940000Y-37540000D02*
X45940000Y-43510000D01*
X45950000Y-39800000D02*
X46700000Y-39800000D01*
X46700000Y-39800000D02*
X46700000Y-42750000D01*
X54250000Y-38300000D02*
X56050000Y-38300000D01*
X47750000Y-38300000D02*
X47750000Y-37550000D01*
X49250000Y-37550000D02*
X49250000Y-38300000D01*
X56060000Y-43510000D02*
X56060000Y-37540000D01*
X45950000Y-38300000D02*
X47750000Y-38300000D01*
X49250000Y-38300000D02*
X52750000Y-38300000D01*
X45940000Y-43510000D02*
X56060000Y-43510000D01*
X45650000Y-37250000D02*
X45650000Y-38500000D01*
%TO.C,F1*%
X27190000Y-33170000D02*
X43390000Y-33170000D01*
X34540000Y-29700000D02*
X36040000Y-29700000D01*
X43390000Y-26230000D02*
X27190000Y-26230000D01*
X27190000Y-26230000D02*
X27190000Y-33170000D01*
X36890000Y-31700000D02*
X33690000Y-31700000D01*
X33690000Y-27700000D02*
X36890000Y-27700000D01*
X43390000Y-33170000D02*
X43390000Y-26230000D01*
%TD*%
M02*
