%TF.GenerationSoftware,KiCad,Pcbnew,7.0.10*%
%TF.CreationDate,2024-02-05T17:12:21+01:00*%
%TF.ProjectId,led-driver-board-4gang,6c65642d-6472-4697-9665-722d626f6172,rev?*%
%TF.SameCoordinates,Original*%
%TF.FileFunction,Copper,L2,Bot*%
%TF.FilePolarity,Positive*%
%FSLAX46Y46*%
G04 Gerber Fmt 4.6, Leading zero omitted, Abs format (unit mm)*
G04 Created by KiCad (PCBNEW 7.0.10) date 2024-02-05 17:12:21*
%MOMM*%
%LPD*%
G01*
G04 APERTURE LIST*
G04 Aperture macros list*
%AMRoundRect*
0 Rectangle with rounded corners*
0 $1 Rounding radius*
0 $2 $3 $4 $5 $6 $7 $8 $9 X,Y pos of 4 corners*
0 Add a 4 corners polygon primitive as box body*
4,1,4,$2,$3,$4,$5,$6,$7,$8,$9,$2,$3,0*
0 Add four circle primitives for the rounded corners*
1,1,$1+$1,$2,$3*
1,1,$1+$1,$4,$5*
1,1,$1+$1,$6,$7*
1,1,$1+$1,$8,$9*
0 Add four rect primitives between the rounded corners*
20,1,$1+$1,$2,$3,$4,$5,0*
20,1,$1+$1,$4,$5,$6,$7,0*
20,1,$1+$1,$6,$7,$8,$9,0*
20,1,$1+$1,$8,$9,$2,$3,0*%
G04 Aperture macros list end*
%TA.AperFunction,ComponentPad*%
%ADD10RoundRect,0.250000X0.750000X-0.600000X0.750000X0.600000X-0.750000X0.600000X-0.750000X-0.600000X0*%
%TD*%
%TA.AperFunction,ComponentPad*%
%ADD11O,2.000000X1.700000*%
%TD*%
%TA.AperFunction,ComponentPad*%
%ADD12C,0.800000*%
%TD*%
%TA.AperFunction,ComponentPad*%
%ADD13C,6.400000*%
%TD*%
%TA.AperFunction,ComponentPad*%
%ADD14R,2.400000X2.400000*%
%TD*%
%TA.AperFunction,ComponentPad*%
%ADD15C,2.400000*%
%TD*%
%TA.AperFunction,ComponentPad*%
%ADD16RoundRect,0.250000X-0.600000X-0.750000X0.600000X-0.750000X0.600000X0.750000X-0.600000X0.750000X0*%
%TD*%
%TA.AperFunction,ComponentPad*%
%ADD17O,1.700000X2.000000*%
%TD*%
%TA.AperFunction,ComponentPad*%
%ADD18RoundRect,0.250000X-0.600000X-0.725000X0.600000X-0.725000X0.600000X0.725000X-0.600000X0.725000X0*%
%TD*%
%TA.AperFunction,ComponentPad*%
%ADD19O,1.700000X1.950000*%
%TD*%
%TA.AperFunction,ComponentPad*%
%ADD20C,2.780000*%
%TD*%
G04 APERTURE END LIST*
D10*
%TO.P,J10,1,Pin_1*%
%TO.N,GND*%
X22475000Y-38750000D03*
D11*
%TO.P,J10,2,Pin_2*%
%TO.N,+3V3*%
X22475000Y-36250000D03*
%TD*%
D12*
%TO.P,H4,1,1*%
%TO.N,GND*%
X58100000Y-62000000D03*
X58802944Y-60302944D03*
X58802944Y-63697056D03*
X60500000Y-59600000D03*
D13*
X60500000Y-62000000D03*
D12*
X60500000Y-64400000D03*
X62197056Y-60302944D03*
X62197056Y-63697056D03*
X62900000Y-62000000D03*
%TD*%
%TO.P,H3,1,1*%
%TO.N,GND*%
X20600000Y-62000000D03*
X21302944Y-60302944D03*
X21302944Y-63697056D03*
X23000000Y-59600000D03*
D13*
X23000000Y-62000000D03*
D12*
X23000000Y-64400000D03*
X24697056Y-60302944D03*
X24697056Y-63697056D03*
X25400000Y-62000000D03*
%TD*%
%TO.P,H2,1,1*%
%TO.N,GND*%
X58100000Y-29000000D03*
X58802944Y-27302944D03*
X58802944Y-30697056D03*
X60500000Y-26600000D03*
D13*
X60500000Y-29000000D03*
D12*
X60500000Y-31400000D03*
X62197056Y-27302944D03*
X62197056Y-30697056D03*
X62900000Y-29000000D03*
%TD*%
%TO.P,H1,1,1*%
%TO.N,GND*%
X20600000Y-29000000D03*
X21302944Y-27302944D03*
X21302944Y-30697056D03*
X23000000Y-26600000D03*
D13*
X23000000Y-29000000D03*
D12*
X23000000Y-31400000D03*
X24697056Y-27302944D03*
X24697056Y-30697056D03*
X25400000Y-29000000D03*
%TD*%
D14*
%TO.P,J9,1,Pin_1*%
%TO.N,GND*%
X53500000Y-31500000D03*
D15*
%TO.P,J9,2,Pin_2*%
%TO.N,/5V_UNFUSED*%
X48500000Y-31500000D03*
%TD*%
D16*
%TO.P,J8,1,Pin_1*%
%TO.N,GND*%
X30000000Y-61000000D03*
D17*
%TO.P,J8,2,Pin_2*%
%TO.N,LED3_IN*%
X32500000Y-61000000D03*
%TD*%
D16*
%TO.P,J7,1,Pin_1*%
%TO.N,GND*%
X30000000Y-54000000D03*
D17*
%TO.P,J7,2,Pin_2*%
%TO.N,LED2_IN*%
X32500000Y-54000000D03*
%TD*%
D16*
%TO.P,J6,1,Pin_1*%
%TO.N,GND*%
X30000000Y-47000000D03*
D17*
%TO.P,J6,2,Pin_2*%
%TO.N,LED1_IN*%
X32500000Y-47000000D03*
%TD*%
D16*
%TO.P,J5,1,Pin_1*%
%TO.N,GND*%
X30000000Y-40000000D03*
D17*
%TO.P,J5,2,Pin_2*%
%TO.N,LED0_IN*%
X32500000Y-40000000D03*
%TD*%
D18*
%TO.P,J4,1,Pin_1*%
%TO.N,GND*%
X48500000Y-61000000D03*
D19*
%TO.P,J4,2,Pin_2*%
%TO.N,+5V*%
X51000000Y-61000000D03*
%TO.P,J4,3,Pin_3*%
%TO.N,LED3_OUT*%
X53500000Y-61000000D03*
%TD*%
D18*
%TO.P,J3,1,Pin_1*%
%TO.N,GND*%
X48500000Y-54000000D03*
D19*
%TO.P,J3,2,Pin_2*%
%TO.N,+5V*%
X51000000Y-54000000D03*
%TO.P,J3,3,Pin_3*%
%TO.N,LED2_OUT*%
X53500000Y-54000000D03*
%TD*%
D18*
%TO.P,J2,1,Pin_1*%
%TO.N,GND*%
X48500000Y-47000000D03*
D19*
%TO.P,J2,2,Pin_2*%
%TO.N,+5V*%
X51000000Y-47000000D03*
%TO.P,J2,3,Pin_3*%
%TO.N,LED1_OUT*%
X53500000Y-47000000D03*
%TD*%
D18*
%TO.P,J1,1,Pin_1*%
%TO.N,GND*%
X48500000Y-40000000D03*
D19*
%TO.P,J1,2,Pin_2*%
%TO.N,+5V*%
X51000000Y-40000000D03*
%TO.P,J1,3,Pin_3*%
%TO.N,LED0_OUT*%
X53500000Y-40000000D03*
%TD*%
D20*
%TO.P,F1,1*%
%TO.N,+5V*%
X30330000Y-31400000D03*
X30330000Y-28000000D03*
%TO.P,F1,2*%
%TO.N,/5V_UNFUSED*%
X40250000Y-28000000D03*
X40250000Y-31400000D03*
%TD*%
%TA.AperFunction,Conductor*%
%TO.N,GND*%
G36*
X37628783Y-25020185D02*
G01*
X37674538Y-25072989D01*
X37684482Y-25142147D01*
X37673837Y-25177519D01*
X37652945Y-25221687D01*
X37652920Y-25221744D01*
X37643640Y-25244145D01*
X37643625Y-25244182D01*
X37610371Y-25337119D01*
X37560553Y-25501352D01*
X37560553Y-25501353D01*
X37536580Y-25597055D01*
X37531836Y-25620899D01*
X37517362Y-25718483D01*
X37517357Y-25718527D01*
X37499938Y-25895387D01*
X37496308Y-25944597D01*
X37495711Y-25956754D01*
X37495711Y-25956762D01*
X37494500Y-26006092D01*
X37494500Y-32743907D01*
X37494597Y-32747844D01*
X37495711Y-32793244D01*
X37496308Y-32805401D01*
X37499938Y-32854612D01*
X37517358Y-33031482D01*
X37517360Y-33031502D01*
X37531831Y-33129063D01*
X37531833Y-33129077D01*
X37536572Y-33152905D01*
X37548368Y-33199999D01*
X37560553Y-33248650D01*
X37610370Y-33412876D01*
X37643626Y-33505815D01*
X37652917Y-33528245D01*
X37652934Y-33528285D01*
X37695091Y-33617414D01*
X37695106Y-33617445D01*
X37695111Y-33617454D01*
X37775996Y-33768781D01*
X37776000Y-33768787D01*
X37826725Y-33853417D01*
X37840230Y-33873629D01*
X37899015Y-33952893D01*
X38007883Y-34085549D01*
X38074149Y-34158662D01*
X38091337Y-34175850D01*
X38164450Y-34242116D01*
X38297106Y-34350984D01*
X38376370Y-34409769D01*
X38396582Y-34423274D01*
X38481209Y-34473997D01*
X38481217Y-34474002D01*
X38531659Y-34500963D01*
X38632554Y-34554893D01*
X38632584Y-34554907D01*
X38721713Y-34597064D01*
X38721732Y-34597072D01*
X38744184Y-34606373D01*
X38744189Y-34606374D01*
X38744192Y-34606376D01*
X38837122Y-34639628D01*
X39001345Y-34689444D01*
X39097071Y-34713422D01*
X39097089Y-34713425D01*
X39097105Y-34713429D01*
X39101650Y-34714332D01*
X39120912Y-34718164D01*
X39218506Y-34732640D01*
X39395380Y-34750061D01*
X39444609Y-34753692D01*
X39456763Y-34754289D01*
X39506093Y-34755500D01*
X39506108Y-34755500D01*
X49493892Y-34755500D01*
X49493907Y-34755500D01*
X49543237Y-34754289D01*
X49555391Y-34753692D01*
X49604620Y-34750061D01*
X49781493Y-34732640D01*
X49879087Y-34718164D01*
X49902928Y-34713422D01*
X49998654Y-34689444D01*
X50162877Y-34639628D01*
X50255807Y-34606376D01*
X50278265Y-34597073D01*
X50278276Y-34597067D01*
X50278285Y-34597064D01*
X50314795Y-34579794D01*
X50367445Y-34554893D01*
X50518787Y-34473999D01*
X50603417Y-34423274D01*
X50623629Y-34409769D01*
X50702893Y-34350984D01*
X50835549Y-34242116D01*
X50908662Y-34175850D01*
X50925850Y-34158662D01*
X50992116Y-34085549D01*
X51100984Y-33952893D01*
X51159769Y-33873629D01*
X51173274Y-33853417D01*
X51223999Y-33768787D01*
X51304893Y-33617445D01*
X51347073Y-33528265D01*
X51356376Y-33505807D01*
X51389628Y-33412877D01*
X51439444Y-33248654D01*
X51463422Y-33152928D01*
X51468164Y-33129087D01*
X51482640Y-33031493D01*
X51500061Y-32854620D01*
X51503692Y-32805391D01*
X51504289Y-32793237D01*
X51505403Y-32747844D01*
X51800000Y-32747844D01*
X51806401Y-32807372D01*
X51806403Y-32807379D01*
X51856645Y-32942086D01*
X51856649Y-32942093D01*
X51942809Y-33057187D01*
X51942812Y-33057190D01*
X52057906Y-33143350D01*
X52057913Y-33143354D01*
X52192620Y-33193596D01*
X52192627Y-33193598D01*
X52252155Y-33199999D01*
X52252172Y-33200000D01*
X53250000Y-33200000D01*
X53250000Y-32045881D01*
X53343369Y-32084556D01*
X53460677Y-32100000D01*
X53539323Y-32100000D01*
X53656631Y-32084556D01*
X53750000Y-32045881D01*
X53750000Y-33200000D01*
X54747828Y-33200000D01*
X54747844Y-33199999D01*
X54807372Y-33193598D01*
X54807379Y-33193596D01*
X54942086Y-33143354D01*
X54942093Y-33143350D01*
X55057187Y-33057190D01*
X55057190Y-33057187D01*
X55143350Y-32942093D01*
X55143354Y-32942086D01*
X55193596Y-32807379D01*
X55193598Y-32807372D01*
X55199999Y-32747844D01*
X55200000Y-32747827D01*
X55200000Y-31750000D01*
X54045882Y-31750000D01*
X54084556Y-31656631D01*
X54105177Y-31500000D01*
X54084556Y-31343369D01*
X54045882Y-31250000D01*
X55200000Y-31250000D01*
X55200000Y-30252172D01*
X55199999Y-30252155D01*
X55193598Y-30192627D01*
X55193596Y-30192620D01*
X55143354Y-30057913D01*
X55143350Y-30057906D01*
X55057190Y-29942812D01*
X55057187Y-29942809D01*
X54942093Y-29856649D01*
X54942086Y-29856645D01*
X54807379Y-29806403D01*
X54807372Y-29806401D01*
X54747844Y-29800000D01*
X53750000Y-29800000D01*
X53750000Y-30954118D01*
X53656631Y-30915444D01*
X53539323Y-30900000D01*
X53460677Y-30900000D01*
X53343369Y-30915444D01*
X53250000Y-30954118D01*
X53250000Y-29800000D01*
X52252155Y-29800000D01*
X52192627Y-29806401D01*
X52192620Y-29806403D01*
X52057913Y-29856645D01*
X52057906Y-29856649D01*
X51942812Y-29942809D01*
X51942809Y-29942812D01*
X51856649Y-30057906D01*
X51856645Y-30057913D01*
X51806403Y-30192620D01*
X51806401Y-30192627D01*
X51800000Y-30252155D01*
X51800000Y-31250000D01*
X52954118Y-31250000D01*
X52915444Y-31343369D01*
X52894823Y-31500000D01*
X52915444Y-31656631D01*
X52954118Y-31750000D01*
X51800000Y-31750000D01*
X51800000Y-32747844D01*
X51505403Y-32747844D01*
X51505500Y-32743907D01*
X51505500Y-29000000D01*
X56794922Y-29000000D01*
X56815219Y-29387287D01*
X56875886Y-29770323D01*
X56875887Y-29770330D01*
X56976262Y-30144936D01*
X57115244Y-30506994D01*
X57291310Y-30852543D01*
X57502531Y-31177793D01*
X57711095Y-31435350D01*
X57711096Y-31435350D01*
X59202266Y-29944180D01*
X59365130Y-30134870D01*
X59555819Y-30297733D01*
X58064648Y-31788903D01*
X58064649Y-31788904D01*
X58322206Y-31997468D01*
X58647456Y-32208689D01*
X58993005Y-32384755D01*
X59355063Y-32523737D01*
X59729669Y-32624112D01*
X59729676Y-32624113D01*
X60112712Y-32684780D01*
X60499999Y-32705078D01*
X60500001Y-32705078D01*
X60887287Y-32684780D01*
X61270323Y-32624113D01*
X61270330Y-32624112D01*
X61644936Y-32523737D01*
X62006994Y-32384755D01*
X62352543Y-32208689D01*
X62677783Y-31997476D01*
X62677785Y-31997475D01*
X62935349Y-31788902D01*
X61444180Y-30297733D01*
X61634870Y-30134870D01*
X61797733Y-29944180D01*
X63288902Y-31435349D01*
X63497475Y-31177785D01*
X63497476Y-31177783D01*
X63708689Y-30852543D01*
X63884755Y-30506994D01*
X64023737Y-30144936D01*
X64124112Y-29770330D01*
X64124113Y-29770323D01*
X64184780Y-29387287D01*
X64205078Y-29000000D01*
X64205078Y-28999999D01*
X64184780Y-28612712D01*
X64124113Y-28229676D01*
X64124112Y-28229669D01*
X64023737Y-27855063D01*
X63884755Y-27493005D01*
X63708689Y-27147456D01*
X63497468Y-26822206D01*
X63288904Y-26564649D01*
X63288903Y-26564648D01*
X61797732Y-28055818D01*
X61634870Y-27865130D01*
X61444180Y-27702266D01*
X62935350Y-26211096D01*
X62935350Y-26211095D01*
X62677793Y-26002531D01*
X62352543Y-25791310D01*
X62006994Y-25615244D01*
X61644936Y-25476262D01*
X61270330Y-25375887D01*
X61270323Y-25375886D01*
X60887287Y-25315219D01*
X60500001Y-25294922D01*
X60499999Y-25294922D01*
X60112712Y-25315219D01*
X59729676Y-25375886D01*
X59729669Y-25375887D01*
X59355063Y-25476262D01*
X58993005Y-25615244D01*
X58647456Y-25791310D01*
X58322206Y-26002531D01*
X58064648Y-26211095D01*
X58064648Y-26211096D01*
X59555819Y-27702266D01*
X59365130Y-27865130D01*
X59202266Y-28055818D01*
X57711096Y-26564648D01*
X57711095Y-26564648D01*
X57502531Y-26822206D01*
X57291310Y-27147456D01*
X57115244Y-27493005D01*
X56976262Y-27855063D01*
X56875887Y-28229669D01*
X56875886Y-28229676D01*
X56815219Y-28612712D01*
X56794922Y-28999999D01*
X56794922Y-29000000D01*
X51505500Y-29000000D01*
X51505500Y-26006092D01*
X51504289Y-25956762D01*
X51503692Y-25944608D01*
X51500061Y-25895379D01*
X51482640Y-25718506D01*
X51468164Y-25620912D01*
X51464332Y-25601650D01*
X51463429Y-25597105D01*
X51463420Y-25597063D01*
X51449313Y-25540745D01*
X51439444Y-25501345D01*
X51389628Y-25337122D01*
X51356376Y-25244192D01*
X51356367Y-25244171D01*
X51348133Y-25224292D01*
X51347073Y-25221734D01*
X51347069Y-25221726D01*
X51326160Y-25177519D01*
X51315291Y-25108500D01*
X51343461Y-25044561D01*
X51401727Y-25006002D01*
X51438254Y-25000500D01*
X60497128Y-25000500D01*
X60502854Y-25000632D01*
X60518811Y-25001369D01*
X60673088Y-25008502D01*
X60869795Y-25018166D01*
X60880787Y-25019201D01*
X61062876Y-25044601D01*
X61063781Y-25044732D01*
X61247261Y-25071949D01*
X61257413Y-25073892D01*
X61438614Y-25116510D01*
X61440023Y-25116852D01*
X61617874Y-25161401D01*
X61627091Y-25164096D01*
X61804478Y-25223550D01*
X61806618Y-25224292D01*
X61978220Y-25285692D01*
X61986519Y-25289004D01*
X62157980Y-25364712D01*
X62160909Y-25366051D01*
X62247263Y-25406892D01*
X62325119Y-25443715D01*
X62332411Y-25447465D01*
X62429162Y-25501356D01*
X62496435Y-25538827D01*
X62499810Y-25540777D01*
X62655371Y-25634017D01*
X62661670Y-25638058D01*
X62816699Y-25744256D01*
X62820459Y-25746935D01*
X62966009Y-25854882D01*
X62971305Y-25859040D01*
X63116009Y-25979200D01*
X63119947Y-25982617D01*
X63254206Y-26104303D01*
X63258590Y-26108478D01*
X63391520Y-26241408D01*
X63395698Y-26245795D01*
X63517375Y-26380045D01*
X63520805Y-26383998D01*
X63640951Y-26528684D01*
X63645124Y-26534000D01*
X63667855Y-26564649D01*
X63753041Y-26679509D01*
X63755742Y-26683299D01*
X63861940Y-26838328D01*
X63865999Y-26844656D01*
X63959200Y-27000153D01*
X63961171Y-27003563D01*
X64052525Y-27167573D01*
X64056291Y-27174896D01*
X64133947Y-27339089D01*
X64135286Y-27342018D01*
X64210994Y-27513479D01*
X64214311Y-27521791D01*
X64275666Y-27693265D01*
X64276487Y-27695634D01*
X64335894Y-27872881D01*
X64338606Y-27882157D01*
X64383104Y-28059803D01*
X64383526Y-28061543D01*
X64426101Y-28242562D01*
X64428053Y-28252758D01*
X64455257Y-28436156D01*
X64455410Y-28437218D01*
X64480794Y-28619184D01*
X64481834Y-28630232D01*
X64491512Y-28827238D01*
X64491529Y-28827595D01*
X64499368Y-28997145D01*
X64499500Y-29002872D01*
X64499500Y-61997127D01*
X64499368Y-62002854D01*
X64491529Y-62172404D01*
X64491512Y-62172761D01*
X64481834Y-62369766D01*
X64480794Y-62380814D01*
X64455410Y-62562780D01*
X64455257Y-62563842D01*
X64428053Y-62747240D01*
X64426101Y-62757436D01*
X64383526Y-62938455D01*
X64383104Y-62940195D01*
X64338606Y-63117841D01*
X64335894Y-63127117D01*
X64276487Y-63304364D01*
X64275666Y-63306733D01*
X64214311Y-63478207D01*
X64210994Y-63486519D01*
X64135286Y-63657980D01*
X64133947Y-63660909D01*
X64056291Y-63825102D01*
X64052525Y-63832425D01*
X63961171Y-63996435D01*
X63959200Y-63999845D01*
X63865999Y-64155342D01*
X63861940Y-64161670D01*
X63755742Y-64316699D01*
X63753041Y-64320489D01*
X63645135Y-64465984D01*
X63640935Y-64471334D01*
X63520851Y-64615947D01*
X63517331Y-64620004D01*
X63395717Y-64754183D01*
X63391520Y-64758590D01*
X63258590Y-64891520D01*
X63254183Y-64895717D01*
X63120004Y-65017331D01*
X63115947Y-65020851D01*
X62971334Y-65140935D01*
X62965984Y-65145135D01*
X62820489Y-65253041D01*
X62816699Y-65255742D01*
X62661670Y-65361940D01*
X62655342Y-65365999D01*
X62499845Y-65459200D01*
X62496435Y-65461171D01*
X62332425Y-65552525D01*
X62325102Y-65556291D01*
X62160909Y-65633947D01*
X62157980Y-65635286D01*
X61986519Y-65710994D01*
X61978207Y-65714311D01*
X61806733Y-65775666D01*
X61804364Y-65776487D01*
X61627117Y-65835894D01*
X61617841Y-65838606D01*
X61440195Y-65883104D01*
X61438455Y-65883526D01*
X61257436Y-65926101D01*
X61247240Y-65928053D01*
X61063842Y-65955257D01*
X61062780Y-65955410D01*
X60880814Y-65980794D01*
X60869766Y-65981834D01*
X60672931Y-65991503D01*
X60672575Y-65991520D01*
X60507393Y-65999158D01*
X60502854Y-65999368D01*
X60497128Y-65999500D01*
X23002872Y-65999500D01*
X22997145Y-65999368D01*
X22992305Y-65999144D01*
X22827423Y-65991520D01*
X22827067Y-65991503D01*
X22630232Y-65981834D01*
X22619184Y-65980794D01*
X22437218Y-65955410D01*
X22436156Y-65955257D01*
X22252758Y-65928053D01*
X22242562Y-65926101D01*
X22061543Y-65883526D01*
X22059803Y-65883104D01*
X21882157Y-65838606D01*
X21872881Y-65835894D01*
X21695634Y-65776487D01*
X21693265Y-65775666D01*
X21521791Y-65714311D01*
X21513479Y-65710994D01*
X21342018Y-65635286D01*
X21339089Y-65633947D01*
X21174896Y-65556291D01*
X21167573Y-65552525D01*
X21003563Y-65461171D01*
X21000153Y-65459200D01*
X20875949Y-65384755D01*
X20844645Y-65365992D01*
X20838328Y-65361940D01*
X20683299Y-65255742D01*
X20679509Y-65253041D01*
X20534000Y-65145124D01*
X20528684Y-65140951D01*
X20383998Y-65020805D01*
X20380045Y-65017375D01*
X20245795Y-64895698D01*
X20241408Y-64891520D01*
X20108478Y-64758590D01*
X20104303Y-64754206D01*
X19982617Y-64619947D01*
X19979200Y-64616009D01*
X19859040Y-64471305D01*
X19854882Y-64466009D01*
X19746935Y-64320459D01*
X19744256Y-64316699D01*
X19638058Y-64161670D01*
X19634017Y-64155371D01*
X19540777Y-63999810D01*
X19538827Y-63996435D01*
X19458679Y-63852543D01*
X19447465Y-63832411D01*
X19443715Y-63825119D01*
X19406892Y-63747263D01*
X19366051Y-63660909D01*
X19364712Y-63657980D01*
X19289004Y-63486519D01*
X19285692Y-63478220D01*
X19224292Y-63306618D01*
X19223550Y-63304478D01*
X19164096Y-63127091D01*
X19161401Y-63117874D01*
X19116852Y-62940023D01*
X19116510Y-62938614D01*
X19073892Y-62757413D01*
X19071949Y-62747261D01*
X19044732Y-62563781D01*
X19044588Y-62562780D01*
X19019201Y-62380787D01*
X19018166Y-62369795D01*
X19008480Y-62172611D01*
X19000889Y-62008413D01*
X19000632Y-62002854D01*
X19000566Y-62000000D01*
X19294922Y-62000000D01*
X19315219Y-62387287D01*
X19375886Y-62770323D01*
X19375887Y-62770330D01*
X19476262Y-63144936D01*
X19615244Y-63506994D01*
X19791310Y-63852543D01*
X20002531Y-64177793D01*
X20211095Y-64435350D01*
X20211096Y-64435350D01*
X21702266Y-62944180D01*
X21865130Y-63134870D01*
X22055819Y-63297733D01*
X20564648Y-64788903D01*
X20564649Y-64788904D01*
X20822206Y-64997468D01*
X21147456Y-65208689D01*
X21493005Y-65384755D01*
X21855063Y-65523737D01*
X22229669Y-65624112D01*
X22229676Y-65624113D01*
X22612712Y-65684780D01*
X22999999Y-65705078D01*
X23000001Y-65705078D01*
X23387287Y-65684780D01*
X23770323Y-65624113D01*
X23770330Y-65624112D01*
X24144936Y-65523737D01*
X24506994Y-65384755D01*
X24852543Y-65208689D01*
X25177783Y-64997476D01*
X25177785Y-64997475D01*
X25435349Y-64788902D01*
X23944180Y-63297733D01*
X24134870Y-63134870D01*
X24297733Y-62944180D01*
X25788902Y-64435349D01*
X25997475Y-64177785D01*
X25997476Y-64177783D01*
X26208689Y-63852543D01*
X26384755Y-63506994D01*
X26523737Y-63144936D01*
X26624112Y-62770330D01*
X26624113Y-62770323D01*
X26684780Y-62387287D01*
X26705078Y-62000000D01*
X26705078Y-61999999D01*
X26684780Y-61612712D01*
X26624113Y-61229676D01*
X26624112Y-61229669D01*
X26523737Y-60855063D01*
X26483407Y-60750000D01*
X28650000Y-60750000D01*
X29566314Y-60750000D01*
X29540507Y-60790156D01*
X29500000Y-60928111D01*
X29500000Y-61071889D01*
X29540507Y-61209844D01*
X29566314Y-61250000D01*
X28650001Y-61250000D01*
X28650001Y-61799986D01*
X28660494Y-61902697D01*
X28715641Y-62069119D01*
X28715643Y-62069124D01*
X28807684Y-62218345D01*
X28931654Y-62342315D01*
X29080875Y-62434356D01*
X29080880Y-62434358D01*
X29247302Y-62489505D01*
X29247309Y-62489506D01*
X29350019Y-62499999D01*
X29749999Y-62499999D01*
X29750000Y-62499998D01*
X29750000Y-61435501D01*
X29857685Y-61484680D01*
X29964237Y-61500000D01*
X30035763Y-61500000D01*
X30142315Y-61484680D01*
X30250000Y-61435501D01*
X30250000Y-62499999D01*
X30649972Y-62499999D01*
X30649986Y-62499998D01*
X30752697Y-62489505D01*
X30919119Y-62434358D01*
X30919124Y-62434356D01*
X31068345Y-62342315D01*
X31192315Y-62218345D01*
X31287815Y-62063516D01*
X31339763Y-62016792D01*
X31408726Y-62005569D01*
X31472808Y-62033413D01*
X31481035Y-62040931D01*
X31628599Y-62188495D01*
X31628602Y-62188497D01*
X31628603Y-62188498D01*
X31822165Y-62324032D01*
X31822167Y-62324033D01*
X31822170Y-62324035D01*
X32036337Y-62423903D01*
X32036343Y-62423904D01*
X32036344Y-62423905D01*
X32075356Y-62434358D01*
X32264592Y-62485063D01*
X32452918Y-62501539D01*
X32499999Y-62505659D01*
X32500000Y-62505659D01*
X32500001Y-62505659D01*
X32539234Y-62502226D01*
X32735408Y-62485063D01*
X32963663Y-62423903D01*
X33177829Y-62324035D01*
X33371401Y-62188495D01*
X33538495Y-62021401D01*
X33674035Y-61827829D01*
X33773903Y-61613663D01*
X33835063Y-61385408D01*
X33850500Y-61208966D01*
X33850500Y-60791034D01*
X33846910Y-60750000D01*
X47150000Y-60750000D01*
X48096031Y-60750000D01*
X48063481Y-60800649D01*
X48025000Y-60931705D01*
X48025000Y-61068295D01*
X48063481Y-61199351D01*
X48096031Y-61250000D01*
X47150001Y-61250000D01*
X47150001Y-61774986D01*
X47160494Y-61877697D01*
X47215641Y-62044119D01*
X47215643Y-62044124D01*
X47307684Y-62193345D01*
X47431654Y-62317315D01*
X47580875Y-62409356D01*
X47580880Y-62409358D01*
X47747302Y-62464505D01*
X47747309Y-62464506D01*
X47850019Y-62474999D01*
X48249999Y-62474999D01*
X48250000Y-62474998D01*
X48250000Y-61408018D01*
X48364801Y-61460446D01*
X48466025Y-61475000D01*
X48533975Y-61475000D01*
X48635199Y-61460446D01*
X48750000Y-61408018D01*
X48750000Y-62474999D01*
X49149972Y-62474999D01*
X49149986Y-62474998D01*
X49252697Y-62464505D01*
X49419119Y-62409358D01*
X49419124Y-62409356D01*
X49568345Y-62317315D01*
X49692315Y-62193345D01*
X49787815Y-62038516D01*
X49839763Y-61991792D01*
X49908726Y-61980569D01*
X49972808Y-62008413D01*
X49981035Y-62015931D01*
X50128599Y-62163495D01*
X50128602Y-62163497D01*
X50128603Y-62163498D01*
X50322165Y-62299032D01*
X50322167Y-62299033D01*
X50322170Y-62299035D01*
X50536337Y-62398903D01*
X50536343Y-62398904D01*
X50536344Y-62398905D01*
X50575356Y-62409358D01*
X50764592Y-62460063D01*
X50952918Y-62476539D01*
X50999999Y-62480659D01*
X51000000Y-62480659D01*
X51000001Y-62480659D01*
X51039234Y-62477226D01*
X51235408Y-62460063D01*
X51463663Y-62398903D01*
X51677829Y-62299035D01*
X51871401Y-62163495D01*
X52038495Y-61996401D01*
X52148426Y-61839401D01*
X52203001Y-61795778D01*
X52272500Y-61788584D01*
X52334855Y-61820106D01*
X52351571Y-61839398D01*
X52378388Y-61877697D01*
X52461506Y-61996403D01*
X52628597Y-62163493D01*
X52628599Y-62163495D01*
X52706933Y-62218345D01*
X52822165Y-62299032D01*
X52822167Y-62299033D01*
X52822170Y-62299035D01*
X53036337Y-62398903D01*
X53036343Y-62398904D01*
X53036344Y-62398905D01*
X53075356Y-62409358D01*
X53264592Y-62460063D01*
X53452918Y-62476539D01*
X53499999Y-62480659D01*
X53500000Y-62480659D01*
X53500001Y-62480659D01*
X53539234Y-62477226D01*
X53735408Y-62460063D01*
X53963663Y-62398903D01*
X54177829Y-62299035D01*
X54371401Y-62163495D01*
X54534896Y-62000000D01*
X56794922Y-62000000D01*
X56815219Y-62387287D01*
X56875886Y-62770323D01*
X56875887Y-62770330D01*
X56976262Y-63144936D01*
X57115244Y-63506994D01*
X57291310Y-63852543D01*
X57502531Y-64177793D01*
X57711095Y-64435350D01*
X57711096Y-64435350D01*
X59202266Y-62944180D01*
X59365130Y-63134870D01*
X59555819Y-63297733D01*
X58064648Y-64788903D01*
X58064649Y-64788904D01*
X58322206Y-64997468D01*
X58647456Y-65208689D01*
X58993005Y-65384755D01*
X59355063Y-65523737D01*
X59729669Y-65624112D01*
X59729676Y-65624113D01*
X60112712Y-65684780D01*
X60499999Y-65705078D01*
X60500001Y-65705078D01*
X60887287Y-65684780D01*
X61270323Y-65624113D01*
X61270330Y-65624112D01*
X61644936Y-65523737D01*
X62006994Y-65384755D01*
X62352543Y-65208689D01*
X62677783Y-64997476D01*
X62677785Y-64997475D01*
X62935349Y-64788902D01*
X61444180Y-63297733D01*
X61634870Y-63134870D01*
X61797733Y-62944180D01*
X63288902Y-64435349D01*
X63497475Y-64177785D01*
X63497476Y-64177783D01*
X63708689Y-63852543D01*
X63884755Y-63506994D01*
X64023737Y-63144936D01*
X64124112Y-62770330D01*
X64124113Y-62770323D01*
X64184780Y-62387287D01*
X64205078Y-62000000D01*
X64205078Y-61999999D01*
X64184780Y-61612712D01*
X64124113Y-61229676D01*
X64124112Y-61229669D01*
X64023737Y-60855063D01*
X63884755Y-60493005D01*
X63708689Y-60147456D01*
X63497468Y-59822206D01*
X63288904Y-59564649D01*
X63288903Y-59564648D01*
X61797732Y-61055818D01*
X61634870Y-60865130D01*
X61444180Y-60702266D01*
X62935350Y-59211096D01*
X62935350Y-59211095D01*
X62677793Y-59002531D01*
X62352543Y-58791310D01*
X62006994Y-58615244D01*
X61644936Y-58476262D01*
X61270330Y-58375887D01*
X61270323Y-58375886D01*
X60887287Y-58315219D01*
X60500001Y-58294922D01*
X60499999Y-58294922D01*
X60112712Y-58315219D01*
X59729676Y-58375886D01*
X59729669Y-58375887D01*
X59355063Y-58476262D01*
X58993005Y-58615244D01*
X58647456Y-58791310D01*
X58322206Y-59002531D01*
X58064648Y-59211095D01*
X58064648Y-59211096D01*
X59555819Y-60702266D01*
X59365130Y-60865130D01*
X59202266Y-61055818D01*
X57711096Y-59564648D01*
X57711095Y-59564648D01*
X57502531Y-59822206D01*
X57291310Y-60147456D01*
X57115244Y-60493005D01*
X56976262Y-60855063D01*
X56875887Y-61229669D01*
X56875886Y-61229676D01*
X56815219Y-61612712D01*
X56794922Y-61999999D01*
X56794922Y-62000000D01*
X54534896Y-62000000D01*
X54538495Y-61996401D01*
X54674035Y-61802829D01*
X54773903Y-61588663D01*
X54835063Y-61360408D01*
X54850500Y-61183966D01*
X54850500Y-60816034D01*
X54835063Y-60639592D01*
X54773903Y-60411337D01*
X54674035Y-60197171D01*
X54661936Y-60179891D01*
X54538494Y-60003597D01*
X54371402Y-59836506D01*
X54371395Y-59836501D01*
X54177834Y-59700967D01*
X54177830Y-59700965D01*
X54138626Y-59682684D01*
X53963663Y-59601097D01*
X53963659Y-59601096D01*
X53963655Y-59601094D01*
X53735413Y-59539938D01*
X53735403Y-59539936D01*
X53500001Y-59519341D01*
X53499999Y-59519341D01*
X53264596Y-59539936D01*
X53264586Y-59539938D01*
X53036344Y-59601094D01*
X53036335Y-59601098D01*
X52822171Y-59700964D01*
X52822169Y-59700965D01*
X52628597Y-59836505D01*
X52461505Y-60003597D01*
X52351575Y-60160595D01*
X52296998Y-60204220D01*
X52227500Y-60211414D01*
X52165145Y-60179891D01*
X52148425Y-60160595D01*
X52038494Y-60003597D01*
X51871402Y-59836506D01*
X51871395Y-59836501D01*
X51677834Y-59700967D01*
X51677830Y-59700965D01*
X51638626Y-59682684D01*
X51463663Y-59601097D01*
X51463659Y-59601096D01*
X51463655Y-59601094D01*
X51235413Y-59539938D01*
X51235403Y-59539936D01*
X51000001Y-59519341D01*
X50999999Y-59519341D01*
X50764596Y-59539936D01*
X50764586Y-59539938D01*
X50536344Y-59601094D01*
X50536335Y-59601098D01*
X50322171Y-59700964D01*
X50322169Y-59700965D01*
X50128597Y-59836505D01*
X49981035Y-59984068D01*
X49919712Y-60017553D01*
X49850020Y-60012569D01*
X49794087Y-59970697D01*
X49787815Y-59961484D01*
X49692315Y-59806654D01*
X49568345Y-59682684D01*
X49419124Y-59590643D01*
X49419119Y-59590641D01*
X49252697Y-59535494D01*
X49252690Y-59535493D01*
X49149986Y-59525000D01*
X48750000Y-59525000D01*
X48750000Y-60591981D01*
X48635199Y-60539554D01*
X48533975Y-60525000D01*
X48466025Y-60525000D01*
X48364801Y-60539554D01*
X48250000Y-60591981D01*
X48250000Y-59525000D01*
X47850028Y-59525000D01*
X47850012Y-59525001D01*
X47747302Y-59535494D01*
X47580880Y-59590641D01*
X47580875Y-59590643D01*
X47431654Y-59682684D01*
X47307684Y-59806654D01*
X47215643Y-59955875D01*
X47215641Y-59955880D01*
X47160494Y-60122302D01*
X47160493Y-60122309D01*
X47150000Y-60225013D01*
X47150000Y-60750000D01*
X33846910Y-60750000D01*
X33835063Y-60614592D01*
X33773903Y-60386337D01*
X33674035Y-60172171D01*
X33665930Y-60160595D01*
X33538494Y-59978597D01*
X33371402Y-59811506D01*
X33371395Y-59811501D01*
X33177834Y-59675967D01*
X33177830Y-59675965D01*
X33138626Y-59657684D01*
X32963663Y-59576097D01*
X32963659Y-59576096D01*
X32963655Y-59576094D01*
X32735413Y-59514938D01*
X32735403Y-59514936D01*
X32500001Y-59494341D01*
X32499999Y-59494341D01*
X32264596Y-59514936D01*
X32264586Y-59514938D01*
X32036344Y-59576094D01*
X32036335Y-59576098D01*
X31822171Y-59675964D01*
X31822169Y-59675965D01*
X31628597Y-59811505D01*
X31481035Y-59959068D01*
X31419712Y-59992553D01*
X31350020Y-59987569D01*
X31294087Y-59945697D01*
X31287815Y-59936484D01*
X31192315Y-59781654D01*
X31068345Y-59657684D01*
X30919124Y-59565643D01*
X30919119Y-59565641D01*
X30752697Y-59510494D01*
X30752690Y-59510493D01*
X30649986Y-59500000D01*
X30250000Y-59500000D01*
X30250000Y-60564498D01*
X30142315Y-60515320D01*
X30035763Y-60500000D01*
X29964237Y-60500000D01*
X29857685Y-60515320D01*
X29750000Y-60564498D01*
X29750000Y-59500000D01*
X29350028Y-59500000D01*
X29350012Y-59500001D01*
X29247302Y-59510494D01*
X29080880Y-59565641D01*
X29080875Y-59565643D01*
X28931654Y-59657684D01*
X28807684Y-59781654D01*
X28715643Y-59930875D01*
X28715641Y-59930880D01*
X28660494Y-60097302D01*
X28660493Y-60097309D01*
X28650000Y-60200013D01*
X28650000Y-60750000D01*
X26483407Y-60750000D01*
X26384755Y-60493005D01*
X26208689Y-60147456D01*
X25997468Y-59822206D01*
X25788904Y-59564649D01*
X25788903Y-59564648D01*
X24297732Y-61055818D01*
X24134870Y-60865130D01*
X23944180Y-60702266D01*
X25435350Y-59211096D01*
X25435350Y-59211095D01*
X25177793Y-59002531D01*
X24852543Y-58791310D01*
X24506994Y-58615244D01*
X24144936Y-58476262D01*
X23770330Y-58375887D01*
X23770323Y-58375886D01*
X23387287Y-58315219D01*
X23000001Y-58294922D01*
X22999999Y-58294922D01*
X22612712Y-58315219D01*
X22229676Y-58375886D01*
X22229669Y-58375887D01*
X21855063Y-58476262D01*
X21493005Y-58615244D01*
X21147456Y-58791310D01*
X20822206Y-59002531D01*
X20564648Y-59211095D01*
X20564648Y-59211096D01*
X22055819Y-60702266D01*
X21865130Y-60865130D01*
X21702266Y-61055818D01*
X20211096Y-59564648D01*
X20211095Y-59564648D01*
X20002531Y-59822206D01*
X19791310Y-60147456D01*
X19615244Y-60493005D01*
X19476262Y-60855063D01*
X19375887Y-61229669D01*
X19375886Y-61229676D01*
X19315219Y-61612712D01*
X19294922Y-61999999D01*
X19294922Y-62000000D01*
X19000566Y-62000000D01*
X19000500Y-61997128D01*
X19000500Y-53750000D01*
X28650000Y-53750000D01*
X29566314Y-53750000D01*
X29540507Y-53790156D01*
X29500000Y-53928111D01*
X29500000Y-54071889D01*
X29540507Y-54209844D01*
X29566314Y-54250000D01*
X28650001Y-54250000D01*
X28650001Y-54799986D01*
X28660494Y-54902697D01*
X28715641Y-55069119D01*
X28715643Y-55069124D01*
X28807684Y-55218345D01*
X28931654Y-55342315D01*
X29080875Y-55434356D01*
X29080880Y-55434358D01*
X29247302Y-55489505D01*
X29247309Y-55489506D01*
X29350019Y-55499999D01*
X29749999Y-55499999D01*
X29750000Y-55499998D01*
X29750000Y-54435501D01*
X29857685Y-54484680D01*
X29964237Y-54500000D01*
X30035763Y-54500000D01*
X30142315Y-54484680D01*
X30250000Y-54435501D01*
X30250000Y-55499999D01*
X30649972Y-55499999D01*
X30649986Y-55499998D01*
X30752697Y-55489505D01*
X30919119Y-55434358D01*
X30919124Y-55434356D01*
X31068345Y-55342315D01*
X31192315Y-55218345D01*
X31287815Y-55063516D01*
X31339763Y-55016792D01*
X31408726Y-55005569D01*
X31472808Y-55033413D01*
X31481035Y-55040931D01*
X31628599Y-55188495D01*
X31628602Y-55188497D01*
X31628603Y-55188498D01*
X31822165Y-55324032D01*
X31822167Y-55324033D01*
X31822170Y-55324035D01*
X32036337Y-55423903D01*
X32036343Y-55423904D01*
X32036344Y-55423905D01*
X32075356Y-55434358D01*
X32264592Y-55485063D01*
X32452918Y-55501539D01*
X32499999Y-55505659D01*
X32500000Y-55505659D01*
X32500001Y-55505659D01*
X32539234Y-55502226D01*
X32735408Y-55485063D01*
X32963663Y-55423903D01*
X33177829Y-55324035D01*
X33371401Y-55188495D01*
X33538495Y-55021401D01*
X33674035Y-54827829D01*
X33773903Y-54613663D01*
X33835063Y-54385408D01*
X33850500Y-54208966D01*
X33850500Y-53791034D01*
X33846910Y-53750000D01*
X47150000Y-53750000D01*
X48096031Y-53750000D01*
X48063481Y-53800649D01*
X48025000Y-53931705D01*
X48025000Y-54068295D01*
X48063481Y-54199351D01*
X48096031Y-54250000D01*
X47150001Y-54250000D01*
X47150001Y-54774986D01*
X47160494Y-54877697D01*
X47215641Y-55044119D01*
X47215643Y-55044124D01*
X47307684Y-55193345D01*
X47431654Y-55317315D01*
X47580875Y-55409356D01*
X47580880Y-55409358D01*
X47747302Y-55464505D01*
X47747309Y-55464506D01*
X47850019Y-55474999D01*
X48249999Y-55474999D01*
X48250000Y-55474998D01*
X48250000Y-54408018D01*
X48364801Y-54460446D01*
X48466025Y-54475000D01*
X48533975Y-54475000D01*
X48635199Y-54460446D01*
X48750000Y-54408018D01*
X48750000Y-55474999D01*
X49149972Y-55474999D01*
X49149986Y-55474998D01*
X49252697Y-55464505D01*
X49419119Y-55409358D01*
X49419124Y-55409356D01*
X49568345Y-55317315D01*
X49692315Y-55193345D01*
X49787815Y-55038516D01*
X49839763Y-54991792D01*
X49908726Y-54980569D01*
X49972808Y-55008413D01*
X49981035Y-55015931D01*
X50128599Y-55163495D01*
X50128602Y-55163497D01*
X50128603Y-55163498D01*
X50322165Y-55299032D01*
X50322167Y-55299033D01*
X50322170Y-55299035D01*
X50536337Y-55398903D01*
X50536343Y-55398904D01*
X50536344Y-55398905D01*
X50575356Y-55409358D01*
X50764592Y-55460063D01*
X50952918Y-55476539D01*
X50999999Y-55480659D01*
X51000000Y-55480659D01*
X51000001Y-55480659D01*
X51039234Y-55477226D01*
X51235408Y-55460063D01*
X51463663Y-55398903D01*
X51677829Y-55299035D01*
X51871401Y-55163495D01*
X52038495Y-54996401D01*
X52148426Y-54839401D01*
X52203001Y-54795778D01*
X52272500Y-54788584D01*
X52334855Y-54820106D01*
X52351571Y-54839398D01*
X52378388Y-54877697D01*
X52461506Y-54996403D01*
X52628597Y-55163493D01*
X52628599Y-55163495D01*
X52706933Y-55218345D01*
X52822165Y-55299032D01*
X52822167Y-55299033D01*
X52822170Y-55299035D01*
X53036337Y-55398903D01*
X53036343Y-55398904D01*
X53036344Y-55398905D01*
X53075356Y-55409358D01*
X53264592Y-55460063D01*
X53452918Y-55476539D01*
X53499999Y-55480659D01*
X53500000Y-55480659D01*
X53500001Y-55480659D01*
X53539234Y-55477226D01*
X53735408Y-55460063D01*
X53963663Y-55398903D01*
X54177829Y-55299035D01*
X54371401Y-55163495D01*
X54538495Y-54996401D01*
X54674035Y-54802829D01*
X54773903Y-54588663D01*
X54835063Y-54360408D01*
X54850500Y-54183966D01*
X54850500Y-53816034D01*
X54835063Y-53639592D01*
X54773903Y-53411337D01*
X54674035Y-53197171D01*
X54661936Y-53179891D01*
X54538494Y-53003597D01*
X54371402Y-52836506D01*
X54371395Y-52836501D01*
X54177834Y-52700967D01*
X54177830Y-52700965D01*
X54138626Y-52682684D01*
X53963663Y-52601097D01*
X53963659Y-52601096D01*
X53963655Y-52601094D01*
X53735413Y-52539938D01*
X53735403Y-52539936D01*
X53500001Y-52519341D01*
X53499999Y-52519341D01*
X53264596Y-52539936D01*
X53264586Y-52539938D01*
X53036344Y-52601094D01*
X53036335Y-52601098D01*
X52822171Y-52700964D01*
X52822169Y-52700965D01*
X52628597Y-52836505D01*
X52461505Y-53003597D01*
X52351575Y-53160595D01*
X52296998Y-53204220D01*
X52227500Y-53211414D01*
X52165145Y-53179891D01*
X52148425Y-53160595D01*
X52038494Y-53003597D01*
X51871402Y-52836506D01*
X51871395Y-52836501D01*
X51677834Y-52700967D01*
X51677830Y-52700965D01*
X51638626Y-52682684D01*
X51463663Y-52601097D01*
X51463659Y-52601096D01*
X51463655Y-52601094D01*
X51235413Y-52539938D01*
X51235403Y-52539936D01*
X51000001Y-52519341D01*
X50999999Y-52519341D01*
X50764596Y-52539936D01*
X50764586Y-52539938D01*
X50536344Y-52601094D01*
X50536335Y-52601098D01*
X50322171Y-52700964D01*
X50322169Y-52700965D01*
X50128597Y-52836505D01*
X49981035Y-52984068D01*
X49919712Y-53017553D01*
X49850020Y-53012569D01*
X49794087Y-52970697D01*
X49787815Y-52961484D01*
X49692315Y-52806654D01*
X49568345Y-52682684D01*
X49419124Y-52590643D01*
X49419119Y-52590641D01*
X49252697Y-52535494D01*
X49252690Y-52535493D01*
X49149986Y-52525000D01*
X48750000Y-52525000D01*
X48750000Y-53591981D01*
X48635199Y-53539554D01*
X48533975Y-53525000D01*
X48466025Y-53525000D01*
X48364801Y-53539554D01*
X48250000Y-53591981D01*
X48250000Y-52525000D01*
X47850028Y-52525000D01*
X47850012Y-52525001D01*
X47747302Y-52535494D01*
X47580880Y-52590641D01*
X47580875Y-52590643D01*
X47431654Y-52682684D01*
X47307684Y-52806654D01*
X47215643Y-52955875D01*
X47215641Y-52955880D01*
X47160494Y-53122302D01*
X47160493Y-53122309D01*
X47150000Y-53225013D01*
X47150000Y-53750000D01*
X33846910Y-53750000D01*
X33835063Y-53614592D01*
X33773903Y-53386337D01*
X33674035Y-53172171D01*
X33665930Y-53160595D01*
X33538494Y-52978597D01*
X33371402Y-52811506D01*
X33371395Y-52811501D01*
X33177834Y-52675967D01*
X33177830Y-52675965D01*
X33138626Y-52657684D01*
X32963663Y-52576097D01*
X32963659Y-52576096D01*
X32963655Y-52576094D01*
X32735413Y-52514938D01*
X32735403Y-52514936D01*
X32500001Y-52494341D01*
X32499999Y-52494341D01*
X32264596Y-52514936D01*
X32264586Y-52514938D01*
X32036344Y-52576094D01*
X32036335Y-52576098D01*
X31822171Y-52675964D01*
X31822169Y-52675965D01*
X31628597Y-52811505D01*
X31481035Y-52959068D01*
X31419712Y-52992553D01*
X31350020Y-52987569D01*
X31294087Y-52945697D01*
X31287815Y-52936484D01*
X31192315Y-52781654D01*
X31068345Y-52657684D01*
X30919124Y-52565643D01*
X30919119Y-52565641D01*
X30752697Y-52510494D01*
X30752690Y-52510493D01*
X30649986Y-52500000D01*
X30250000Y-52500000D01*
X30250000Y-53564498D01*
X30142315Y-53515320D01*
X30035763Y-53500000D01*
X29964237Y-53500000D01*
X29857685Y-53515320D01*
X29750000Y-53564498D01*
X29750000Y-52500000D01*
X29350028Y-52500000D01*
X29350012Y-52500001D01*
X29247302Y-52510494D01*
X29080880Y-52565641D01*
X29080875Y-52565643D01*
X28931654Y-52657684D01*
X28807684Y-52781654D01*
X28715643Y-52930875D01*
X28715641Y-52930880D01*
X28660494Y-53097302D01*
X28660493Y-53097309D01*
X28650000Y-53200013D01*
X28650000Y-53750000D01*
X19000500Y-53750000D01*
X19000500Y-46750000D01*
X28650000Y-46750000D01*
X29566314Y-46750000D01*
X29540507Y-46790156D01*
X29500000Y-46928111D01*
X29500000Y-47071889D01*
X29540507Y-47209844D01*
X29566314Y-47250000D01*
X28650001Y-47250000D01*
X28650001Y-47799986D01*
X28660494Y-47902697D01*
X28715641Y-48069119D01*
X28715643Y-48069124D01*
X28807684Y-48218345D01*
X28931654Y-48342315D01*
X29080875Y-48434356D01*
X29080880Y-48434358D01*
X29247302Y-48489505D01*
X29247309Y-48489506D01*
X29350019Y-48499999D01*
X29749999Y-48499999D01*
X29750000Y-48499998D01*
X29750000Y-47435501D01*
X29857685Y-47484680D01*
X29964237Y-47500000D01*
X30035763Y-47500000D01*
X30142315Y-47484680D01*
X30250000Y-47435501D01*
X30250000Y-48499999D01*
X30649972Y-48499999D01*
X30649986Y-48499998D01*
X30752697Y-48489505D01*
X30919119Y-48434358D01*
X30919124Y-48434356D01*
X31068345Y-48342315D01*
X31192315Y-48218345D01*
X31287815Y-48063516D01*
X31339763Y-48016792D01*
X31408726Y-48005569D01*
X31472808Y-48033413D01*
X31481035Y-48040931D01*
X31628599Y-48188495D01*
X31628602Y-48188497D01*
X31628603Y-48188498D01*
X31822165Y-48324032D01*
X31822167Y-48324033D01*
X31822170Y-48324035D01*
X32036337Y-48423903D01*
X32036343Y-48423904D01*
X32036344Y-48423905D01*
X32075356Y-48434358D01*
X32264592Y-48485063D01*
X32452918Y-48501539D01*
X32499999Y-48505659D01*
X32500000Y-48505659D01*
X32500001Y-48505659D01*
X32539234Y-48502226D01*
X32735408Y-48485063D01*
X32963663Y-48423903D01*
X33177829Y-48324035D01*
X33371401Y-48188495D01*
X33538495Y-48021401D01*
X33674035Y-47827829D01*
X33773903Y-47613663D01*
X33835063Y-47385408D01*
X33850500Y-47208966D01*
X33850500Y-46791034D01*
X33846910Y-46750000D01*
X47150000Y-46750000D01*
X48096031Y-46750000D01*
X48063481Y-46800649D01*
X48025000Y-46931705D01*
X48025000Y-47068295D01*
X48063481Y-47199351D01*
X48096031Y-47250000D01*
X47150001Y-47250000D01*
X47150001Y-47774986D01*
X47160494Y-47877697D01*
X47215641Y-48044119D01*
X47215643Y-48044124D01*
X47307684Y-48193345D01*
X47431654Y-48317315D01*
X47580875Y-48409356D01*
X47580880Y-48409358D01*
X47747302Y-48464505D01*
X47747309Y-48464506D01*
X47850019Y-48474999D01*
X48249999Y-48474999D01*
X48250000Y-48474998D01*
X48250000Y-47408018D01*
X48364801Y-47460446D01*
X48466025Y-47475000D01*
X48533975Y-47475000D01*
X48635199Y-47460446D01*
X48750000Y-47408018D01*
X48750000Y-48474999D01*
X49149972Y-48474999D01*
X49149986Y-48474998D01*
X49252697Y-48464505D01*
X49419119Y-48409358D01*
X49419124Y-48409356D01*
X49568345Y-48317315D01*
X49692315Y-48193345D01*
X49787815Y-48038516D01*
X49839763Y-47991792D01*
X49908726Y-47980569D01*
X49972808Y-48008413D01*
X49981035Y-48015931D01*
X50128599Y-48163495D01*
X50128602Y-48163497D01*
X50128603Y-48163498D01*
X50322165Y-48299032D01*
X50322167Y-48299033D01*
X50322170Y-48299035D01*
X50536337Y-48398903D01*
X50536343Y-48398904D01*
X50536344Y-48398905D01*
X50575356Y-48409358D01*
X50764592Y-48460063D01*
X50952918Y-48476539D01*
X50999999Y-48480659D01*
X51000000Y-48480659D01*
X51000001Y-48480659D01*
X51039234Y-48477226D01*
X51235408Y-48460063D01*
X51463663Y-48398903D01*
X51677829Y-48299035D01*
X51871401Y-48163495D01*
X52038495Y-47996401D01*
X52148426Y-47839401D01*
X52203001Y-47795778D01*
X52272500Y-47788584D01*
X52334855Y-47820106D01*
X52351571Y-47839398D01*
X52378388Y-47877697D01*
X52461506Y-47996403D01*
X52628597Y-48163493D01*
X52628599Y-48163495D01*
X52706933Y-48218345D01*
X52822165Y-48299032D01*
X52822167Y-48299033D01*
X52822170Y-48299035D01*
X53036337Y-48398903D01*
X53036343Y-48398904D01*
X53036344Y-48398905D01*
X53075356Y-48409358D01*
X53264592Y-48460063D01*
X53452918Y-48476539D01*
X53499999Y-48480659D01*
X53500000Y-48480659D01*
X53500001Y-48480659D01*
X53539234Y-48477226D01*
X53735408Y-48460063D01*
X53963663Y-48398903D01*
X54177829Y-48299035D01*
X54371401Y-48163495D01*
X54538495Y-47996401D01*
X54674035Y-47802829D01*
X54773903Y-47588663D01*
X54835063Y-47360408D01*
X54850500Y-47183966D01*
X54850500Y-46816034D01*
X54835063Y-46639592D01*
X54773903Y-46411337D01*
X54674035Y-46197171D01*
X54661936Y-46179891D01*
X54538494Y-46003597D01*
X54371402Y-45836506D01*
X54371395Y-45836501D01*
X54177834Y-45700967D01*
X54177830Y-45700965D01*
X54138626Y-45682684D01*
X53963663Y-45601097D01*
X53963659Y-45601096D01*
X53963655Y-45601094D01*
X53735413Y-45539938D01*
X53735403Y-45539936D01*
X53500001Y-45519341D01*
X53499999Y-45519341D01*
X53264596Y-45539936D01*
X53264586Y-45539938D01*
X53036344Y-45601094D01*
X53036335Y-45601098D01*
X52822171Y-45700964D01*
X52822169Y-45700965D01*
X52628597Y-45836505D01*
X52461505Y-46003597D01*
X52351575Y-46160595D01*
X52296998Y-46204220D01*
X52227500Y-46211414D01*
X52165145Y-46179891D01*
X52148425Y-46160595D01*
X52038494Y-46003597D01*
X51871402Y-45836506D01*
X51871395Y-45836501D01*
X51677834Y-45700967D01*
X51677830Y-45700965D01*
X51638626Y-45682684D01*
X51463663Y-45601097D01*
X51463659Y-45601096D01*
X51463655Y-45601094D01*
X51235413Y-45539938D01*
X51235403Y-45539936D01*
X51000001Y-45519341D01*
X50999999Y-45519341D01*
X50764596Y-45539936D01*
X50764586Y-45539938D01*
X50536344Y-45601094D01*
X50536335Y-45601098D01*
X50322171Y-45700964D01*
X50322169Y-45700965D01*
X50128597Y-45836505D01*
X49981035Y-45984068D01*
X49919712Y-46017553D01*
X49850020Y-46012569D01*
X49794087Y-45970697D01*
X49787815Y-45961484D01*
X49692315Y-45806654D01*
X49568345Y-45682684D01*
X49419124Y-45590643D01*
X49419119Y-45590641D01*
X49252697Y-45535494D01*
X49252690Y-45535493D01*
X49149986Y-45525000D01*
X48750000Y-45525000D01*
X48750000Y-46591981D01*
X48635199Y-46539554D01*
X48533975Y-46525000D01*
X48466025Y-46525000D01*
X48364801Y-46539554D01*
X48250000Y-46591981D01*
X48250000Y-45525000D01*
X47850028Y-45525000D01*
X47850012Y-45525001D01*
X47747302Y-45535494D01*
X47580880Y-45590641D01*
X47580875Y-45590643D01*
X47431654Y-45682684D01*
X47307684Y-45806654D01*
X47215643Y-45955875D01*
X47215641Y-45955880D01*
X47160494Y-46122302D01*
X47160493Y-46122309D01*
X47150000Y-46225013D01*
X47150000Y-46750000D01*
X33846910Y-46750000D01*
X33835063Y-46614592D01*
X33773903Y-46386337D01*
X33674035Y-46172171D01*
X33665930Y-46160595D01*
X33538494Y-45978597D01*
X33371402Y-45811506D01*
X33371395Y-45811501D01*
X33177834Y-45675967D01*
X33177830Y-45675965D01*
X33138626Y-45657684D01*
X32963663Y-45576097D01*
X32963659Y-45576096D01*
X32963655Y-45576094D01*
X32735413Y-45514938D01*
X32735403Y-45514936D01*
X32500001Y-45494341D01*
X32499999Y-45494341D01*
X32264596Y-45514936D01*
X32264586Y-45514938D01*
X32036344Y-45576094D01*
X32036335Y-45576098D01*
X31822171Y-45675964D01*
X31822169Y-45675965D01*
X31628597Y-45811505D01*
X31481035Y-45959068D01*
X31419712Y-45992553D01*
X31350020Y-45987569D01*
X31294087Y-45945697D01*
X31287815Y-45936484D01*
X31192315Y-45781654D01*
X31068345Y-45657684D01*
X30919124Y-45565643D01*
X30919119Y-45565641D01*
X30752697Y-45510494D01*
X30752690Y-45510493D01*
X30649986Y-45500000D01*
X30250000Y-45500000D01*
X30250000Y-46564498D01*
X30142315Y-46515320D01*
X30035763Y-46500000D01*
X29964237Y-46500000D01*
X29857685Y-46515320D01*
X29750000Y-46564498D01*
X29750000Y-45500000D01*
X29350028Y-45500000D01*
X29350012Y-45500001D01*
X29247302Y-45510494D01*
X29080880Y-45565641D01*
X29080875Y-45565643D01*
X28931654Y-45657684D01*
X28807684Y-45781654D01*
X28715643Y-45930875D01*
X28715641Y-45930880D01*
X28660494Y-46097302D01*
X28660493Y-46097309D01*
X28650000Y-46200013D01*
X28650000Y-46750000D01*
X19000500Y-46750000D01*
X19000500Y-36250000D01*
X20969341Y-36250000D01*
X20989936Y-36485403D01*
X20989938Y-36485413D01*
X21051094Y-36713655D01*
X21051096Y-36713659D01*
X21051097Y-36713663D01*
X21101031Y-36820746D01*
X21150964Y-36927828D01*
X21150965Y-36927830D01*
X21286505Y-37121402D01*
X21434067Y-37268964D01*
X21467552Y-37330287D01*
X21462568Y-37399979D01*
X21420696Y-37455912D01*
X21411483Y-37462183D01*
X21256659Y-37557680D01*
X21256655Y-37557683D01*
X21132684Y-37681654D01*
X21040643Y-37830875D01*
X21040641Y-37830880D01*
X20985494Y-37997302D01*
X20985493Y-37997309D01*
X20975000Y-38100013D01*
X20975000Y-38500000D01*
X22041314Y-38500000D01*
X22015507Y-38540156D01*
X21975000Y-38678111D01*
X21975000Y-38821889D01*
X22015507Y-38959844D01*
X22041314Y-39000000D01*
X20975001Y-39000000D01*
X20975001Y-39399986D01*
X20985494Y-39502697D01*
X21040641Y-39669119D01*
X21040643Y-39669124D01*
X21132684Y-39818345D01*
X21256654Y-39942315D01*
X21405875Y-40034356D01*
X21405880Y-40034358D01*
X21572302Y-40089505D01*
X21572309Y-40089506D01*
X21675019Y-40099999D01*
X22224999Y-40099999D01*
X22225000Y-40099998D01*
X22225000Y-39185501D01*
X22332685Y-39234680D01*
X22439237Y-39250000D01*
X22510763Y-39250000D01*
X22617315Y-39234680D01*
X22725000Y-39185501D01*
X22725000Y-40099999D01*
X23274972Y-40099999D01*
X23274986Y-40099998D01*
X23377697Y-40089505D01*
X23544119Y-40034358D01*
X23544124Y-40034356D01*
X23693345Y-39942315D01*
X23817315Y-39818345D01*
X23859471Y-39750000D01*
X28650000Y-39750000D01*
X29566314Y-39750000D01*
X29540507Y-39790156D01*
X29500000Y-39928111D01*
X29500000Y-40071889D01*
X29540507Y-40209844D01*
X29566314Y-40250000D01*
X28650001Y-40250000D01*
X28650001Y-40799986D01*
X28660494Y-40902697D01*
X28715641Y-41069119D01*
X28715643Y-41069124D01*
X28807684Y-41218345D01*
X28931654Y-41342315D01*
X29080875Y-41434356D01*
X29080880Y-41434358D01*
X29247302Y-41489505D01*
X29247309Y-41489506D01*
X29350019Y-41499999D01*
X29749999Y-41499999D01*
X29750000Y-41499998D01*
X29750000Y-40435501D01*
X29857685Y-40484680D01*
X29964237Y-40500000D01*
X30035763Y-40500000D01*
X30142315Y-40484680D01*
X30250000Y-40435501D01*
X30250000Y-41499999D01*
X30649972Y-41499999D01*
X30649986Y-41499998D01*
X30752697Y-41489505D01*
X30919119Y-41434358D01*
X30919124Y-41434356D01*
X31068345Y-41342315D01*
X31192315Y-41218345D01*
X31287815Y-41063516D01*
X31339763Y-41016792D01*
X31408726Y-41005569D01*
X31472808Y-41033413D01*
X31481035Y-41040931D01*
X31628599Y-41188495D01*
X31628602Y-41188497D01*
X31628603Y-41188498D01*
X31822165Y-41324032D01*
X31822167Y-41324033D01*
X31822170Y-41324035D01*
X32036337Y-41423903D01*
X32036343Y-41423904D01*
X32036344Y-41423905D01*
X32075356Y-41434358D01*
X32264592Y-41485063D01*
X32452918Y-41501539D01*
X32499999Y-41505659D01*
X32500000Y-41505659D01*
X32500001Y-41505659D01*
X32539234Y-41502226D01*
X32735408Y-41485063D01*
X32963663Y-41423903D01*
X33177829Y-41324035D01*
X33371401Y-41188495D01*
X33538495Y-41021401D01*
X33674035Y-40827829D01*
X33773903Y-40613663D01*
X33835063Y-40385408D01*
X33850500Y-40208966D01*
X33850500Y-39791034D01*
X33846910Y-39750000D01*
X47150000Y-39750000D01*
X48096031Y-39750000D01*
X48063481Y-39800649D01*
X48025000Y-39931705D01*
X48025000Y-40068295D01*
X48063481Y-40199351D01*
X48096031Y-40250000D01*
X47150001Y-40250000D01*
X47150001Y-40774986D01*
X47160494Y-40877697D01*
X47215641Y-41044119D01*
X47215643Y-41044124D01*
X47307684Y-41193345D01*
X47431654Y-41317315D01*
X47580875Y-41409356D01*
X47580880Y-41409358D01*
X47747302Y-41464505D01*
X47747309Y-41464506D01*
X47850019Y-41474999D01*
X48249999Y-41474999D01*
X48250000Y-41474998D01*
X48250000Y-40408018D01*
X48364801Y-40460446D01*
X48466025Y-40475000D01*
X48533975Y-40475000D01*
X48635199Y-40460446D01*
X48750000Y-40408018D01*
X48750000Y-41474999D01*
X49149972Y-41474999D01*
X49149986Y-41474998D01*
X49252697Y-41464505D01*
X49419119Y-41409358D01*
X49419124Y-41409356D01*
X49568345Y-41317315D01*
X49692315Y-41193345D01*
X49787815Y-41038516D01*
X49839763Y-40991792D01*
X49908726Y-40980569D01*
X49972808Y-41008413D01*
X49981035Y-41015931D01*
X50128599Y-41163495D01*
X50128602Y-41163497D01*
X50128603Y-41163498D01*
X50322165Y-41299032D01*
X50322167Y-41299033D01*
X50322170Y-41299035D01*
X50536337Y-41398903D01*
X50536343Y-41398904D01*
X50536344Y-41398905D01*
X50575356Y-41409358D01*
X50764592Y-41460063D01*
X50952918Y-41476539D01*
X50999999Y-41480659D01*
X51000000Y-41480659D01*
X51000001Y-41480659D01*
X51039234Y-41477226D01*
X51235408Y-41460063D01*
X51463663Y-41398903D01*
X51677829Y-41299035D01*
X51871401Y-41163495D01*
X52038495Y-40996401D01*
X52148426Y-40839401D01*
X52203001Y-40795778D01*
X52272500Y-40788584D01*
X52334855Y-40820106D01*
X52351571Y-40839398D01*
X52378388Y-40877697D01*
X52461506Y-40996403D01*
X52628597Y-41163493D01*
X52628599Y-41163495D01*
X52706933Y-41218345D01*
X52822165Y-41299032D01*
X52822167Y-41299033D01*
X52822170Y-41299035D01*
X53036337Y-41398903D01*
X53036343Y-41398904D01*
X53036344Y-41398905D01*
X53075356Y-41409358D01*
X53264592Y-41460063D01*
X53452918Y-41476539D01*
X53499999Y-41480659D01*
X53500000Y-41480659D01*
X53500001Y-41480659D01*
X53539234Y-41477226D01*
X53735408Y-41460063D01*
X53963663Y-41398903D01*
X54177829Y-41299035D01*
X54371401Y-41163495D01*
X54538495Y-40996401D01*
X54674035Y-40802829D01*
X54773903Y-40588663D01*
X54835063Y-40360408D01*
X54850500Y-40183966D01*
X54850500Y-39816034D01*
X54835063Y-39639592D01*
X54773903Y-39411337D01*
X54674035Y-39197171D01*
X54661936Y-39179891D01*
X54538494Y-39003597D01*
X54371402Y-38836506D01*
X54371395Y-38836501D01*
X54177834Y-38700967D01*
X54177830Y-38700965D01*
X54138626Y-38682684D01*
X53963663Y-38601097D01*
X53963659Y-38601096D01*
X53963655Y-38601094D01*
X53735413Y-38539938D01*
X53735403Y-38539936D01*
X53500001Y-38519341D01*
X53499999Y-38519341D01*
X53264596Y-38539936D01*
X53264586Y-38539938D01*
X53036344Y-38601094D01*
X53036335Y-38601098D01*
X52822171Y-38700964D01*
X52822169Y-38700965D01*
X52628597Y-38836505D01*
X52461505Y-39003597D01*
X52351575Y-39160595D01*
X52296998Y-39204220D01*
X52227500Y-39211414D01*
X52165145Y-39179891D01*
X52148425Y-39160595D01*
X52038494Y-39003597D01*
X51871402Y-38836506D01*
X51871395Y-38836501D01*
X51677834Y-38700967D01*
X51677830Y-38700965D01*
X51638626Y-38682684D01*
X51463663Y-38601097D01*
X51463659Y-38601096D01*
X51463655Y-38601094D01*
X51235413Y-38539938D01*
X51235403Y-38539936D01*
X51000001Y-38519341D01*
X50999999Y-38519341D01*
X50764596Y-38539936D01*
X50764586Y-38539938D01*
X50536344Y-38601094D01*
X50536335Y-38601098D01*
X50322171Y-38700964D01*
X50322169Y-38700965D01*
X50128597Y-38836505D01*
X49981035Y-38984068D01*
X49919712Y-39017553D01*
X49850020Y-39012569D01*
X49794087Y-38970697D01*
X49787815Y-38961484D01*
X49692315Y-38806654D01*
X49568345Y-38682684D01*
X49419124Y-38590643D01*
X49419119Y-38590641D01*
X49252697Y-38535494D01*
X49252690Y-38535493D01*
X49149986Y-38525000D01*
X48750000Y-38525000D01*
X48750000Y-39591981D01*
X48635199Y-39539554D01*
X48533975Y-39525000D01*
X48466025Y-39525000D01*
X48364801Y-39539554D01*
X48250000Y-39591981D01*
X48250000Y-38525000D01*
X47850028Y-38525000D01*
X47850012Y-38525001D01*
X47747302Y-38535494D01*
X47580880Y-38590641D01*
X47580875Y-38590643D01*
X47431654Y-38682684D01*
X47307684Y-38806654D01*
X47215643Y-38955875D01*
X47215641Y-38955880D01*
X47160494Y-39122302D01*
X47160493Y-39122309D01*
X47150000Y-39225013D01*
X47150000Y-39750000D01*
X33846910Y-39750000D01*
X33835063Y-39614592D01*
X33773903Y-39386337D01*
X33674035Y-39172171D01*
X33665930Y-39160595D01*
X33538494Y-38978597D01*
X33371402Y-38811506D01*
X33371395Y-38811501D01*
X33177834Y-38675967D01*
X33177830Y-38675965D01*
X33138626Y-38657684D01*
X32963663Y-38576097D01*
X32963659Y-38576096D01*
X32963655Y-38576094D01*
X32735413Y-38514938D01*
X32735403Y-38514936D01*
X32500001Y-38494341D01*
X32499999Y-38494341D01*
X32264596Y-38514936D01*
X32264586Y-38514938D01*
X32036344Y-38576094D01*
X32036335Y-38576098D01*
X31822171Y-38675964D01*
X31822169Y-38675965D01*
X31628597Y-38811505D01*
X31481035Y-38959068D01*
X31419712Y-38992553D01*
X31350020Y-38987569D01*
X31294087Y-38945697D01*
X31287815Y-38936484D01*
X31192315Y-38781654D01*
X31068345Y-38657684D01*
X30919124Y-38565643D01*
X30919119Y-38565641D01*
X30752697Y-38510494D01*
X30752690Y-38510493D01*
X30649986Y-38500000D01*
X30250000Y-38500000D01*
X30250000Y-39564498D01*
X30142315Y-39515320D01*
X30035763Y-39500000D01*
X29964237Y-39500000D01*
X29857685Y-39515320D01*
X29750000Y-39564498D01*
X29750000Y-38500000D01*
X29350028Y-38500000D01*
X29350012Y-38500001D01*
X29247302Y-38510494D01*
X29080880Y-38565641D01*
X29080875Y-38565643D01*
X28931654Y-38657684D01*
X28807684Y-38781654D01*
X28715643Y-38930875D01*
X28715641Y-38930880D01*
X28660494Y-39097302D01*
X28660493Y-39097309D01*
X28650000Y-39200013D01*
X28650000Y-39750000D01*
X23859471Y-39750000D01*
X23909356Y-39669124D01*
X23909358Y-39669119D01*
X23964505Y-39502697D01*
X23964506Y-39502690D01*
X23974999Y-39399986D01*
X23975000Y-39399973D01*
X23975000Y-39000000D01*
X22908686Y-39000000D01*
X22934493Y-38959844D01*
X22975000Y-38821889D01*
X22975000Y-38678111D01*
X22934493Y-38540156D01*
X22908686Y-38500000D01*
X23974999Y-38500000D01*
X23974999Y-38100028D01*
X23974998Y-38100013D01*
X23964505Y-37997302D01*
X23909358Y-37830880D01*
X23909356Y-37830875D01*
X23817315Y-37681654D01*
X23693344Y-37557683D01*
X23693340Y-37557680D01*
X23538516Y-37462183D01*
X23491791Y-37410235D01*
X23480570Y-37341273D01*
X23508413Y-37277191D01*
X23515932Y-37268964D01*
X23663495Y-37121401D01*
X23799035Y-36927830D01*
X23898903Y-36713663D01*
X23960063Y-36485408D01*
X23980659Y-36250000D01*
X23960063Y-36014592D01*
X23898903Y-35786337D01*
X23799035Y-35572171D01*
X23799034Y-35572169D01*
X23663494Y-35378597D01*
X23496402Y-35211505D01*
X23302830Y-35075965D01*
X23302828Y-35075964D01*
X23195746Y-35026031D01*
X23088663Y-34976097D01*
X23088659Y-34976096D01*
X23088655Y-34976094D01*
X22860413Y-34914938D01*
X22860403Y-34914936D01*
X22683967Y-34899500D01*
X22683966Y-34899500D01*
X22266034Y-34899500D01*
X22266033Y-34899500D01*
X22089596Y-34914936D01*
X22089586Y-34914938D01*
X21861344Y-34976094D01*
X21861335Y-34976098D01*
X21647171Y-35075964D01*
X21647169Y-35075965D01*
X21453597Y-35211505D01*
X21286506Y-35378597D01*
X21286501Y-35378604D01*
X21150967Y-35572165D01*
X21150965Y-35572169D01*
X21051098Y-35786335D01*
X21051094Y-35786344D01*
X20989938Y-36014586D01*
X20989936Y-36014596D01*
X20969341Y-36249999D01*
X20969341Y-36250000D01*
X19000500Y-36250000D01*
X19000500Y-29002871D01*
X19000566Y-29000000D01*
X19294922Y-29000000D01*
X19315219Y-29387287D01*
X19375886Y-29770323D01*
X19375887Y-29770330D01*
X19476262Y-30144936D01*
X19615244Y-30506994D01*
X19791310Y-30852543D01*
X20002531Y-31177793D01*
X20211095Y-31435350D01*
X20211096Y-31435350D01*
X21702266Y-29944180D01*
X21865130Y-30134870D01*
X22055819Y-30297733D01*
X20564648Y-31788903D01*
X20564649Y-31788904D01*
X20822206Y-31997468D01*
X21147456Y-32208689D01*
X21493005Y-32384755D01*
X21855063Y-32523737D01*
X22229669Y-32624112D01*
X22229676Y-32624113D01*
X22612712Y-32684780D01*
X22999999Y-32705078D01*
X23000001Y-32705078D01*
X23387287Y-32684780D01*
X23770323Y-32624113D01*
X23770330Y-32624112D01*
X24144936Y-32523737D01*
X24506994Y-32384755D01*
X24852543Y-32208689D01*
X25177783Y-31997476D01*
X25177785Y-31997475D01*
X25435349Y-31788902D01*
X23944180Y-30297733D01*
X24134870Y-30134870D01*
X24297733Y-29944180D01*
X25788902Y-31435349D01*
X25817526Y-31400001D01*
X28434671Y-31400001D01*
X28453963Y-31669733D01*
X28453964Y-31669740D01*
X28511443Y-31933971D01*
X28605948Y-32187349D01*
X28605950Y-32187353D01*
X28735544Y-32424686D01*
X28735549Y-32424694D01*
X28897599Y-32641169D01*
X28897615Y-32641187D01*
X29088812Y-32832384D01*
X29088830Y-32832400D01*
X29305305Y-32994450D01*
X29305313Y-32994455D01*
X29542646Y-33124049D01*
X29542650Y-33124051D01*
X29542652Y-33124052D01*
X29796024Y-33218555D01*
X29796027Y-33218555D01*
X29796028Y-33218556D01*
X29884105Y-33237715D01*
X30060267Y-33276037D01*
X30310707Y-33293949D01*
X30329999Y-33295329D01*
X30330000Y-33295329D01*
X30330001Y-33295329D01*
X30348005Y-33294041D01*
X30599733Y-33276037D01*
X30863976Y-33218555D01*
X31117348Y-33124052D01*
X31354692Y-32994452D01*
X31571177Y-32832394D01*
X31762394Y-32641177D01*
X31924452Y-32424692D01*
X32054052Y-32187348D01*
X32148555Y-31933976D01*
X32206037Y-31669733D01*
X32225329Y-31400000D01*
X32206037Y-31130267D01*
X32148555Y-30866024D01*
X32054052Y-30612652D01*
X32047143Y-30600000D01*
X31924455Y-30375313D01*
X31924450Y-30375305D01*
X31762400Y-30158830D01*
X31762384Y-30158812D01*
X31571187Y-29967615D01*
X31571169Y-29967599D01*
X31354697Y-29805551D01*
X31352776Y-29804317D01*
X31352273Y-29803737D01*
X31351147Y-29802894D01*
X31351330Y-29802648D01*
X31307020Y-29751514D01*
X31297075Y-29682356D01*
X31326098Y-29618799D01*
X31352776Y-29595683D01*
X31354683Y-29594456D01*
X31354692Y-29594452D01*
X31571177Y-29432394D01*
X31762394Y-29241177D01*
X31924452Y-29024692D01*
X32054052Y-28787348D01*
X32148555Y-28533976D01*
X32206037Y-28269733D01*
X32225329Y-28000000D01*
X32206037Y-27730267D01*
X32148555Y-27466024D01*
X32054052Y-27212652D01*
X31939880Y-27003563D01*
X31924455Y-26975313D01*
X31924450Y-26975305D01*
X31762400Y-26758830D01*
X31762384Y-26758812D01*
X31571187Y-26567615D01*
X31571169Y-26567599D01*
X31354694Y-26405549D01*
X31354686Y-26405544D01*
X31117353Y-26275950D01*
X31117349Y-26275948D01*
X30863971Y-26181443D01*
X30599740Y-26123964D01*
X30599733Y-26123963D01*
X30330001Y-26104671D01*
X30329999Y-26104671D01*
X30060266Y-26123963D01*
X30060259Y-26123964D01*
X29796028Y-26181443D01*
X29542650Y-26275948D01*
X29542646Y-26275950D01*
X29305313Y-26405544D01*
X29305305Y-26405549D01*
X29088830Y-26567599D01*
X29088812Y-26567615D01*
X28897615Y-26758812D01*
X28897599Y-26758830D01*
X28735549Y-26975305D01*
X28735544Y-26975313D01*
X28605950Y-27212646D01*
X28605948Y-27212650D01*
X28511443Y-27466028D01*
X28453964Y-27730259D01*
X28453963Y-27730266D01*
X28434671Y-27999998D01*
X28434671Y-28000001D01*
X28453963Y-28269733D01*
X28453964Y-28269740D01*
X28511443Y-28533971D01*
X28605948Y-28787349D01*
X28605950Y-28787353D01*
X28735544Y-29024686D01*
X28735549Y-29024694D01*
X28897599Y-29241169D01*
X28897615Y-29241187D01*
X29088812Y-29432384D01*
X29088830Y-29432400D01*
X29173732Y-29495956D01*
X29305308Y-29594452D01*
X29305320Y-29594458D01*
X29307232Y-29595688D01*
X29307736Y-29596270D01*
X29308853Y-29597106D01*
X29308671Y-29597349D01*
X29352983Y-29648495D01*
X29362923Y-29717654D01*
X29333894Y-29781208D01*
X29307232Y-29804312D01*
X29305299Y-29805554D01*
X29088830Y-29967599D01*
X29088812Y-29967615D01*
X28897615Y-30158812D01*
X28897599Y-30158830D01*
X28735549Y-30375305D01*
X28735544Y-30375313D01*
X28605950Y-30612646D01*
X28605948Y-30612650D01*
X28511443Y-30866028D01*
X28453964Y-31130259D01*
X28453963Y-31130266D01*
X28434671Y-31399998D01*
X28434671Y-31400001D01*
X25817526Y-31400001D01*
X25997475Y-31177785D01*
X25997476Y-31177783D01*
X26208689Y-30852543D01*
X26384755Y-30506994D01*
X26523737Y-30144936D01*
X26624112Y-29770330D01*
X26624113Y-29770323D01*
X26684780Y-29387287D01*
X26705078Y-29000000D01*
X26705078Y-28999999D01*
X26684780Y-28612712D01*
X26624113Y-28229676D01*
X26624112Y-28229669D01*
X26523737Y-27855063D01*
X26384755Y-27493005D01*
X26208689Y-27147456D01*
X25997468Y-26822206D01*
X25788904Y-26564649D01*
X25788903Y-26564648D01*
X24297732Y-28055818D01*
X24134870Y-27865130D01*
X23944180Y-27702266D01*
X25435350Y-26211096D01*
X25435350Y-26211095D01*
X25177793Y-26002531D01*
X24852543Y-25791310D01*
X24506994Y-25615244D01*
X24144936Y-25476262D01*
X23770330Y-25375887D01*
X23770323Y-25375886D01*
X23387287Y-25315219D01*
X23000001Y-25294922D01*
X22999999Y-25294922D01*
X22612712Y-25315219D01*
X22229676Y-25375886D01*
X22229669Y-25375887D01*
X21855063Y-25476262D01*
X21493005Y-25615244D01*
X21147456Y-25791310D01*
X20822206Y-26002531D01*
X20564648Y-26211095D01*
X20564648Y-26211096D01*
X22055819Y-27702266D01*
X21865130Y-27865130D01*
X21702266Y-28055818D01*
X20211096Y-26564648D01*
X20211095Y-26564648D01*
X20002531Y-26822206D01*
X19791310Y-27147456D01*
X19615244Y-27493005D01*
X19476262Y-27855063D01*
X19375887Y-28229669D01*
X19375886Y-28229676D01*
X19315219Y-28612712D01*
X19294922Y-28999999D01*
X19294922Y-29000000D01*
X19000566Y-29000000D01*
X19000632Y-28997145D01*
X19000710Y-28995456D01*
X19008490Y-28827168D01*
X19018166Y-28630200D01*
X19019200Y-28619217D01*
X19044611Y-28437054D01*
X19044722Y-28436286D01*
X19071950Y-28252729D01*
X19073890Y-28242595D01*
X19116526Y-28061318D01*
X19116837Y-28060037D01*
X19161405Y-27882111D01*
X19164091Y-27872922D01*
X19223572Y-27695457D01*
X19224270Y-27693442D01*
X19285699Y-27521759D01*
X19288996Y-27513497D01*
X19364713Y-27342015D01*
X19366051Y-27339089D01*
X19443727Y-27174855D01*
X19447452Y-27167612D01*
X19538864Y-27003497D01*
X19540745Y-27000243D01*
X19634036Y-26844598D01*
X19638034Y-26838363D01*
X19744270Y-26683278D01*
X19746899Y-26679590D01*
X19854909Y-26533954D01*
X19859011Y-26528728D01*
X19979239Y-26383944D01*
X19982577Y-26380097D01*
X20104340Y-26245752D01*
X20108437Y-26241450D01*
X20241450Y-26108437D01*
X20245752Y-26104340D01*
X20380097Y-25982577D01*
X20383944Y-25979239D01*
X20528728Y-25859011D01*
X20533954Y-25854909D01*
X20679590Y-25746899D01*
X20683278Y-25744270D01*
X20838363Y-25638034D01*
X20844598Y-25634036D01*
X21000243Y-25540745D01*
X21003497Y-25538864D01*
X21167612Y-25447452D01*
X21174855Y-25443727D01*
X21339098Y-25366046D01*
X21342018Y-25364712D01*
X21404501Y-25337123D01*
X21513497Y-25288996D01*
X21521759Y-25285699D01*
X21693442Y-25224270D01*
X21695457Y-25223572D01*
X21872922Y-25164091D01*
X21882111Y-25161405D01*
X22060037Y-25116837D01*
X22061318Y-25116526D01*
X22242595Y-25073890D01*
X22252729Y-25071950D01*
X22436286Y-25044722D01*
X22437054Y-25044611D01*
X22619217Y-25019200D01*
X22630200Y-25018166D01*
X22826898Y-25008502D01*
X22991674Y-25000884D01*
X22997146Y-25000632D01*
X23002872Y-25000500D01*
X37561744Y-25000500D01*
X37628783Y-25020185D01*
G37*
%TD.AperFunction*%
%TD*%
%TA.AperFunction,Conductor*%
%TO.N,/5V_UNFUSED*%
G36*
X49511137Y-25001096D02*
G01*
X49682941Y-25018018D01*
X49706769Y-25022757D01*
X49871001Y-25072576D01*
X49893453Y-25081877D01*
X50044798Y-25162772D01*
X50065010Y-25176277D01*
X50197666Y-25285145D01*
X50214854Y-25302333D01*
X50323722Y-25434989D01*
X50337227Y-25455201D01*
X50418121Y-25606543D01*
X50427424Y-25629001D01*
X50477240Y-25793224D01*
X50481982Y-25817065D01*
X50499403Y-25993938D01*
X50500000Y-26006092D01*
X50500000Y-32743907D01*
X50499403Y-32756061D01*
X50481982Y-32932934D01*
X50477240Y-32956775D01*
X50427424Y-33120998D01*
X50418121Y-33143456D01*
X50337227Y-33294798D01*
X50323722Y-33315010D01*
X50214854Y-33447666D01*
X50197666Y-33464854D01*
X50065010Y-33573722D01*
X50044798Y-33587227D01*
X49893456Y-33668121D01*
X49870998Y-33677424D01*
X49706775Y-33727240D01*
X49682934Y-33731982D01*
X49506061Y-33749403D01*
X49493907Y-33750000D01*
X39506093Y-33750000D01*
X39493939Y-33749403D01*
X39317065Y-33731982D01*
X39293224Y-33727240D01*
X39129001Y-33677424D01*
X39106543Y-33668121D01*
X38955201Y-33587227D01*
X38934989Y-33573722D01*
X38802333Y-33464854D01*
X38785145Y-33447666D01*
X38676277Y-33315010D01*
X38662772Y-33294798D01*
X38581878Y-33143456D01*
X38572575Y-33120998D01*
X38522757Y-32956769D01*
X38518018Y-32932941D01*
X38500597Y-32756061D01*
X38500000Y-32743907D01*
X38500000Y-26006092D01*
X38500597Y-25993938D01*
X38518018Y-25817056D01*
X38522757Y-25793232D01*
X38572577Y-25628994D01*
X38581875Y-25606549D01*
X38662775Y-25455195D01*
X38676272Y-25434995D01*
X38785149Y-25302328D01*
X38802328Y-25285149D01*
X38934995Y-25176272D01*
X38955195Y-25162775D01*
X39106549Y-25081875D01*
X39128994Y-25072577D01*
X39293232Y-25022757D01*
X39317056Y-25018018D01*
X39488862Y-25001096D01*
X39501016Y-25000500D01*
X49498984Y-25000500D01*
X49511137Y-25001096D01*
G37*
%TD.AperFunction*%
%TD*%
M02*
